<svg version="1.1" viewBox="0.0 0.0 600.0 371.0" fill="none" stroke="none" stroke-linecap="square" stroke-miterlimit="10" width="600" height="371" xmlns:xlink="http://www.w3.org/1999/xlink" xmlns="http://www.w3.org/2000/svg"><path fill="#ffffff" d="M0 0L600.0 0L600.0 371.0L0 371.0L0 0Z" fill-rule="nonzero"/><path stroke="#cccccc" stroke-width="1.0" stroke-linecap="butt" d="M48.5 61.5L48.5 332.5" fill-rule="nonzero"/><path stroke="#cccccc" stroke-width="1.0" stroke-linecap="butt" d="M226.5 61.5L226.5 332.5" fill-rule="nonzero"/><path stroke="#cccccc" stroke-width="1.0" stroke-linecap="butt" d="M403.5 61.5L403.5 332.5" fill-rule="nonzero"/><path stroke="#cccccc" stroke-width="1.0" stroke-linecap="butt" d="M581.5 61.5L581.5 332.5" fill-rule="nonzero"/><path stroke="#333333" stroke-width="1.0" stroke-linecap="butt" d="M48.5 332.5L581.5 332.5" fill-rule="nonzero"/><path stroke="#cccccc" stroke-width="1.0" stroke-linecap="butt" d="M48.5 278.5L581.5 278.5" fill-rule="nonzero"/><path stroke="#cccccc" stroke-width="1.0" stroke-linecap="butt" d="M48.5 224.5L581.5 224.5" fill-rule="nonzero"/><path stroke="#cccccc" stroke-width="1.0" stroke-linecap="butt" d="M48.5 170.5L581.5 170.5" fill-rule="nonzero"/><path stroke="#cccccc" stroke-width="1.0" stroke-linecap="butt" d="M48.5 116.5L581.5 116.5" fill-rule="nonzero"/><path stroke="#cccccc" stroke-width="1.0" stroke-linecap="butt" d="M48.5 61.5L581.5 61.5" fill-rule="nonzero"/><clipPath id="id_0"><path d="M48.55 61.916668L581.45 61.916668L581.45 332.45L48.55 332.45L48.55 61.916668Z" clip-rule="nonzero"/></clipPath><path stroke="#4285f4" stroke-width="2.0" stroke-linecap="butt" clip-path="url(#id_0)" d="M48.55 110.55336L226.18333 98.36069L403.81668 94.49846L581.45 93.89864" fill-rule="nonzero"/><path fill="#000000" fill-opacity="0.0" clip-path="url(#id_0)" d="M51.55 110.55336C51.55 112.21021 50.206856 113.55336 48.55 113.55336C46.893147 113.55336 45.55 112.21021 45.55 110.55336C45.55 108.8965 46.893147 107.55336 48.55 107.55336C50.206856 107.55336 51.55 108.8965 51.55 110.55336Z" fill-rule="nonzero"/><path fill="#000000" fill-opacity="0.0" clip-path="url(#id_0)" d="M229.18333 98.36069C229.18333 100.01754 227.8402 101.36069 226.18333 101.36069C224.52647 101.36069 223.18333 100.01754 223.18333 98.36069C223.18333 96.703835 224.52647 95.36069 226.18333 95.36069C227.8402 95.36069 229.18333 96.703835 229.18333 98.36069Z" fill-rule="nonzero"/><path fill="#000000" fill-opacity="0.0" clip-path="url(#id_0)" d="M406.81668 94.49846C406.81668 96.15531 405.4735 97.49846 403.81668 97.49846C402.15982 97.49846 400.81668 96.15531 400.81668 94.49846C400.81668 92.841606 402.15982 91.49846 403.81668 91.49846C405.4735 91.49846 406.81668 92.841606 406.81668 94.49846Z" fill-rule="nonzero"/><path fill="#000000" fill-opacity="0.0" clip-path="url(#id_0)" d="M584.45 93.89864C584.45 95.5555 583.1069 96.89864 581.45 96.89864C579.79315 96.89864 578.45 95.5555 578.45 93.89864C578.45 92.24179 579.79315 90.89864 581.45 90.89864C583.1069 90.89864 584.45 92.24179 584.45 93.89864Z" fill-rule="nonzero"/><path fill="#000000" d="M19.05 332.21564Q19.05 330.6844 19.3625 329.7625Q19.675 328.825 20.284374 328.325Q20.909374 327.825 21.846874 327.825Q22.534374 327.825 23.05 328.10626Q23.58125 328.3875 23.925 328.91876Q24.26875 329.4344 24.45625 330.1844Q24.64375 330.9344 24.64375 332.21564Q24.64375 333.73126 24.33125 334.65314Q24.034374 335.575 23.409374 336.09064Q22.8 336.59064 21.846874 336.59064Q20.6125 336.59064 19.89375 335.7Q19.05 334.6375 19.05 332.21564ZM20.128124 332.21564Q20.128124 334.325 20.628124 335.02814Q21.128124 335.73126 21.846874 335.73126Q22.58125 335.73126 23.065624 335.02814Q23.565624 334.325 23.565624 332.21564Q23.565624 330.09064 23.065624 329.40314Q22.58125 328.7 21.83125 328.7Q21.1125 328.7 20.675 329.3094Q20.128124 330.09064 20.128124 332.21564ZM26.64375 336.45L26.64375 335.2469L27.846874 335.2469L27.846874 336.45L26.64375 336.45ZM29.05 332.21564Q29.05 330.6844 29.3625 329.7625Q29.675 328.825 30.284374 328.325Q30.909374 327.825 31.846874 327.825Q32.534374 327.825 33.05 328.10626Q33.58125 328.3875 33.925 328.91876Q34.26875 329.4344 34.45625 330.1844Q34.64375 330.9344 34.64375 332.21564Q34.64375 333.73126 34.33125 334.65314Q34.034374 335.575 33.409374 336.09064Q32.8 336.59064 31.846874 336.59064Q30.6125 336.59064 29.89375 335.7Q29.05 334.6375 29.05 332.21564ZM30.128124 332.21564Q30.128124 334.325 30.628124 335.02814Q31.128124 335.73126 31.846874 335.73126Q32.58125 335.73126 33.065624 335.02814Q33.565624 334.325 33.565624 332.21564Q33.565624 330.09064 33.065624 329.40314Q32.58125 328.7 31.83125 328.7Q31.1125 328.7 30.675 329.3094Q30.128124 330.09064 30.128124 332.21564ZM36.05 332.21564Q36.05 330.6844 36.3625 329.7625Q36.675 328.825 37.284374 328.325Q37.909374 327.825 38.846874 327.825Q39.534374 327.825 40.05 328.10626Q40.58125 328.3875 40.925 328.91876Q41.26875 329.4344 41.45625 330.1844Q41.64375 330.9344 41.64375 332.21564Q41.64375 333.73126 41.33125 334.65314Q41.034374 335.575 40.409374 336.09064Q39.8 336.59064 38.846874 336.59064Q37.6125 336.59064 36.89375 335.7Q36.05 334.6375 36.05 332.21564ZM37.128124 332.21564Q37.128124 334.325 37.628124 335.02814Q38.128124 335.73126 38.846874 335.73126Q39.58125 335.73126 40.065624 335.02814Q40.565624 334.325 40.565624 332.21564Q40.565624 330.09064 40.065624 329.40314Q39.58125 328.7 38.83125 328.7Q38.1125 328.7 37.675 329.3094Q37.128124 330.09064 37.128124 332.21564Z" fill-rule="nonzero"/><path fill="#000000" d="M19.05 278.10895Q19.05 276.5777 19.3625 275.65582Q19.675 274.71832 20.284374 274.21832Q20.909374 273.71832 21.846874 273.71832Q22.534374 273.71832 23.05 273.99957Q23.58125 274.28082 23.925 274.81207Q24.26875 275.3277 24.45625 276.0777Q24.64375 276.8277 24.64375 278.10895Q24.64375 279.62457 24.33125 280.54645Q24.034374 281.46832 23.409374 281.98395Q22.8 282.48395 21.846874 282.48395Q20.6125 282.48395 19.89375 281.59332Q19.05 280.53082 19.05 278.10895ZM20.128124 278.10895Q20.128124 280.21832 20.628124 280.92145Q21.128124 281.62457 21.846874 281.62457Q22.58125 281.62457 23.065624 280.92145Q23.565624 280.21832 23.565624 278.10895Q23.565624 275.98395 23.065624 275.29645Q22.58125 274.59332 21.83125 274.59332Q21.1125 274.59332 20.675 275.2027Q20.128124 275.98395 20.128124 278.10895ZM26.64375 282.34332L26.64375 281.1402L27.846874 281.1402L27.846874 282.34332L26.64375 282.34332ZM29.05 278.10895Q29.05 276.5777 29.3625 275.65582Q29.675 274.71832 30.284374 274.21832Q30.909374 273.71832 31.846874 273.71832Q32.534374 273.71832 33.05 273.99957Q33.58125 274.28082 33.925 274.81207Q34.26875 275.3277 34.45625 276.0777Q34.64375 276.8277 34.64375 278.10895Q34.64375 279.62457 34.33125 280.54645Q34.034374 281.46832 33.409374 281.98395Q32.8 282.48395 31.846874 282.48395Q30.6125 282.48395 29.89375 281.59332Q29.05 280.53082 29.05 278.10895ZM30.128124 278.10895Q30.128124 280.21832 30.628124 280.92145Q31.128124 281.62457 31.846874 281.62457Q32.58125 281.62457 33.065624 280.92145Q33.565624 280.21832 33.565624 278.10895Q33.565624 275.98395 33.065624 275.29645Q32.58125 274.59332 31.83125 274.59332Q31.1125 274.59332 30.675 275.2027Q30.128124 275.98395 30.128124 278.10895ZM36.05 280.09332L37.159374 279.99957Q37.284374 280.81207 37.721874 281.21832Q38.175 281.62457 38.815624 281.62457Q39.565624 281.62457 40.096874 281.04645Q40.628124 280.46832 40.628124 279.53082Q40.628124 278.62457 40.1125 278.10895Q39.6125 277.5777 38.784374 277.5777Q38.284374 277.5777 37.8625 277.81207Q37.45625 278.04645 37.221874 278.40582L36.2375 278.28082L37.065624 273.87457L41.346874 273.87457L41.346874 274.87457L37.909374 274.87457L37.45625 277.18707Q38.221874 276.6402 39.065624 276.6402Q40.190624 276.6402 40.95625 277.42145Q41.7375 278.2027 41.7375 279.43707Q41.7375 280.59332 41.065624 281.4527Q40.2375 282.48395 38.815624 282.48395Q37.64375 282.48395 36.89375 281.8277Q36.159374 281.17145 36.05 280.09332Z" fill-rule="nonzero"/><path fill="#000000" d="M19.05 224.00229Q19.05 222.47104 19.3625 221.54916Q19.675 220.61166 20.284374 220.11166Q20.909374 219.61166 21.846874 219.61166Q22.534374 219.61166 23.05 219.89291Q23.58125 220.17416 23.925 220.70541Q24.26875 221.22104 24.45625 221.97104Q24.64375 222.72104 24.64375 224.00229Q24.64375 225.51791 24.33125 226.43979Q24.034374 227.36166 23.409374 227.87729Q22.8 228.37729 21.846874 228.37729Q20.6125 228.37729 19.89375 227.48666Q19.05 226.42416 19.05 224.00229ZM20.128124 224.00229Q20.128124 226.11166 20.628124 226.81479Q21.128124 227.51791 21.846874 227.51791Q22.58125 227.51791 23.065624 226.81479Q23.565624 226.11166 23.565624 224.00229Q23.565624 221.87729 23.065624 221.18979Q22.58125 220.48666 21.83125 220.48666Q21.1125 220.48666 20.675 221.09604Q20.128124 221.87729 20.128124 224.00229ZM26.64375 228.23666L26.64375 227.03354L27.846874 227.03354L27.846874 228.23666L26.64375 228.23666ZM33.01875 228.23666L31.971874 228.23666L31.971874 221.51791Q31.58125 221.87729 30.95625 222.25229Q30.346874 222.61166 29.8625 222.78354L29.8625 221.76791Q30.7375 221.34604 31.39375 220.76791Q32.065624 220.17416 32.346874 219.61166L33.01875 219.61166L33.01875 228.23666ZM36.05 224.00229Q36.05 222.47104 36.3625 221.54916Q36.675 220.61166 37.284374 220.11166Q37.909374 219.61166 38.846874 219.61166Q39.534374 219.61166 40.05 219.89291Q40.58125 220.17416 40.925 220.70541Q41.26875 221.22104 41.45625 221.97104Q41.64375 222.72104 41.64375 224.00229Q41.64375 225.51791 41.33125 226.43979Q41.034374 227.36166 40.409374 227.87729Q39.8 228.37729 38.846874 228.37729Q37.6125 228.37729 36.89375 227.48666Q36.05 226.42416 36.05 224.00229ZM37.128124 224.00229Q37.128124 226.11166 37.628124 226.81479Q38.128124 227.51791 38.846874 227.51791Q39.58125 227.51791 40.065624 226.81479Q40.565624 226.11166 40.565624 224.00229Q40.565624 221.87729 40.065624 221.18979Q39.58125 220.48666 38.83125 220.48666Q38.1125 220.48666 37.675 221.09604Q37.128124 221.87729 37.128124 224.00229Z" fill-rule="nonzero"/><path fill="#000000" d="M19.05 169.89563Q19.05 168.36438 19.3625 167.4425Q19.675 166.505 20.284374 166.005Q20.909374 165.505 21.846874 165.505Q22.534374 165.505 23.05 165.78625Q23.58125 166.0675 23.925 166.59875Q24.26875 167.11438 24.45625 167.86438Q24.64375 168.61438 24.64375 169.89563Q24.64375 171.41125 24.33125 172.33313Q24.034374 173.255 23.409374 173.77063Q22.8 174.27063 21.846874 174.27063Q20.6125 174.27063 19.89375 173.38Q19.05 172.3175 19.05 169.89563ZM20.128124 169.89563Q20.128124 172.005 20.628124 172.70813Q21.128124 173.41125 21.846874 173.41125Q22.58125 173.41125 23.065624 172.70813Q23.565624 172.005 23.565624 169.89563Q23.565624 167.77063 23.065624 167.08313Q22.58125 166.38 21.83125 166.38Q21.1125 166.38 20.675 166.98938Q20.128124 167.77063 20.128124 169.89563ZM26.64375 174.13L26.64375 172.92688L27.846874 172.92688L27.846874 174.13L26.64375 174.13ZM33.01875 174.13L31.971874 174.13L31.971874 167.41125Q31.58125 167.77063 30.95625 168.14563Q30.346874 168.505 29.8625 168.67688L29.8625 167.66125Q30.7375 167.23938 31.39375 166.66125Q32.065624 166.0675 32.346874 165.505L33.01875 165.505L33.01875 174.13ZM36.05 171.88L37.159374 171.78625Q37.284374 172.59875 37.721874 173.005Q38.175 173.41125 38.815624 173.41125Q39.565624 173.41125 40.096874 172.83313Q40.628124 172.255 40.628124 171.3175Q40.628124 170.41125 40.1125 169.89563Q39.6125 169.36438 38.784374 169.36438Q38.284374 169.36438 37.8625 169.59875Q37.45625 169.83313 37.221874 170.1925L36.2375 170.0675L37.065624 165.66125L41.346874 165.66125L41.346874 166.66125L37.909374 166.66125L37.45625 168.97375Q38.221874 168.42688 39.065624 168.42688Q40.190624 168.42688 40.95625 169.20813Q41.7375 169.98938 41.7375 171.22375Q41.7375 172.38 41.065624 173.23938Q40.2375 174.27063 38.815624 174.27063Q37.64375 174.27063 36.89375 173.61438Q36.159374 172.95813 36.05 171.88Z" fill-rule="nonzero"/><path fill="#000000" d="M19.05 115.788956Q19.05 114.257706 19.3625 113.33583Q19.675 112.39833 20.284374 111.89833Q20.909374 111.39833 21.846874 111.39833Q22.534374 111.39833 23.05 111.67958Q23.58125 111.96083 23.925 112.49208Q24.26875 113.007706 24.45625 113.757706Q24.64375 114.507706 24.64375 115.788956Q24.64375 117.30458 24.33125 118.226456Q24.034374 119.14833 23.409374 119.663956Q22.8 120.163956 21.846874 120.163956Q20.6125 120.163956 19.89375 119.27333Q19.05 118.21083 19.05 115.788956ZM20.128124 115.788956Q20.128124 117.89833 20.628124 118.601456Q21.128124 119.30458 21.846874 119.30458Q22.58125 119.30458 23.065624 118.601456Q23.565624 117.89833 23.565624 115.788956Q23.565624 113.663956 23.065624 112.976456Q22.58125 112.27333 21.83125 112.27333Q21.1125 112.27333 20.675 112.882706Q20.128124 113.663956 20.128124 115.788956ZM26.64375 120.02333L26.64375 118.820206L27.846874 118.820206L27.846874 120.02333L26.64375 120.02333ZM34.596874 119.007706L34.596874 120.02333L28.909374 120.02333Q28.909374 119.64833 29.034374 119.288956Q29.253124 118.71083 29.721874 118.14833Q30.20625 117.58583 31.1125 116.851456Q32.51875 115.695206 33.003124 115.02333Q33.503124 114.351456 33.503124 113.757706Q33.503124 113.132706 33.05 112.71083Q32.596874 112.27333 31.878124 112.27333Q31.1125 112.27333 30.659374 112.726456Q30.20625 113.17958 30.190624 113.99208L29.1125 113.882706Q29.221874 112.663956 29.940624 112.038956Q30.675 111.39833 31.909374 111.39833Q33.14375 111.39833 33.8625 112.08583Q34.58125 112.77333 34.58125 113.788956Q34.58125 114.30458 34.3625 114.80458Q34.159374 115.288956 33.659374 115.851456Q33.175 116.39833 32.05 117.351456Q31.096874 118.14833 30.815624 118.445206Q30.55 118.726456 30.378124 119.007706L34.596874 119.007706ZM36.05 115.788956Q36.05 114.257706 36.3625 113.33583Q36.675 112.39833 37.284374 111.89833Q37.909374 111.39833 38.846874 111.39833Q39.534374 111.39833 40.05 111.67958Q40.58125 111.96083 40.925 112.49208Q41.26875 113.007706 41.45625 113.757706Q41.64375 114.507706 41.64375 115.788956Q41.64375 117.30458 41.33125 118.226456Q41.034374 119.14833 40.409374 119.663956Q39.8 120.163956 38.846874 120.163956Q37.6125 120.163956 36.89375 119.27333Q36.05 118.21083 36.05 115.788956ZM37.128124 115.788956Q37.128124 117.89833 37.628124 118.601456Q38.128124 119.30458 38.846874 119.30458Q39.58125 119.30458 40.065624 118.601456Q40.565624 117.89833 40.565624 115.788956Q40.565624 113.663956 40.065624 112.976456Q39.58125 112.27333 38.83125 112.27333Q38.1125 112.27333 37.675 112.882706Q37.128124 113.663956 37.128124 115.788956Z" fill-rule="nonzero"/><path fill="#000000" d="M19.05 61.68229Q19.05 60.15104 19.3625 59.229164Q19.675 58.291664 20.284374 57.791664Q20.909374 57.291664 21.846874 57.291664Q22.534374 57.291664 23.05 57.572914Q23.58125 57.854164 23.925 58.385414Q24.26875 58.90104 24.45625 59.65104Q24.64375 60.40104 24.64375 61.68229Q24.64375 63.197914 24.33125 64.11979Q24.034374 65.041664 23.409374 65.55729Q22.8 66.05729 21.846874 66.05729Q20.6125 66.05729 19.89375 65.166664Q19.05 64.104164 19.05 61.68229ZM20.128124 61.68229Q20.128124 63.791664 20.628124 64.49479Q21.128124 65.197914 21.846874 65.197914Q22.58125 65.197914 23.065624 64.49479Q23.565624 63.791664 23.565624 61.68229Q23.565624 59.55729 23.065624 58.86979Q22.58125 58.166664 21.83125 58.166664Q21.1125 58.166664 20.675 58.77604Q20.128124 59.55729 20.128124 61.68229ZM26.64375 65.916664L26.64375 64.71354L27.846874 64.71354L27.846874 65.916664L26.64375 65.916664ZM34.596874 64.90104L34.596874 65.916664L28.909374 65.916664Q28.909374 65.541664 29.034374 65.18229Q29.253124 64.604164 29.721874 64.041664Q30.20625 63.479164 31.1125 62.74479Q32.51875 61.58854 33.003124 60.916664Q33.503124 60.24479 33.503124 59.65104Q33.503124 59.02604 33.05 58.604164Q32.596874 58.166664 31.878124 58.166664Q31.1125 58.166664 30.659374 58.61979Q30.20625 59.072914 30.190624 59.885414L29.1125 59.77604Q29.221874 58.55729 29.940624 57.93229Q30.675 57.291664 31.909374 57.291664Q33.14375 57.291664 33.8625 57.979164Q34.58125 58.666664 34.58125 59.68229Q34.58125 60.197914 34.3625 60.697914Q34.159374 61.18229 33.659374 61.74479Q33.175 62.291664 32.05 63.24479Q31.096874 64.041664 30.815624 64.33854Q30.55 64.61979 30.378124 64.90104L34.596874 64.90104ZM36.05 63.666664L37.159374 63.572914Q37.284374 64.385414 37.721874 64.791664Q38.175 65.197914 38.815624 65.197914Q39.565624 65.197914 40.096874 64.61979Q40.628124 64.041664 40.628124 63.104164Q40.628124 62.197914 40.1125 61.68229Q39.6125 61.15104 38.784374 61.15104Q38.284374 61.15104 37.8625 61.385414Q37.45625 61.61979 37.221874 61.979164L36.2375 61.854164L37.065624 57.447914L41.346874 57.447914L41.346874 58.447914L37.909374 58.447914L37.45625 60.760414Q38.221874 60.21354 39.065624 60.21354Q40.190624 60.21354 40.95625 60.99479Q41.7375 61.77604 41.7375 63.010414Q41.7375 64.166664 41.065624 65.02604Q40.2375 66.05729 38.815624 66.05729Q37.64375 66.05729 36.89375 65.40104Q36.159374 64.74479 36.05 63.666664Z" fill-rule="nonzero"/><path fill="#000000" d="M49.51875 349.45L48.471874 349.45L48.471874 342.73126Q48.08125 343.09064 47.45625 343.46564Q46.846874 343.825 46.3625 343.9969L46.3625 342.98126Q47.2375 342.5594 47.89375 341.98126Q48.565624 341.3875 48.846874 340.825L49.51875 340.825L49.51875 349.45Z" fill-rule="nonzero"/><path fill="#000000" d="M228.73021 348.4344L228.73021 349.45L223.04271 349.45Q223.04271 349.075 223.16771 348.71564Q223.38646 348.1375 223.85521 347.575Q224.33958 347.0125 225.24583 346.27814Q226.65208 345.1219 227.13646 344.45Q227.63646 343.77814 227.63646 343.1844Q227.63646 342.5594 227.18333 342.1375Q226.73021 341.7 226.01146 341.7Q225.24583 341.7 224.79271 342.15314Q224.33958 342.60626 224.32396 343.41876L223.24583 343.3094Q223.35521 342.09064 224.07396 341.46564Q224.80833 340.825 226.04271 340.825Q227.27708 340.825 227.99583 341.5125Q228.71458 342.2 228.71458 343.21564Q228.71458 343.73126 228.49583 344.23126Q228.29271 344.71564 227.79271 345.27814Q227.30833 345.825 226.18333 346.77814Q225.23021 347.575 224.94896 347.8719Q224.68333 348.15314 224.51146 348.4344L228.73021 348.4344Z" fill-rule="nonzero"/><path fill="#000000" d="M400.81668 347.1844L401.87918 347.04376Q402.05106 347.9344 402.48856 348.34064Q402.92606 348.73126 403.55106 348.73126Q404.30106 348.73126 404.81668 348.21564Q405.3323 347.7 405.3323 346.9344Q405.3323 346.21564 404.84793 345.7469Q404.37918 345.2625 403.6448 345.2625Q403.34793 345.2625 402.8948 345.3875L403.0198 344.45Q403.12918 344.46564 403.19168 344.46564Q403.86356 344.46564 404.3948 344.1219Q404.94168 343.7625 404.94168 343.02814Q404.94168 342.45 404.55106 342.075Q404.16043 341.6844 403.53543 341.6844Q402.92606 341.6844 402.50418 342.075Q402.09793 342.46564 401.98856 343.23126L400.92606 343.04376Q401.11356 341.9969 401.80106 341.41876Q402.48856 340.825 403.50418 340.825Q404.2073 340.825 404.80106 341.1375Q405.3948 341.4344 405.7073 341.95Q406.0198 342.46564 406.0198 343.0594Q406.0198 343.60626 405.72293 344.075Q405.42606 344.52814 404.84793 344.79376Q405.59793 344.96564 406.0198 345.52814Q406.44168 346.075 406.44168 346.91876Q406.44168 348.04376 405.61356 348.825Q404.80106 349.60626 403.55106 349.60626Q402.42606 349.60626 401.67606 348.9344Q400.92606 348.2469 400.81668 347.1844Z" fill-rule="nonzero"/><path fill="#000000" d="M581.825 349.45L581.825 347.3875L578.10626 347.3875L578.10626 346.41876L582.02814 340.85626L582.8875 340.85626L582.8875 346.41876L584.04376 346.41876L584.04376 347.3875L582.8875 347.3875L582.8875 349.45L581.825 349.45ZM581.825 346.41876L581.825 342.5594L579.1375 346.41876L581.825 346.41876Z" fill-rule="nonzero"/><path fill="#757575" d="M19.45625 32.95625L21.2375 32.8Q21.3625 33.8625 21.815624 34.55Q22.284374 35.2375 23.253124 35.675Q24.2375 36.096874 25.471874 36.096874Q26.55 36.096874 27.378124 35.784374Q28.20625 35.45625 28.6125 34.89375Q29.01875 34.33125 29.01875 33.659374Q29.01875 32.9875 28.628124 32.4875Q28.2375 31.9875 27.346874 31.64375Q26.76875 31.409374 24.784374 30.940624Q22.815624 30.471874 22.034374 30.05Q21.003124 29.51875 20.503124 28.721874Q20.003124 27.925 20.003124 26.940624Q20.003124 25.846874 20.6125 24.909374Q21.221874 23.971874 22.409374 23.4875Q23.596874 22.9875 25.034374 22.9875Q26.628124 22.9875 27.846874 23.503124Q29.065624 24.01875 29.70625 25.01875Q30.3625 26.003124 30.409374 27.26875L28.596874 27.409374Q28.45625 26.05 27.6125 25.3625Q26.76875 24.659374 25.1125 24.659374Q23.39375 24.659374 22.596874 25.3Q21.815624 25.925 21.815624 26.8Q21.815624 27.58125 22.378124 28.08125Q22.925 28.58125 25.2375 29.096874Q27.55 29.6125 28.409374 30.003124Q29.659374 30.58125 30.253124 31.471874Q30.846874 32.346874 30.846874 33.503124Q30.846874 34.64375 30.190624 35.659374Q29.534374 36.675 28.3 37.2375Q27.08125 37.8 25.55 37.8Q23.6125 37.8 22.3 37.2375Q20.9875 36.659374 20.2375 35.51875Q19.4875 34.378124 19.45625 32.95625ZM32.8625 41.51875L32.8625 27.175L34.471874 27.175L34.471874 28.51875Q35.034374 27.7375 35.7375 27.346874Q36.45625 26.940624 37.471874 26.940624Q38.8 26.940624 39.815624 27.628124Q40.83125 28.315624 41.346874 29.565624Q41.878124 30.8 41.878124 32.284374Q41.878124 33.878124 41.3 35.159374Q40.7375 36.425 39.64375 37.1125Q38.55 37.784374 37.346874 37.784374Q36.471874 37.784374 35.76875 37.409374Q35.08125 37.034374 34.628124 36.471874L34.628124 41.51875L32.8625 41.51875ZM34.45625 32.425Q34.45625 34.425 35.26875 35.378124Q36.08125 36.33125 37.2375 36.33125Q38.409374 36.33125 39.2375 35.346874Q40.08125 34.3625 40.08125 32.26875Q40.08125 30.3 39.253124 29.315624Q38.440624 28.315624 37.315624 28.315624Q36.190624 28.315624 35.315624 29.378124Q34.45625 30.425 34.45625 32.425ZM50.971874 34.20625L52.784374 34.440624Q52.3625 36.01875 51.190624 36.909374Q50.034374 37.784374 48.221874 37.784374Q45.95625 37.784374 44.6125 36.39375Q43.284374 34.9875 43.284374 32.45625Q43.284374 29.83125 44.628124 28.39375Q45.971874 26.940624 48.128124 26.940624Q50.20625 26.940624 51.51875 28.3625Q52.846874 29.76875 52.846874 32.346874Q52.846874 32.503124 52.83125 32.815624L45.096874 32.815624Q45.190624 34.51875 46.065624 35.425Q46.940624 36.33125 48.2375 36.33125Q49.20625 36.33125 49.878124 35.83125Q50.565624 35.315624 50.971874 34.20625ZM45.190624 31.3625L50.9875 31.3625Q50.878124 30.065624 50.33125 29.409374Q49.4875 28.39375 48.14375 28.39375Q46.940624 28.39375 46.1125 29.20625Q45.284374 30.003124 45.190624 31.3625ZM61.971874 34.20625L63.784374 34.440624Q63.3625 36.01875 62.190624 36.909374Q61.034374 37.784374 59.221874 37.784374Q56.95625 37.784374 55.6125 36.39375Q54.284374 34.9875 54.284374 32.45625Q54.284374 29.83125 55.628124 28.39375Q56.971874 26.940624 59.128124 26.940624Q61.20625 26.940624 62.51875 28.3625Q63.846874 29.76875 63.846874 32.346874Q63.846874 32.503124 63.83125 32.815624L56.096874 32.815624Q56.190624 34.51875 57.065624 35.425Q57.940624 36.33125 59.2375 36.33125Q60.20625 36.33125 60.878124 35.83125Q61.565624 35.315624 61.971874 34.20625ZM56.190624 31.3625L61.9875 31.3625Q61.878124 30.065624 61.33125 29.409374Q60.4875 28.39375 59.14375 28.39375Q57.940624 28.39375 57.1125 29.20625Q56.284374 30.003124 56.190624 31.3625ZM72.59688 37.55L72.59688 36.2375Q71.6125 37.784374 69.69063 37.784374Q68.45625 37.784374 67.40938 37.096874Q66.37813 36.409374 65.8 35.190624Q65.2375 33.971874 65.2375 32.378124Q65.2375 30.815624 65.75313 29.55Q66.26875 28.284374 67.3 27.6125Q68.34688 26.940624 69.6125 26.940624Q70.55 26.940624 71.28438 27.346874Q72.01875 27.7375 72.4875 28.3625L72.4875 23.2375L74.22188 23.2375L74.22188 37.55L72.59688 37.55ZM67.03438 32.378124Q67.03438 34.3625 67.87813 35.346874Q68.72188 36.33125 69.8625 36.33125Q71.01875 36.33125 71.81563 35.39375Q72.62813 34.45625 72.62813 32.51875Q72.62813 30.39375 71.8 29.39375Q70.9875 28.39375 69.78438 28.39375Q68.6125 28.39375 67.81563 29.3625Q67.03438 30.315624 67.03438 32.378124ZM83.65938 37.55L83.65938 36.01875Q82.45625 37.784374 80.37813 37.784374Q79.45625 37.784374 78.65938 37.440624Q77.8625 37.08125 77.47188 36.55Q77.09688 36.01875 76.94063 35.2375Q76.83125 34.721874 76.83125 33.596874L76.83125 27.175L78.58125 27.175L78.58125 32.925Q78.58125 34.3 78.69063 34.784374Q78.8625 35.471874 79.39375 35.878124Q79.94063 36.26875 80.72188 36.26875Q81.51875 36.26875 82.20625 35.8625Q82.90938 35.45625 83.19063 34.76875Q83.4875 34.065624 83.4875 32.7375L83.4875 27.175L85.2375 27.175L85.2375 37.55L83.65938 37.55ZM86.8625 41.51875L86.8625 27.175L88.47188 27.175L88.47188 28.51875Q89.03438 27.7375 89.7375 27.346874Q90.45625 26.940624 91.47188 26.940624Q92.8 26.940624 93.81563 27.628124Q94.83125 28.315624 95.34688 29.565624Q95.87813 30.8 95.87813 32.284374Q95.87813 33.878124 95.3 35.159374Q94.7375 36.425 93.64375 37.1125Q92.55 37.784374 91.34688 37.784374Q90.47188 37.784374 89.76875 37.409374Q89.08125 37.034374 88.62813 36.471874L88.62813 41.51875L86.8625 41.51875ZM88.45625 32.425Q88.45625 34.425 89.26875 35.378124Q90.08125 36.33125 91.2375 36.33125Q92.40938 36.33125 93.2375 35.346874Q94.08125 34.3625 94.08125 32.26875Q94.08125 30.3 93.25313 29.315624Q92.44063 28.315624 91.31563 28.315624Q90.19063 28.315624 89.31563 29.378124Q88.45625 30.425 88.45625 32.425ZM104.01875 37.55L104.01875 23.2375L105.90938 23.2375L105.90938 35.8625L112.95625 35.8625L112.95625 37.55L104.01875 37.55ZM121.64375 36.26875Q120.65938 37.096874 119.75313 37.440624Q118.84688 37.784374 117.81563 37.784374Q116.1125 37.784374 115.19063 36.95625Q114.26875 36.1125 114.26875 34.815624Q114.26875 34.05 114.6125 33.425Q114.97188 32.8 115.53438 32.425Q116.09688 32.034374 116.8 31.83125Q117.31563 31.70625 118.3625 31.565624Q120.4875 31.315624 121.4875 30.971874Q121.50313 30.6125 121.50313 30.503124Q121.50313 29.440624 121.00313 28.9875Q120.33125 28.39375 119.00313 28.39375Q117.75313 28.39375 117.15938 28.83125Q116.58125 29.26875 116.3 30.378124L114.58125 30.14375Q114.81563 29.034374 115.34688 28.3625Q115.87813 27.675 116.89375 27.315624Q117.90938 26.940624 119.25313 26.940624Q120.58125 26.940624 121.40938 27.253124Q122.2375 27.565624 122.62813 28.05Q123.01875 28.51875 123.175 29.2375Q123.26875 29.690624 123.26875 30.8625L123.26875 33.20625Q123.26875 35.659374 123.37813 36.315624Q123.4875 36.95625 123.83125 37.55L121.9875 37.55Q121.72188 37.003124 121.64375 36.26875ZM121.4875 32.346874Q120.53438 32.7375 118.6125 33.003124Q117.53438 33.159374 117.08125 33.3625Q116.64375 33.55 116.39375 33.925Q116.14375 34.3 116.14375 34.76875Q116.14375 35.471874 116.675 35.940624Q117.20625 36.409374 118.2375 36.409374Q119.25313 36.409374 120.03438 35.971874Q120.83125 35.51875 121.20625 34.753124Q121.4875 34.14375 121.4875 32.9875L121.4875 32.346874ZM125.8625 41.51875L125.8625 27.175L127.47188 27.175L127.47188 28.51875Q128.03438 27.7375 128.7375 27.346874Q129.45625 26.940624 130.47188 26.940624Q131.8 26.940624 132.81563 27.628124Q133.83125 28.315624 134.34688 29.565624Q134.87813 30.8 134.87813 32.284374Q134.87813 33.878124 134.3 35.159374Q133.7375 36.425 132.64375 37.1125Q131.55 37.784374 130.34688 37.784374Q129.47188 37.784374 128.76875 37.409374Q128.08125 37.034374 127.62813 36.471874L127.62813 41.51875L125.8625 41.51875ZM127.45625 32.425Q127.45625 34.425 128.26875 35.378124Q129.08125 36.33125 130.2375 36.33125Q131.40938 36.33125 132.2375 35.346874Q133.08125 34.3625 133.08125 32.26875Q133.08125 30.3 132.25313 29.315624Q131.44063 28.315624 130.31563 28.315624Q129.19063 28.315624 128.31563 29.378124Q127.45625 30.425 127.45625 32.425ZM136.83125 37.55L136.83125 23.2375L138.58125 23.2375L138.58125 37.55L136.83125 37.55ZM147.64375 36.26875Q146.65938 37.096874 145.75313 37.440624Q144.84688 37.784374 143.81563 37.784374Q142.1125 37.784374 141.19063 36.95625Q140.26875 36.1125 140.26875 34.815624Q140.26875 34.05 140.6125 33.425Q140.97188 32.8 141.53438 32.425Q142.09688 32.034374 142.8 31.83125Q143.31563 31.70625 144.3625 31.565624Q146.4875 31.315624 147.4875 30.971874Q147.50313 30.6125 147.50313 30.503124Q147.50313 29.440624 147.00313 28.9875Q146.33125 28.39375 145.00313 28.39375Q143.75313 28.39375 143.15938 28.83125Q142.58125 29.26875 142.3 30.378124L140.58125 30.14375Q140.81563 29.034374 141.34688 28.3625Q141.87813 27.675 142.89375 27.315624Q143.90938 26.940624 145.25313 26.940624Q146.58125 26.940624 147.40938 27.253124Q148.2375 27.565624 148.62813 28.05Q149.01875 28.51875 149.175 29.2375Q149.26875 29.690624 149.26875 30.8625L149.26875 33.20625Q149.26875 35.659374 149.37813 36.315624Q149.4875 36.95625 149.83125 37.55L147.9875 37.55Q147.72188 37.003124 147.64375 36.26875ZM147.4875 32.346874Q146.53438 32.7375 144.6125 33.003124Q143.53438 33.159374 143.08125 33.3625Q142.64375 33.55 142.39375 33.925Q142.14375 34.3 142.14375 34.76875Q142.14375 35.471874 142.675 35.940624Q143.20625 36.409374 144.2375 36.409374Q145.25313 36.409374 146.03438 35.971874Q146.83125 35.51875 147.20625 34.753124Q147.4875 34.14375 147.4875 32.9875L147.4875 32.346874ZM158.64375 33.753124L160.3625 33.971874Q160.08125 35.76875 158.90938 36.784374Q157.75313 37.784374 156.05 37.784374Q153.925 37.784374 152.62813 36.39375Q151.33125 35.003124 151.33125 32.409374Q151.33125 30.721874 151.87813 29.471874Q152.44063 28.20625 153.58125 27.58125Q154.72188 26.940624 156.06563 26.940624Q157.75313 26.940624 158.81563 27.8Q159.89375 28.659374 160.20625 30.221874L158.4875 30.4875Q158.25313 29.440624 157.62813 28.925Q157.00313 28.39375 156.12813 28.39375Q154.8 28.39375 153.97188 29.346874Q153.14375 30.3 153.14375 32.346874Q153.14375 34.440624 153.94063 35.39375Q154.7375 36.33125 156.03438 36.33125Q157.06563 36.33125 157.75313 35.70625Q158.45625 35.065624 158.64375 33.753124ZM168.97188 34.20625L170.78438 34.440624Q170.3625 36.01875 169.19063 36.909374Q168.03438 37.784374 166.22188 37.784374Q163.95625 37.784374 162.6125 36.39375Q161.28438 34.9875 161.28438 32.45625Q161.28438 29.83125 162.62813 28.39375Q163.97188 26.940624 166.12813 26.940624Q168.20625 26.940624 169.51875 28.3625Q170.84688 29.76875 170.84688 32.346874Q170.84688 32.503124 170.83125 32.815624L163.09688 32.815624Q163.19063 34.51875 164.06563 35.425Q164.94063 36.33125 166.2375 36.33125Q167.20625 36.33125 167.87813 35.83125Q168.56563 35.315624 168.97188 34.20625ZM163.19063 31.3625L168.9875 31.3625Q168.87813 30.065624 168.33125 29.409374Q167.4875 28.39375 166.14375 28.39375Q164.94063 28.39375 164.1125 29.20625Q163.28438 30.003124 163.19063 31.3625Z" fill-rule="nonzero"/></svg>