<svg version="1.1" viewBox="0.0 0.0 600.0 371.0" fill="none" stroke="none" stroke-linecap="square" stroke-miterlimit="10" width="600" height="371" xmlns:xlink="http://www.w3.org/1999/xlink" xmlns="http://www.w3.org/2000/svg"><path fill="#ffffff" d="M0 0L600.0 0L600.0 371.0L0 371.0L0 0Z" fill-rule="nonzero"/><path stroke="#cccccc" stroke-width="1.0" stroke-linecap="butt" d="M169.5 88.5L169.5 300.5" fill-rule="nonzero"/><path stroke="#cccccc" stroke-width="1.0" stroke-linecap="butt" d="M306.5 88.5L306.5 300.5" fill-rule="nonzero"/><path stroke="#cccccc" stroke-width="1.0" stroke-linecap="butt" d="M444.5 88.5L444.5 300.5" fill-rule="nonzero"/><path stroke="#cccccc" stroke-width="1.0" stroke-linecap="butt" d="M581.5 88.5L581.5 300.5" fill-rule="nonzero"/><path stroke="#333333" stroke-width="1.0" stroke-linecap="butt" d="M45.5 300.5L581.5 300.5" fill-rule="nonzero"/><path stroke="#cccccc" stroke-width="1.0" stroke-linecap="butt" d="M45.5 247.5L581.5 247.5" fill-rule="nonzero"/><path stroke="#cccccc" stroke-width="1.0" stroke-linecap="butt" d="M45.5 194.5L581.5 194.5" fill-rule="nonzero"/><path stroke="#cccccc" stroke-width="1.0" stroke-linecap="butt" d="M45.5 141.5L581.5 141.5" fill-rule="nonzero"/><path stroke="#cccccc" stroke-width="1.0" stroke-linecap="butt" d="M45.5 88.5L581.5 88.5" fill-rule="nonzero"/><clipPath id="id_0"><path d="M45.55 88.28333L581.45 88.28333L581.45 300.45L45.55 300.45L45.55 88.28333Z" clip-rule="nonzero"/></clipPath><path stroke="#4285f4" stroke-width="2.0" stroke-linecap="butt" clip-path="url(#id_0)" d="M45.55 295.14133L59.291027 289.84326L100.5141 275.60663L169.21924 254.52557L306.6295 208.92465L581.45 133.7012" fill-rule="nonzero"/><path stroke="#ea4335" stroke-width="2.0" stroke-linecap="butt" clip-path="url(#id_0)" d="M45.55 295.14215L59.291027 289.84274L100.5141 276.18884L169.21924 254.54631L306.6295 209.07387L581.45 123.33203" fill-rule="nonzero"/><path stroke="#fbbc04" stroke-width="2.0" stroke-linecap="butt" clip-path="url(#id_0)" d="M45.55 295.14584L59.291027 289.84167L100.5141 273.92917L169.21924 247.40834L306.6295 194.36667L581.45 88.28333" fill-rule="nonzero"/><path fill="#000000" fill-opacity="0.0" clip-path="url(#id_0)" d="M48.55 295.14133C48.55 296.7982 47.206856 298.14133 45.55 298.14133C43.893147 298.14133 42.55 296.7982 42.55 295.14133C42.55 293.48447 43.893147 292.14133 45.55 292.14133C47.206856 292.14133 48.55 293.48447 48.55 295.14133Z" fill-rule="nonzero"/><path fill="#000000" fill-opacity="0.0" clip-path="url(#id_0)" d="M62.291027 289.84326C62.291027 291.50012 60.94788 292.84326 59.291027 292.84326C57.63417 292.84326 56.291027 291.50012 56.291027 289.84326C56.291027 288.1864 57.63417 286.84326 59.291027 286.84326C60.94788 286.84326 62.291027 288.1864 62.291027 289.84326Z" fill-rule="nonzero"/><path fill="#000000" fill-opacity="0.0" clip-path="url(#id_0)" d="M103.5141 275.60663C103.5141 277.26346 102.17096 278.60663 100.5141 278.60663C98.85725 278.60663 97.5141 277.26346 97.5141 275.60663C97.5141 273.94977 98.85725 272.60663 100.5141 272.60663C102.17096 272.60663 103.5141 273.94977 103.5141 275.60663Z" fill-rule="nonzero"/><path fill="#000000" fill-opacity="0.0" clip-path="url(#id_0)" d="M172.21924 254.52557C172.21924 256.18243 170.87608 257.52557 169.21924 257.52557C167.56238 257.52557 166.21924 256.18243 166.21924 254.52557C166.21924 252.86871 167.56238 251.52557 169.21924 251.52557C170.87608 251.52557 172.21924 252.86871 172.21924 254.52557Z" fill-rule="nonzero"/><path fill="#000000" fill-opacity="0.0" clip-path="url(#id_0)" d="M309.6295 208.92465C309.6295 210.5815 308.28635 211.92465 306.6295 211.92465C304.97263 211.92465 303.6295 210.5815 303.6295 208.92465C303.6295 207.26779 304.97263 205.92465 306.6295 205.92465C308.28635 205.92465 309.6295 207.26779 309.6295 208.92465Z" fill-rule="nonzero"/><path fill="#000000" fill-opacity="0.0" clip-path="url(#id_0)" d="M584.45 133.7012C584.45 135.35805 583.1069 136.7012 581.45 136.7012C579.79315 136.7012 578.45 135.35805 578.45 133.7012C578.45 132.04434 579.79315 130.7012 581.45 130.7012C583.1069 130.7012 584.45 132.04434 584.45 133.7012Z" fill-rule="nonzero"/><path fill="#000000" fill-opacity="0.0" clip-path="url(#id_0)" d="M48.55 295.14215C48.55 296.799 47.206856 298.14215 45.55 298.14215C43.893147 298.14215 42.55 296.799 42.55 295.14215C42.55 293.4853 43.893147 292.14215 45.55 292.14215C47.206856 292.14215 48.55 293.4853 48.55 295.14215Z" fill-rule="nonzero"/><path fill="#000000" fill-opacity="0.0" clip-path="url(#id_0)" d="M62.291027 289.84274C62.291027 291.4996 60.94788 292.84274 59.291027 292.84274C57.63417 292.84274 56.291027 291.4996 56.291027 289.84274C56.291027 288.18588 57.63417 286.84274 59.291027 286.84274C60.94788 286.84274 62.291027 288.18588 62.291027 289.84274Z" fill-rule="nonzero"/><path fill="#000000" fill-opacity="0.0" clip-path="url(#id_0)" d="M103.5141 276.18884C103.5141 277.8457 102.17096 279.18884 100.5141 279.18884C98.85725 279.18884 97.5141 277.8457 97.5141 276.18884C97.5141 274.53198 98.85725 273.18884 100.5141 273.18884C102.17096 273.18884 103.5141 274.53198 103.5141 276.18884Z" fill-rule="nonzero"/><path fill="#000000" fill-opacity="0.0" clip-path="url(#id_0)" d="M172.21924 254.54631C172.21924 256.20316 170.87608 257.5463 169.21924 257.5463C167.56238 257.5463 166.21924 256.20316 166.21924 254.54631C166.21924 252.88945 167.56238 251.54631 169.21924 251.54631C170.87608 251.54631 172.21924 252.88945 172.21924 254.54631Z" fill-rule="nonzero"/><path fill="#000000" fill-opacity="0.0" clip-path="url(#id_0)" d="M309.6295 209.07387C309.6295 210.73073 308.28635 212.07387 306.6295 212.07387C304.97263 212.07387 303.6295 210.73073 303.6295 209.07387C303.6295 207.417 304.97263 206.07387 306.6295 206.07387C308.28635 206.07387 309.6295 207.417 309.6295 209.07387Z" fill-rule="nonzero"/><path fill="#000000" fill-opacity="0.0" clip-path="url(#id_0)" d="M584.45 123.33203C584.45 124.988884 583.1069 126.33203 581.45 126.33203C579.79315 126.33203 578.45 124.988884 578.45 123.33203C578.45 121.67517 579.79315 120.33203 581.45 120.33203C583.1069 120.33203 584.45 121.67517 584.45 123.33203Z" fill-rule="nonzero"/><path fill="#000000" fill-opacity="0.0" clip-path="url(#id_0)" d="M48.55 295.14584C48.55 296.80267 47.206856 298.14584 45.55 298.14584C43.893147 298.14584 42.55 296.80267 42.55 295.14584C42.55 293.48898 43.893147 292.14584 45.55 292.14584C47.206856 292.14584 48.55 293.48898 48.55 295.14584Z" fill-rule="nonzero"/><path fill="#000000" fill-opacity="0.0" clip-path="url(#id_0)" d="M62.291027 289.84167C62.291027 291.49854 60.94788 292.84167 59.291027 292.84167C57.63417 292.84167 56.291027 291.49854 56.291027 289.84167C56.291027 288.1848 57.63417 286.84167 59.291027 286.84167C60.94788 286.84167 62.291027 288.1848 62.291027 289.84167Z" fill-rule="nonzero"/><path fill="#000000" fill-opacity="0.0" clip-path="url(#id_0)" d="M103.5141 273.92917C103.5141 275.58603 102.17096 276.92917 100.5141 276.92917C98.85725 276.92917 97.5141 275.58603 97.5141 273.92917C97.5141 272.2723 98.85725 270.92917 100.5141 270.92917C102.17096 270.92917 103.5141 272.2723 103.5141 273.92917Z" fill-rule="nonzero"/><path fill="#000000" fill-opacity="0.0" clip-path="url(#id_0)" d="M172.21924 247.40834C172.21924 249.06519 170.87608 250.40834 169.21924 250.40834C167.56238 250.40834 166.21924 249.06519 166.21924 247.40834C166.21924 245.75148 167.56238 244.40834 169.21924 244.40834C170.87608 244.40834 172.21924 245.75148 172.21924 247.40834Z" fill-rule="nonzero"/><path fill="#000000" fill-opacity="0.0" clip-path="url(#id_0)" d="M309.6295 194.36667C309.6295 196.02351 308.28635 197.36667 306.6295 197.36667C304.97263 197.36667 303.6295 196.02351 303.6295 194.36667C303.6295 192.70981 304.97263 191.36667 306.6295 191.36667C308.28635 191.36667 309.6295 192.70981 309.6295 194.36667Z" fill-rule="nonzero"/><path fill="#000000" fill-opacity="0.0" clip-path="url(#id_0)" d="M584.45 88.28333C584.45 89.940186 583.1069 91.28333 581.45 91.28333C579.79315 91.28333 578.45 89.940186 578.45 88.28333C578.45 86.62648 579.79315 85.28333 581.45 85.28333C583.1069 85.28333 584.45 86.62648 584.45 88.28333Z" fill-rule="nonzero"/><path fill="#000000" d="M282.79688 351.84064L282.79688 343.23126L283.75 343.23126L283.75 344.02814Q284.09375 343.5594 284.51562 343.325Q284.95312 343.09064 285.5625 343.09064Q286.35938 343.09064 286.96875 343.4969Q287.57812 343.90314 287.875 344.65314Q288.1875 345.40314 288.1875 346.29376Q288.1875 347.2469 287.84375 348.0125Q287.51562 348.77814 286.85938 349.1844Q286.20312 349.59064 285.48438 349.59064Q284.95312 349.59064 284.53125 349.3719Q284.10938 349.1375 283.84375 348.8094L283.84375 351.84064L282.79688 351.84064ZM283.75 346.3719Q283.75 347.575 284.23438 348.15314Q284.71875 348.71564 285.40625 348.71564Q286.10938 348.71564 286.60938 348.1219Q287.10938 347.52814 287.10938 346.27814Q287.10938 345.09064 286.625 344.5125Q286.14062 343.91876 285.45312 343.91876Q284.78125 343.91876 284.26562 344.54376Q283.75 345.16876 283.75 346.3719ZM289.78125 349.45L289.78125 343.23126L290.73438 343.23126L290.73438 344.16876Q291.09375 343.5125 291.39062 343.3094Q291.70312 343.09064 292.07812 343.09064Q292.60938 343.09064 293.15625 343.41876L292.79688 344.40314Q292.40625 344.16876 292.03125 344.16876Q291.67188 344.16876 291.39062 344.3875Q291.125 344.59064 291.01562 344.96564Q290.82812 345.52814 290.82812 346.1844L290.82812 349.45L289.78125 349.45ZM293.40625 346.34064Q293.40625 344.60626 294.35938 343.77814Q295.15625 343.09064 296.3125 343.09064Q297.59375 343.09064 298.40625 343.9344Q299.23438 344.7625 299.23438 346.2469Q299.23438 347.45 298.875 348.1375Q298.51562 348.825 297.8125 349.21564Q297.125 349.59064 296.3125 349.59064Q295.01562 349.59064 294.20312 348.7625Q293.40625 347.91876 293.40625 346.34064ZM294.48438 346.34064Q294.48438 347.52814 295.0 348.1219Q295.53125 348.71564 296.3125 348.71564Q297.10938 348.71564 297.625 348.1219Q298.14062 347.52814 298.14062 346.3094Q298.14062 345.15314 297.60938 344.5594Q297.09375 343.96564 296.3125 343.96564Q295.53125 343.96564 295.0 344.5594Q294.48438 345.1375 294.48438 346.34064ZM304.85938 347.16876L305.89062 347.3094Q305.71875 348.3719 305.01562 348.98126Q304.3125 349.59064 303.29688 349.59064Q302.01562 349.59064 301.23438 348.7625Q300.46875 347.91876 300.46875 346.35626Q300.46875 345.35626 300.79688 344.60626Q301.14062 343.84064 301.8125 343.46564Q302.5 343.09064 303.3125 343.09064Q304.3125 343.09064 304.95312 343.60626Q305.60938 344.10626 305.79688 345.0594L304.76562 345.21564Q304.625 344.59064 304.25 344.27814Q303.875 343.95 303.34375 343.95Q302.54688 343.95 302.04688 344.52814Q301.54688 345.09064 301.54688 346.325Q301.54688 347.59064 302.03125 348.15314Q302.51562 348.71564 303.28125 348.71564Q303.90625 348.71564 304.3125 348.34064Q304.73438 347.96564 304.85938 347.16876ZM311.04688 347.45L312.14062 347.575Q311.89062 348.52814 311.1875 349.0594Q310.48438 349.59064 309.40625 349.59064Q308.04688 349.59064 307.23438 348.7469Q306.4375 347.90314 306.4375 346.3875Q306.4375 344.825 307.25 343.96564Q308.0625 343.09064 309.34375 343.09064Q310.59375 343.09064 311.375 343.9344Q312.17188 344.77814 312.17188 346.325Q312.17188 346.41876 312.17188 346.60626L307.53125 346.60626Q307.59375 347.6375 308.10938 348.1844Q308.625 348.71564 309.40625 348.71564Q309.98438 348.71564 310.39062 348.41876Q310.8125 348.10626 311.04688 347.45ZM307.59375 345.7469L311.0625 345.7469Q311.0 344.95 310.67188 344.5594Q310.15625 343.95 309.35938 343.95Q308.625 343.95 308.125 344.4344Q307.64062 344.91876 307.59375 345.7469ZM313.375 347.59064L314.40625 347.4344Q314.5 348.0594 314.89062 348.3875Q315.29688 348.71564 316.03125 348.71564Q316.75 348.71564 317.09375 348.4344Q317.45312 348.1375 317.45312 347.73126Q317.45312 347.3719 317.14062 347.16876Q316.92188 347.02814 316.0625 346.8094Q314.90625 346.5125 314.45312 346.3094Q314.01562 346.09064 313.78125 345.71564Q313.54688 345.34064 313.54688 344.8719Q313.54688 344.46564 313.73438 344.10626Q313.92188 343.7469 314.25 343.5125Q314.5 343.34064 314.92188 343.21564Q315.34375 343.09064 315.84375 343.09064Q316.5625 343.09064 317.10938 343.3094Q317.67188 343.5125 317.9375 343.8719Q318.20312 344.23126 318.29688 344.825L317.26562 344.96564Q317.20312 344.4969 316.85938 344.23126Q316.53125 343.95 315.90625 343.95Q315.1875 343.95 314.875 344.2Q314.5625 344.4344 314.5625 344.7625Q314.5625 344.96564 314.6875 345.1219Q314.82812 345.29376 315.09375 345.40314Q315.25 345.46564 316.03125 345.66876Q317.15625 345.98126 317.59375 346.16876Q318.03125 346.35626 318.28125 346.71564Q318.53125 347.075 318.53125 347.6219Q318.53125 348.15314 318.21875 348.6219Q317.92188 349.075 317.34375 349.34064Q316.76562 349.59064 316.03125 349.59064Q314.8125 349.59064 314.17188 349.09064Q313.54688 348.575 313.375 347.59064ZM320.375 347.59064L321.40625 347.4344Q321.5 348.0594 321.89062 348.3875Q322.29688 348.71564 323.03125 348.71564Q323.75 348.71564 324.09375 348.4344Q324.45312 348.1375 324.45312 347.73126Q324.45312 347.3719 324.14062 347.16876Q323.92188 347.02814 323.0625 346.8094Q321.90625 346.5125 321.45312 346.3094Q321.01562 346.09064 320.78125 345.71564Q320.54688 345.34064 320.54688 344.8719Q320.54688 344.46564 320.73438 344.10626Q320.92188 343.7469 321.25 343.5125Q321.5 343.34064 321.92188 343.21564Q322.34375 343.09064 322.84375 343.09064Q323.5625 343.09064 324.10938 343.3094Q324.67188 343.5125 324.9375 343.8719Q325.20312 344.23126 325.29688 344.825L324.26562 344.96564Q324.20312 344.4969 323.85938 344.23126Q323.53125 343.95 322.90625 343.95Q322.1875 343.95 321.875 344.2Q321.5625 344.4344 321.5625 344.7625Q321.5625 344.96564 321.6875 345.1219Q321.82812 345.29376 322.09375 345.40314Q322.25 345.46564 323.03125 345.66876Q324.15625 345.98126 324.59375 346.16876Q325.03125 346.35626 325.28125 346.71564Q325.53125 347.075 325.53125 347.6219Q325.53125 348.15314 325.21875 348.6219Q324.92188 349.075 324.34375 349.34064Q323.76562 349.59064 323.03125 349.59064Q321.8125 349.59064 321.17188 349.09064Q320.54688 348.575 320.375 347.59064ZM327.40625 346.34064Q327.40625 344.60626 328.35938 343.77814Q329.15625 343.09064 330.3125 343.09064Q331.59375 343.09064 332.40625 343.9344Q333.23438 344.7625 333.23438 346.2469Q333.23438 347.45 332.875 348.1375Q332.51562 348.825 331.8125 349.21564Q331.125 349.59064 330.3125 349.59064Q329.01562 349.59064 328.20312 348.7625Q327.40625 347.91876 327.40625 346.34064ZM328.48438 346.34064Q328.48438 347.52814 329.0 348.1219Q329.53125 348.71564 330.3125 348.71564Q331.10938 348.71564 331.625 348.1219Q332.14062 347.52814 332.14062 346.3094Q332.14062 345.15314 331.60938 344.5594Q331.09375 343.96564 330.3125 343.96564Q329.53125 343.96564 329.0 344.5594Q328.48438 345.1375 328.48438 346.34064ZM334.78125 349.45L334.78125 343.23126L335.73438 343.23126L335.73438 344.16876Q336.09375 343.5125 336.39062 343.3094Q336.70312 343.09064 337.07812 343.09064Q337.60938 343.09064 338.15625 343.41876L337.79688 344.40314Q337.40625 344.16876 337.03125 344.16876Q336.67188 344.16876 336.39062 344.3875Q336.125 344.59064 336.01562 344.96564Q335.82812 345.52814 335.82812 346.1844L335.82812 349.45L334.78125 349.45ZM338.375 347.59064L339.40625 347.4344Q339.5 348.0594 339.89062 348.3875Q340.29688 348.71564 341.03125 348.71564Q341.75 348.71564 342.09375 348.4344Q342.45312 348.1375 342.45312 347.73126Q342.45312 347.3719 342.14062 347.16876Q341.92188 347.02814 341.0625 346.8094Q339.90625 346.5125 339.45312 346.3094Q339.01562 346.09064 338.78125 345.71564Q338.54688 345.34064 338.54688 344.8719Q338.54688 344.46564 338.73438 344.10626Q338.92188 343.7469 339.25 343.5125Q339.5 343.34064 339.92188 343.21564Q340.34375 343.09064 340.84375 343.09064Q341.5625 343.09064 342.10938 343.3094Q342.67188 343.5125 342.9375 343.8719Q343.20312 344.23126 343.29688 344.825L342.26562 344.96564Q342.20312 344.4969 341.85938 344.23126Q341.53125 343.95 340.90625 343.95Q340.1875 343.95 339.875 344.2Q339.5625 344.4344 339.5625 344.7625Q339.5625 344.96564 339.6875 345.1219Q339.82812 345.29376 340.09375 345.40314Q340.25 345.46564 341.03125 345.66876Q342.15625 345.98126 342.59375 346.16876Q343.03125 346.35626 343.28125 346.71564Q343.53125 347.075 343.53125 347.6219Q343.53125 348.15314 343.21875 348.6219Q342.92188 349.075 342.34375 349.34064Q341.76562 349.59064 341.03125 349.59064Q339.8125 349.59064 339.17188 349.09064Q338.54688 348.575 338.375 347.59064Z" fill-rule="nonzero"/><path fill="#000000" d="M33.05 300.21564Q33.05 298.6844 33.3625 297.7625Q33.675 296.825 34.284374 296.325Q34.909374 295.825 35.846874 295.825Q36.534374 295.825 37.05 296.10626Q37.58125 296.3875 37.925 296.91876Q38.26875 297.4344 38.45625 298.1844Q38.64375 298.9344 38.64375 300.21564Q38.64375 301.73126 38.33125 302.65314Q38.034374 303.575 37.409374 304.09064Q36.8 304.59064 35.846874 304.59064Q34.6125 304.59064 33.89375 303.7Q33.05 302.6375 33.05 300.21564ZM34.128124 300.21564Q34.128124 302.325 34.628124 303.02814Q35.128124 303.73126 35.846874 303.73126Q36.58125 303.73126 37.065624 303.02814Q37.565624 302.325 37.565624 300.21564Q37.565624 298.09064 37.065624 297.40314Q36.58125 296.7 35.83125 296.7Q35.1125 296.7 34.675 297.3094Q34.128124 298.09064 34.128124 300.21564Z" fill-rule="nonzero"/><path fill="#000000" d="M30.01875 251.40834L28.971874 251.40834L28.971874 244.68959Q28.58125 245.04897 27.95625 245.42397Q27.346874 245.78334 26.8625 245.95522L26.8625 244.93959Q27.7375 244.51772 28.39375 243.93959Q29.065624 243.34584 29.346874 242.78334L30.01875 242.78334L30.01875 251.40834ZM33.05 247.17397Q33.05 245.64272 33.3625 244.72084Q33.675 243.78334 34.284374 243.28334Q34.909374 242.78334 35.846874 242.78334Q36.534374 242.78334 37.05 243.06459Q37.58125 243.34584 37.925 243.87709Q38.26875 244.39272 38.45625 245.14272Q38.64375 245.89272 38.64375 247.17397Q38.64375 248.68959 38.33125 249.61147Q38.034374 250.53334 37.409374 251.04897Q36.8 251.54897 35.846874 251.54897Q34.6125 251.54897 33.89375 250.65834Q33.05 249.59584 33.05 247.17397ZM34.128124 247.17397Q34.128124 249.28334 34.628124 249.98647Q35.128124 250.68959 35.846874 250.68959Q36.58125 250.68959 37.065624 249.98647Q37.565624 249.28334 37.565624 247.17397Q37.565624 245.04897 37.065624 244.36147Q36.58125 243.65834 35.83125 243.65834Q35.1125 243.65834 34.675 244.26772Q34.128124 245.04897 34.128124 247.17397Z" fill-rule="nonzero"/><path fill="#000000" d="M31.596874 197.35104L31.596874 198.36667L25.909374 198.36667Q25.909374 197.99167 26.034374 197.6323Q26.253124 197.05417 26.721874 196.49167Q27.20625 195.92917 28.1125 195.1948Q29.51875 194.03854 30.003124 193.36667Q30.503124 192.6948 30.503124 192.10104Q30.503124 191.47604 30.05 191.05417Q29.596874 190.61667 28.878124 190.61667Q28.1125 190.61667 27.659374 191.0698Q27.20625 191.52292 27.190624 192.33542L26.1125 192.22604Q26.221874 191.0073 26.940624 190.3823Q27.675 189.74167 28.909374 189.74167Q30.14375 189.74167 30.8625 190.42917Q31.58125 191.11667 31.58125 192.1323Q31.58125 192.64792 31.3625 193.14792Q31.159374 193.6323 30.659374 194.1948Q30.175 194.74167 29.05 195.6948Q28.096874 196.49167 27.815624 196.78854Q27.55 197.0698 27.378124 197.35104L31.596874 197.35104ZM33.05 194.1323Q33.05 192.60104 33.3625 191.67917Q33.675 190.74167 34.284374 190.24167Q34.909374 189.74167 35.846874 189.74167Q36.534374 189.74167 37.05 190.02292Q37.58125 190.30417 37.925 190.83542Q38.26875 191.35104 38.45625 192.10104Q38.64375 192.85104 38.64375 194.1323Q38.64375 195.64792 38.33125 196.5698Q38.034374 197.49167 37.409374 198.0073Q36.8 198.5073 35.846874 198.5073Q34.6125 198.5073 33.89375 197.61667Q33.05 196.55417 33.05 194.1323ZM34.128124 194.1323Q34.128124 196.24167 34.628124 196.9448Q35.128124 197.64792 35.846874 197.64792Q36.58125 197.64792 37.065624 196.9448Q37.565624 196.24167 37.565624 194.1323Q37.565624 192.0073 37.065624 191.3198Q36.58125 190.61667 35.83125 190.61667Q35.1125 190.61667 34.675 191.22604Q34.128124 192.0073 34.128124 194.1323Z" fill-rule="nonzero"/><path fill="#000000" d="M26.05 143.05937L27.1125 142.91875Q27.284374 143.80937 27.721874 144.21562Q28.159374 144.60625 28.784374 144.60625Q29.534374 144.60625 30.05 144.09062Q30.565624 143.575 30.565624 142.80937Q30.565624 142.09062 30.08125 141.62187Q29.6125 141.1375 28.878124 141.1375Q28.58125 141.1375 28.128124 141.2625L28.253124 140.325Q28.3625 140.34062 28.425 140.34062Q29.096874 140.34062 29.628124 139.99687Q30.175 139.6375 30.175 138.90312Q30.175 138.325 29.784374 137.95Q29.39375 137.55937 28.76875 137.55937Q28.159374 137.55937 27.7375 137.95Q27.33125 138.34062 27.221874 139.10625L26.159374 138.91875Q26.346874 137.87187 27.034374 137.29375Q27.721874 136.7 28.7375 136.7Q29.440624 136.7 30.034374 137.0125Q30.628124 137.30937 30.940624 137.825Q31.253124 138.34062 31.253124 138.93437Q31.253124 139.48125 30.95625 139.95Q30.659374 140.40312 30.08125 140.66875Q30.83125 140.84062 31.253124 141.40312Q31.675 141.95 31.675 142.79375Q31.675 143.91875 30.846874 144.7Q30.034374 145.48125 28.784374 145.48125Q27.659374 145.48125 26.909374 144.80937Q26.159374 144.12187 26.05 143.05937ZM33.05 141.09062Q33.05 139.55937 33.3625 138.6375Q33.675 137.7 34.284374 137.2Q34.909374 136.7 35.846874 136.7Q36.534374 136.7 37.05 136.98125Q37.58125 137.2625 37.925 137.79375Q38.26875 138.30937 38.45625 139.05937Q38.64375 139.80937 38.64375 141.09062Q38.64375 142.60625 38.33125 143.52812Q38.034374 144.45 37.409374 144.96562Q36.8 145.46562 35.846874 145.46562Q34.6125 145.46562 33.89375 144.575Q33.05 143.5125 33.05 141.09062ZM34.128124 141.09062Q34.128124 143.2 34.628124 143.90312Q35.128124 144.60625 35.846874 144.60625Q36.58125 144.60625 37.065624 143.90312Q37.565624 143.2 37.565624 141.09062Q37.565624 138.96562 37.065624 138.27812Q36.58125 137.575 35.83125 137.575Q35.1125 137.575 34.675 138.18437Q34.128124 138.96562 34.128124 141.09062Z" fill-rule="nonzero"/><path fill="#000000" d="M29.425 92.28333L29.425 90.22083L25.70625 90.22083L25.70625 89.25208L29.628124 83.68958L30.4875 83.68958L30.4875 89.25208L31.64375 89.25208L31.64375 90.22083L30.4875 90.22083L30.4875 92.28333L29.425 92.28333ZM29.425 89.25208L29.425 85.39271L26.7375 89.25208L29.425 89.25208ZM33.05 88.04896Q33.05 86.51771 33.3625 85.59583Q33.675 84.65833 34.284374 84.15833Q34.909374 83.65833 35.846874 83.65833Q36.534374 83.65833 37.05 83.93958Q37.58125 84.22083 37.925 84.75208Q38.26875 85.26771 38.45625 86.01771Q38.64375 86.76771 38.64375 88.04896Q38.64375 89.56458 38.33125 90.48646Q38.034374 91.40833 37.409374 91.92396Q36.8 92.42396 35.846874 92.42396Q34.6125 92.42396 33.89375 91.53333Q33.05 90.47083 33.05 88.04896ZM34.128124 88.04896Q34.128124 90.15833 34.628124 90.86146Q35.128124 91.56458 35.846874 91.56458Q36.58125 91.56458 37.065624 90.86146Q37.565624 90.15833 37.565624 88.04896Q37.565624 85.92396 37.065624 85.23646Q36.58125 84.53333 35.83125 84.53333Q35.1125 84.53333 34.675 85.14271Q34.128124 85.92396 34.128124 88.04896Z" fill-rule="nonzero"/><path fill="#000000" d="M166.68799 317.45L165.64111 317.45L165.64111 310.73126Q165.25049 311.09064 164.62549 311.46564Q164.01611 311.825 163.53174 311.9969L163.53174 310.98126Q164.40674 310.5594 165.06299 309.98126Q165.73486 309.3875 166.01611 308.825L166.68799 308.825L166.68799 317.45ZM169.71924 313.21564Q169.71924 311.6844 170.03174 310.7625Q170.34424 309.825 170.95361 309.325Q171.57861 308.825 172.51611 308.825Q173.20361 308.825 173.71924 309.10626Q174.25049 309.3875 174.59424 309.91876Q174.93799 310.4344 175.12549 311.1844Q175.31299 311.9344 175.31299 313.21564Q175.31299 314.73126 175.00049 315.65314Q174.70361 316.575 174.07861 317.09064Q173.46924 317.59064 172.51611 317.59064Q171.28174 317.59064 170.56299 316.7Q169.71924 315.6375 169.71924 313.21564ZM170.79736 313.21564Q170.79736 315.325 171.29736 316.02814Q171.79736 316.73126 172.51611 316.73126Q173.25049 316.73126 173.73486 316.02814Q174.23486 315.325 174.23486 313.21564Q174.23486 311.09064 173.73486 310.40314Q173.25049 309.7 172.50049 309.7Q171.78174 309.7 171.34424 310.3094Q170.79736 311.09064 170.79736 313.21564Z" fill-rule="nonzero"/><path fill="#000000" d="M305.67636 316.4344L305.67636 317.45L299.98886 317.45Q299.98886 317.075 300.11386 316.71564Q300.3326 316.1375 300.80136 315.575Q301.28574 315.0125 302.192 314.27814Q303.59824 313.1219 304.0826 312.45Q304.5826 311.77814 304.5826 311.1844Q304.5826 310.5594 304.1295 310.1375Q303.67636 309.7 302.9576 309.7Q302.192 309.7 301.73886 310.15314Q301.28574 310.60626 301.2701 311.41876L300.192 311.3094Q300.30136 310.09064 301.0201 309.46564Q301.7545 308.825 302.98886 308.825Q304.22324 308.825 304.942 309.5125Q305.66074 310.2 305.66074 311.21564Q305.66074 311.73126 305.442 312.23126Q305.23886 312.71564 304.73886 313.27814Q304.2545 313.825 303.1295 314.77814Q302.17636 315.575 301.8951 315.8719Q301.6295 316.15314 301.4576 316.4344L305.67636 316.4344ZM307.1295 313.21564Q307.1295 311.6844 307.442 310.7625Q307.7545 309.825 308.36386 309.325Q308.98886 308.825 309.92636 308.825Q310.61386 308.825 311.1295 309.10626Q311.66074 309.3875 312.0045 309.91876Q312.34824 310.4344 312.53574 311.1844Q312.72324 311.9344 312.72324 313.21564Q312.72324 314.73126 312.41074 315.65314Q312.11386 316.575 311.48886 317.09064Q310.8795 317.59064 309.92636 317.59064Q308.692 317.59064 307.97324 316.7Q307.1295 315.6375 307.1295 313.21564ZM308.2076 313.21564Q308.2076 315.325 308.7076 316.02814Q309.2076 316.73126 309.92636 316.73126Q310.66074 316.73126 311.1451 316.02814Q311.6451 315.325 311.6451 313.21564Q311.6451 311.09064 311.1451 310.40314Q310.66074 309.7 309.91074 309.7Q309.192 309.7 308.7545 310.3094Q308.2076 311.09064 308.2076 313.21564Z" fill-rule="nonzero"/><path fill="#000000" d="M437.53973 315.1844L438.60223 315.04376Q438.7741 315.9344 439.2116 316.34064Q439.6491 316.73126 440.2741 316.73126Q441.0241 316.73126 441.53973 316.21564Q442.05536 315.7 442.05536 314.9344Q442.05536 314.21564 441.57098 313.7469Q441.10223 313.2625 440.36786 313.2625Q440.07098 313.2625 439.61786 313.3875L439.74286 312.45Q439.85223 312.46564 439.91473 312.46564Q440.5866 312.46564 441.11786 312.1219Q441.66473 311.7625 441.66473 311.02814Q441.66473 310.45 441.2741 310.075Q440.88348 309.6844 440.25848 309.6844Q439.6491 309.6844 439.22723 310.075Q438.82098 310.46564 438.7116 311.23126L437.6491 311.04376Q437.8366 309.9969 438.5241 309.41876Q439.2116 308.825 440.22723 308.825Q440.93036 308.825 441.5241 309.1375Q442.11786 309.4344 442.43036 309.95Q442.74286 310.46564 442.74286 311.0594Q442.74286 311.60626 442.44598 312.075Q442.1491 312.52814 441.57098 312.79376Q442.32098 312.96564 442.74286 313.52814Q443.16473 314.075 443.16473 314.91876Q443.16473 316.04376 442.3366 316.825Q441.5241 317.60626 440.2741 317.60626Q439.1491 317.60626 438.3991 316.9344Q437.6491 316.2469 437.53973 315.1844ZM444.53973 313.21564Q444.53973 311.6844 444.85223 310.7625Q445.16473 309.825 445.7741 309.325Q446.3991 308.825 447.3366 308.825Q448.0241 308.825 448.53973 309.10626Q449.07098 309.3875 449.41473 309.91876Q449.75848 310.4344 449.94598 311.1844Q450.13348 311.9344 450.13348 313.21564Q450.13348 314.73126 449.82098 315.65314Q449.5241 316.575 448.8991 317.09064Q448.28973 317.59064 447.3366 317.59064Q446.10223 317.59064 445.38348 316.7Q444.53973 315.6375 444.53973 313.21564ZM445.61786 313.21564Q445.61786 315.325 446.11786 316.02814Q446.61786 316.73126 447.3366 316.73126Q448.07098 316.73126 448.55536 316.02814Q449.05536 315.325 449.05536 313.21564Q449.05536 311.09064 448.55536 310.40314Q448.07098 309.7 447.32098 309.7Q446.60223 309.7 446.16473 310.3094Q445.61786 311.09064 445.61786 313.21564Z" fill-rule="nonzero"/><path fill="#000000" d="M578.325 317.45L578.325 315.3875L574.60626 315.3875L574.60626 314.41876L578.52814 308.85626L579.3875 308.85626L579.3875 314.41876L580.54376 314.41876L580.54376 315.3875L579.3875 315.3875L579.3875 317.45L578.325 317.45ZM578.325 314.41876L578.325 310.5594L575.6375 314.41876L578.325 314.41876ZM581.95 313.21564Q581.95 311.6844 582.2625 310.7625Q582.575 309.825 583.1844 309.325Q583.8094 308.825 584.7469 308.825Q585.4344 308.825 585.95 309.10626Q586.48126 309.3875 586.825 309.91876Q587.16876 310.4344 587.35626 311.1844Q587.54376 311.9344 587.54376 313.21564Q587.54376 314.73126 587.23126 315.65314Q586.9344 316.575 586.3094 317.09064Q585.7 317.59064 584.7469 317.59064Q583.5125 317.59064 582.79376 316.7Q581.95 315.6375 581.95 313.21564ZM583.02814 313.21564Q583.02814 315.325 583.52814 316.02814Q584.02814 316.73126 584.7469 316.73126Q585.48126 316.73126 585.96564 316.02814Q586.46564 315.325 586.46564 313.21564Q586.46564 311.09064 585.96564 310.40314Q585.48126 309.7 584.73126 309.7Q584.0125 309.7 583.575 310.3094Q583.02814 311.09064 583.02814 313.21564Z" fill-rule="nonzero"/><path stroke="#4285f4" stroke-width="4.0" stroke-linecap="butt" d="M138.5 61.916668L150.5 61.916668" fill-rule="nonzero"/><path fill="#1a1a1a" d="M158.875 64.05729L159.90625 63.90104Q160.0 64.52604 160.39062 64.854164Q160.79688 65.18229 161.53125 65.18229Q162.25 65.18229 162.59375 64.90104Q162.95312 64.604164 162.95312 64.197914Q162.95312 63.83854 162.64062 63.635414Q162.42188 63.49479 161.5625 63.27604Q160.40625 62.979164 159.95312 62.77604Q159.51562 62.55729 159.28125 62.18229Q159.04688 61.80729 159.04688 61.33854Q159.04688 60.93229 159.23438 60.572914Q159.42188 60.21354 159.75 59.979164Q160.0 59.80729 160.42188 59.68229Q160.84375 59.55729 161.34375 59.55729Q162.0625 59.55729 162.60938 59.77604Q163.17188 59.979164 163.4375 60.33854Q163.70312 60.697914 163.79688 61.291664L162.76562 61.43229Q162.70312 60.96354 162.35938 60.697914Q162.03125 60.416664 161.40625 60.416664Q160.6875 60.416664 160.375 60.666664Q160.0625 60.90104 160.0625 61.229164Q160.0625 61.43229 160.1875 61.58854Q160.32812 61.760414 160.59375 61.86979Q160.75 61.93229 161.53125 62.135414Q162.65625 62.447914 163.09375 62.635414Q163.53125 62.822914 163.78125 63.18229Q164.03125 63.541664 164.03125 64.08854Q164.03125 64.61979 163.71875 65.08854Q163.42188 65.541664 162.84375 65.80729Q162.26562 66.05729 161.53125 66.05729Q160.3125 66.05729 159.67188 65.55729Q159.04688 65.041664 158.875 64.05729ZM166.29688 68.30729L166.29688 59.697914L167.25 59.697914L167.25 60.49479Q167.59375 60.02604 168.01562 59.791664Q168.45312 59.55729 169.0625 59.55729Q169.85938 59.55729 170.46875 59.96354Q171.07812 60.36979 171.375 61.11979Q171.6875 61.86979 171.6875 62.760414Q171.6875 63.71354 171.34375 64.479164Q171.01562 65.24479 170.35938 65.65104Q169.70312 66.05729 168.98438 66.05729Q168.45312 66.05729 168.03125 65.83854Q167.60938 65.604164 167.34375 65.27604L167.34375 68.30729L166.29688 68.30729ZM167.25 62.83854Q167.25 64.041664 167.73438 64.61979Q168.21875 65.18229 168.90625 65.18229Q169.60938 65.18229 170.10938 64.58854Q170.60938 63.99479 170.60938 62.74479Q170.60938 61.55729 170.125 60.979164Q169.64062 60.385414 168.95312 60.385414Q168.28125 60.385414 167.76562 61.010414Q167.25 61.635414 167.25 62.83854ZM177.54688 63.916664L178.64062 64.041664Q178.39062 64.99479 177.6875 65.52604Q176.98438 66.05729 175.90625 66.05729Q174.54688 66.05729 173.73438 65.21354Q172.9375 64.36979 172.9375 62.854164Q172.9375 61.291664 173.75 60.43229Q174.5625 59.55729 175.84375 59.55729Q177.09375 59.55729 177.875 60.40104Q178.67188 61.24479 178.67188 62.791664Q178.67188 62.885414 178.67188 63.072914L174.03125 63.072914Q174.09375 64.104164 174.60938 64.65104Q175.125 65.18229 175.90625 65.18229Q176.48438 65.18229 176.89062 64.885414Q177.3125 64.572914 177.54688 63.916664ZM174.09375 62.21354L177.5625 62.21354Q177.5 61.416664 177.17188 61.02604Q176.65625 60.416664 175.85938 60.416664Q175.125 60.416664 174.625 60.90104Q174.14062 61.385414 174.09375 62.21354ZM184.54688 63.916664L185.64062 64.041664Q185.39062 64.99479 184.6875 65.52604Q183.98438 66.05729 182.90625 66.05729Q181.54688 66.05729 180.73438 65.21354Q179.9375 64.36979 179.9375 62.854164Q179.9375 61.291664 180.75 60.43229Q181.5625 59.55729 182.84375 59.55729Q184.09375 59.55729 184.875 60.40104Q185.67188 61.24479 185.67188 62.791664Q185.67188 62.885414 185.67188 63.072914L181.03125 63.072914Q181.09375 64.104164 181.60938 64.65104Q182.125 65.18229 182.90625 65.18229Q183.48438 65.18229 183.89062 64.885414Q184.3125 64.572914 184.54688 63.916664ZM181.09375 62.21354L184.5625 62.21354Q184.5 61.416664 184.17188 61.02604Q183.65625 60.416664 182.85938 60.416664Q182.125 60.416664 181.625 60.90104Q181.14062 61.385414 181.09375 62.21354ZM191.32812 65.916664L191.32812 65.135414Q190.73438 66.05729 189.59375 66.05729Q188.84375 66.05729 188.21875 65.65104Q187.59375 65.229164 187.25 64.49479Q186.90625 63.760414 186.90625 62.80729Q186.90625 61.885414 187.21875 61.11979Q187.53125 60.354164 188.15625 59.96354Q188.78125 59.55729 189.54688 59.55729Q190.10938 59.55729 190.54688 59.791664Q190.98438 60.02604 191.26562 60.40104L191.26562 57.322914L192.3125 57.322914L192.3125 65.916664L191.32812 65.916664ZM188.0 62.80729Q188.0 64.010414 188.5 64.604164Q189.0 65.18229 189.6875 65.18229Q190.375 65.18229 190.85938 64.61979Q191.34375 64.05729 191.34375 62.90104Q191.34375 61.61979 190.84375 61.02604Q190.35938 60.43229 189.64062 60.43229Q188.9375 60.43229 188.46875 61.010414Q188.0 61.572914 188.0 62.80729ZM198.375 65.916664L198.375 64.99479Q197.64062 66.05729 196.39062 66.05729Q195.84375 66.05729 195.35938 65.854164Q194.89062 65.635414 194.65625 65.322914Q194.42188 64.99479 194.32812 64.52604Q194.26562 64.229164 194.26562 63.541664L194.26562 59.697914L195.32812 59.697914L195.32812 63.15104Q195.32812 63.96354 195.39062 64.260414Q195.48438 64.666664 195.79688 64.916664Q196.125 65.15104 196.60938 65.15104Q197.07812 65.15104 197.48438 64.916664Q197.90625 64.666664 198.07812 64.24479Q198.26562 63.822914 198.26562 63.02604L198.26562 59.697914L199.3125 59.697914L199.3125 65.916664L198.375 65.916664ZM201.29688 68.30729L201.29688 59.697914L202.25 59.697914L202.25 60.49479Q202.59375 60.02604 203.01562 59.791664Q203.45312 59.55729 204.0625 59.55729Q204.85938 59.55729 205.46875 59.96354Q206.07812 60.36979 206.375 61.11979Q206.6875 61.86979 206.6875 62.760414Q206.6875 63.71354 206.34375 64.479164Q206.01562 65.24479 205.35938 65.65104Q204.70312 66.05729 203.98438 66.05729Q203.45312 66.05729 203.03125 65.83854Q202.60938 65.604164 202.34375 65.27604L202.34375 68.30729L201.29688 68.30729ZM202.25 62.83854Q202.25 64.041664 202.73438 64.61979Q203.21875 65.18229 203.90625 65.18229Q204.60938 65.18229 205.10938 64.58854Q205.60938 63.99479 205.60938 62.74479Q205.60938 61.55729 205.125 60.979164Q204.64062 60.385414 203.95312 60.385414Q203.28125 60.385414 202.76562 61.010414Q202.25 61.635414 202.25 62.83854ZM210.875 63.33854L210.875 62.27604L214.125 62.27604L214.125 63.33854L210.875 63.33854ZM218.42188 65.916664L218.42188 57.322914L221.67188 57.322914Q222.51562 57.322914 222.96875 57.40104Q223.60938 57.510414 224.03125 57.80729Q224.46875 58.104164 224.71875 58.635414Q224.98438 59.166664 224.98438 59.80729Q224.98438 60.90104 224.28125 61.666664Q223.59375 62.416664 221.76562 62.416664L219.5625 62.416664L219.5625 65.916664L218.42188 65.916664ZM219.5625 61.416664L221.78125 61.416664Q222.89062 61.416664 223.34375 61.010414Q223.8125 60.58854 223.8125 59.83854Q223.8125 59.30729 223.53125 58.93229Q223.26562 58.541664 222.82812 58.416664Q222.53125 58.33854 221.76562 58.33854L219.5625 58.33854L219.5625 61.416664ZM228.60938 65.916664L228.60938 58.33854L225.78125 58.33854L225.78125 57.322914L232.59375 57.322914L232.59375 58.33854L229.75 58.33854L229.75 65.916664L228.60938 65.916664ZM233.46875 65.916664L233.46875 57.322914L234.59375 57.322914L234.59375 60.854164L239.0625 60.854164L239.0625 57.322914L240.20312 57.322914L240.20312 65.916664L239.0625 65.916664L239.0625 61.86979L234.59375 61.86979L234.59375 65.916664L233.46875 65.916664Z" fill-rule="nonzero"/><path stroke="#ea4335" stroke-width="4.0" stroke-linecap="butt" d="M257.5 61.916668L269.5 61.916668" fill-rule="nonzero"/><path fill="#1a1a1a" d="M277.875 64.05729L278.90625 63.90104Q279.0 64.52604 279.39062 64.854164Q279.79688 65.18229 280.53125 65.18229Q281.25 65.18229 281.59375 64.90104Q281.95312 64.604164 281.95312 64.197914Q281.95312 63.83854 281.64062 63.635414Q281.42188 63.49479 280.5625 63.27604Q279.40625 62.979164 278.95312 62.77604Q278.51562 62.55729 278.28125 62.18229Q278.04688 61.80729 278.04688 61.33854Q278.04688 60.93229 278.23438 60.572914Q278.42188 60.21354 278.75 59.979164Q279.0 59.80729 279.42188 59.68229Q279.84375 59.55729 280.34375 59.55729Q281.0625 59.55729 281.60938 59.77604Q282.17188 59.979164 282.4375 60.33854Q282.70312 60.697914 282.79688 61.291664L281.76562 61.43229Q281.70312 60.96354 281.35938 60.697914Q281.03125 60.416664 280.40625 60.416664Q279.6875 60.416664 279.375 60.666664Q279.0625 60.90104 279.0625 61.229164Q279.0625 61.43229 279.1875 61.58854Q279.32812 61.760414 279.59375 61.86979Q279.75 61.93229 280.53125 62.135414Q281.65625 62.447914 282.09375 62.635414Q282.53125 62.822914 282.78125 63.18229Q283.03125 63.541664 283.03125 64.08854Q283.03125 64.61979 282.71875 65.08854Q282.42188 65.541664 281.84375 65.80729Q281.26562 66.05729 280.53125 66.05729Q279.3125 66.05729 278.67188 65.55729Q278.04688 65.041664 277.875 64.05729ZM285.29688 68.30729L285.29688 59.697914L286.25 59.697914L286.25 60.49479Q286.59375 60.02604 287.01562 59.791664Q287.45312 59.55729 288.0625 59.55729Q288.85938 59.55729 289.46875 59.96354Q290.07812 60.36979 290.375 61.11979Q290.6875 61.86979 290.6875 62.760414Q290.6875 63.71354 290.34375 64.479164Q290.01562 65.24479 289.35938 65.65104Q288.70312 66.05729 287.98438 66.05729Q287.45312 66.05729 287.03125 65.83854Q286.60938 65.604164 286.34375 65.27604L286.34375 68.30729L285.29688 68.30729ZM286.25 62.83854Q286.25 64.041664 286.73438 64.61979Q287.21875 65.18229 287.90625 65.18229Q288.60938 65.18229 289.10938 64.58854Q289.60938 63.99479 289.60938 62.74479Q289.60938 61.55729 289.125 60.979164Q288.64062 60.385414 287.95312 60.385414Q287.28125 60.385414 286.76562 61.010414Q286.25 61.635414 286.25 62.83854ZM296.54688 63.916664L297.64062 64.041664Q297.39062 64.99479 296.6875 65.52604Q295.98438 66.05729 294.90625 66.05729Q293.54688 66.05729 292.73438 65.21354Q291.9375 64.36979 291.9375 62.854164Q291.9375 61.291664 292.75 60.43229Q293.5625 59.55729 294.84375 59.55729Q296.09375 59.55729 296.875 60.40104Q297.67188 61.24479 297.67188 62.791664Q297.67188 62.885414 297.67188 63.072914L293.03125 63.072914Q293.09375 64.104164 293.60938 64.65104Q294.125 65.18229 294.90625 65.18229Q295.48438 65.18229 295.89062 64.885414Q296.3125 64.572914 296.54688 63.916664ZM293.09375 62.21354L296.5625 62.21354Q296.5 61.416664 296.17188 61.02604Q295.65625 60.416664 294.85938 60.416664Q294.125 60.416664 293.625 60.90104Q293.14062 61.385414 293.09375 62.21354ZM303.54688 63.916664L304.64062 64.041664Q304.39062 64.99479 303.6875 65.52604Q302.98438 66.05729 301.90625 66.05729Q300.54688 66.05729 299.73438 65.21354Q298.9375 64.36979 298.9375 62.854164Q298.9375 61.291664 299.75 60.43229Q300.5625 59.55729 301.84375 59.55729Q303.09375 59.55729 303.875 60.40104Q304.67188 61.24479 304.67188 62.791664Q304.67188 62.885414 304.67188 63.072914L300.03125 63.072914Q300.09375 64.104164 300.60938 64.65104Q301.125 65.18229 301.90625 65.18229Q302.48438 65.18229 302.89062 64.885414Q303.3125 64.572914 303.54688 63.916664ZM300.09375 62.21354L303.5625 62.21354Q303.5 61.416664 303.17188 61.02604Q302.65625 60.416664 301.85938 60.416664Q301.125 60.416664 300.625 60.90104Q300.14062 61.385414 300.09375 62.21354ZM310.32812 65.916664L310.32812 65.135414Q309.73438 66.05729 308.59375 66.05729Q307.84375 66.05729 307.21875 65.65104Q306.59375 65.229164 306.25 64.49479Q305.90625 63.760414 305.90625 62.80729Q305.90625 61.885414 306.21875 61.11979Q306.53125 60.354164 307.15625 59.96354Q307.78125 59.55729 308.54688 59.55729Q309.10938 59.55729 309.54688 59.791664Q309.98438 60.02604 310.26562 60.40104L310.26562 57.322914L311.3125 57.322914L311.3125 65.916664L310.32812 65.916664ZM307.0 62.80729Q307.0 64.010414 307.5 64.604164Q308.0 65.18229 308.6875 65.18229Q309.375 65.18229 309.85938 64.61979Q310.34375 64.05729 310.34375 62.90104Q310.34375 61.61979 309.84375 61.02604Q309.35938 60.43229 308.64062 60.43229Q307.9375 60.43229 307.46875 61.010414Q307.0 61.572914 307.0 62.80729ZM317.375 65.916664L317.375 64.99479Q316.64062 66.05729 315.39062 66.05729Q314.84375 66.05729 314.35938 65.854164Q313.89062 65.635414 313.65625 65.322914Q313.42188 64.99479 313.32812 64.52604Q313.26562 64.229164 313.26562 63.541664L313.26562 59.697914L314.32812 59.697914L314.32812 63.15104Q314.32812 63.96354 314.39062 64.260414Q314.48438 64.666664 314.79688 64.916664Q315.125 65.15104 315.60938 65.15104Q316.07812 65.15104 316.48438 64.916664Q316.90625 64.666664 317.07812 64.24479Q317.26562 63.822914 317.26562 63.02604L317.26562 59.697914L318.3125 59.697914L318.3125 65.916664L317.375 65.916664ZM320.29688 68.30729L320.29688 59.697914L321.25 59.697914L321.25 60.49479Q321.59375 60.02604 322.01562 59.791664Q322.45312 59.55729 323.0625 59.55729Q323.85938 59.55729 324.46875 59.96354Q325.07812 60.36979 325.375 61.11979Q325.6875 61.86979 325.6875 62.760414Q325.6875 63.71354 325.34375 64.479164Q325.01562 65.24479 324.35938 65.65104Q323.70312 66.05729 322.98438 66.05729Q322.45312 66.05729 322.03125 65.83854Q321.60938 65.604164 321.34375 65.27604L321.34375 68.30729L320.29688 68.30729ZM321.25 62.83854Q321.25 64.041664 321.73438 64.61979Q322.21875 65.18229 322.90625 65.18229Q323.60938 65.18229 324.10938 64.58854Q324.60938 63.99479 324.60938 62.74479Q324.60938 61.55729 324.125 60.979164Q323.64062 60.385414 322.95312 60.385414Q322.28125 60.385414 321.76562 61.010414Q321.25 61.635414 321.25 62.83854ZM329.875 63.33854L329.875 62.27604L333.125 62.27604L333.125 63.33854L329.875 63.33854ZM337.07812 61.729164Q337.07812 59.58854 338.21875 58.385414Q339.375 57.166664 341.1875 57.166664Q342.39062 57.166664 343.34375 57.74479Q344.29688 58.30729 344.79688 59.322914Q345.29688 60.33854 345.29688 61.635414Q345.29688 62.93229 344.76562 63.96354Q344.23438 64.99479 343.26562 65.52604Q342.3125 66.05729 341.1875 66.05729Q339.96875 66.05729 339.01562 65.479164Q338.0625 64.885414 337.5625 63.885414Q337.07812 62.86979 337.07812 61.729164ZM338.25 61.74479Q338.25 63.30729 339.07812 64.197914Q339.92188 65.08854 341.1875 65.08854Q342.46875 65.08854 343.29688 64.197914Q344.125 63.291664 344.125 61.61979Q344.125 60.572914 343.76562 59.791664Q343.42188 59.010414 342.73438 58.58854Q342.04688 58.15104 341.20312 58.15104Q340.0 58.15104 339.125 58.979164Q338.25 59.80729 338.25 61.74479ZM346.39062 65.916664L346.39062 57.322914L348.10938 57.322914L350.14062 63.40104Q350.42188 64.260414 350.54688 64.68229Q350.6875 64.21354 351.0 63.30729L353.0625 57.322914L354.59375 57.322914L354.59375 65.916664L353.5 65.916664L353.5 58.729164L351.0 65.916664L349.96875 65.916664L347.48438 58.604164L347.48438 65.916664L346.39062 65.916664ZM355.42188 65.916664L355.42188 57.322914L358.67188 57.322914Q359.51562 57.322914 359.96875 57.40104Q360.60938 57.510414 361.03125 57.80729Q361.46875 58.104164 361.71875 58.635414Q361.98438 59.166664 361.98438 59.80729Q361.98438 60.90104 361.28125 61.666664Q360.59375 62.416664 358.76562 62.416664L356.5625 62.416664L356.5625 65.916664L355.42188 65.916664ZM356.5625 61.416664L358.78125 61.416664Q359.89062 61.416664 360.34375 61.010414Q360.8125 60.58854 360.8125 59.83854Q360.8125 59.30729 360.53125 58.93229Q360.26562 58.541664 359.82812 58.416664Q359.53125 58.33854 358.76562 58.33854L356.5625 58.33854L356.5625 61.416664Z" fill-rule="nonzero"/><path stroke="#fbbc04" stroke-width="4.0" stroke-linecap="butt" d="M378.5 61.916668L390.5 61.916668" fill-rule="nonzero"/><path fill="#1a1a1a" d="M399.29688 68.30729L399.29688 59.697914L400.25 59.697914L400.25 60.49479Q400.59375 60.02604 401.01562 59.791664Q401.45312 59.55729 402.0625 59.55729Q402.85938 59.55729 403.46875 59.96354Q404.07812 60.36979 404.375 61.11979Q404.6875 61.86979 404.6875 62.760414Q404.6875 63.71354 404.34375 64.479164Q404.01562 65.24479 403.35938 65.65104Q402.70312 66.05729 401.98438 66.05729Q401.45312 66.05729 401.03125 65.83854Q400.60938 65.604164 400.34375 65.27604L400.34375 68.30729L399.29688 68.30729ZM400.25 62.83854Q400.25 64.041664 400.73438 64.61979Q401.21875 65.18229 401.90625 65.18229Q402.60938 65.18229 403.10938 64.58854Q403.60938 63.99479 403.60938 62.74479Q403.60938 61.55729 403.125 60.979164Q402.64062 60.385414 401.95312 60.385414Q401.28125 60.385414 400.76562 61.010414Q400.25 61.635414 400.25 62.83854ZM406.28125 65.916664L406.28125 59.697914L407.23438 59.697914L407.23438 60.635414Q407.59375 59.979164 407.89062 59.77604Q408.20312 59.55729 408.57812 59.55729Q409.10938 59.55729 409.65625 59.885414L409.29688 60.86979Q408.90625 60.635414 408.53125 60.635414Q408.17188 60.635414 407.89062 60.854164Q407.625 61.05729 407.51562 61.43229Q407.32812 61.99479 407.32812 62.65104L407.32812 65.916664L406.28125 65.916664ZM409.90625 62.80729Q409.90625 61.072914 410.85938 60.24479Q411.65625 59.55729 412.8125 59.55729Q414.09375 59.55729 414.90625 60.40104Q415.73438 61.229164 415.73438 62.71354Q415.73438 63.916664 415.375 64.604164Q415.01562 65.291664 414.3125 65.68229Q413.625 66.05729 412.8125 66.05729Q411.51562 66.05729 410.70312 65.229164Q409.90625 64.385414 409.90625 62.80729ZM410.98438 62.80729Q410.98438 63.99479 411.5 64.58854Q412.03125 65.18229 412.8125 65.18229Q413.60938 65.18229 414.125 64.58854Q414.64062 63.99479 414.64062 62.77604Q414.64062 61.61979 414.10938 61.02604Q413.59375 60.43229 412.8125 60.43229Q412.03125 60.43229 411.5 61.02604Q410.98438 61.604164 410.98438 62.80729ZM421.35938 63.635414L422.39062 63.77604Q422.21875 64.83854 421.51562 65.447914Q420.8125 66.05729 419.79688 66.05729Q418.51562 66.05729 417.73438 65.229164Q416.96875 64.385414 416.96875 62.822914Q416.96875 61.822914 417.29688 61.072914Q417.64062 60.30729 418.3125 59.93229Q419.0 59.55729 419.8125 59.55729Q420.8125 59.55729 421.45312 60.072914Q422.10938 60.572914 422.29688 61.52604L421.26562 61.68229Q421.125 61.05729 420.75 60.74479Q420.375 60.416664 419.84375 60.416664Q419.04688 60.416664 418.54688 60.99479Q418.04688 61.55729 418.04688 62.791664Q418.04688 64.05729 418.53125 64.61979Q419.01562 65.18229 419.78125 65.18229Q420.40625 65.18229 420.8125 64.80729Q421.23438 64.43229 421.35938 63.635414ZM427.54688 63.916664L428.64062 64.041664Q428.39062 64.99479 427.6875 65.52604Q426.98438 66.05729 425.90625 66.05729Q424.54688 66.05729 423.73438 65.21354Q422.9375 64.36979 422.9375 62.854164Q422.9375 61.291664 423.75 60.43229Q424.5625 59.55729 425.84375 59.55729Q427.09375 59.55729 427.875 60.40104Q428.67188 61.24479 428.67188 62.791664Q428.67188 62.885414 428.67188 63.072914L424.03125 63.072914Q424.09375 64.104164 424.60938 64.65104Q425.125 65.18229 425.90625 65.18229Q426.48438 65.18229 426.89062 64.885414Q427.3125 64.572914 427.54688 63.916664ZM424.09375 62.21354L427.5625 62.21354Q427.5 61.416664 427.17188 61.02604Q426.65625 60.416664 425.85938 60.416664Q425.125 60.416664 424.625 60.90104Q424.14062 61.385414 424.09375 62.21354ZM429.875 64.05729L430.90625 63.90104Q431.0 64.52604 431.39062 64.854164Q431.79688 65.18229 432.53125 65.18229Q433.25 65.18229 433.59375 64.90104Q433.95312 64.604164 433.95312 64.197914Q433.95312 63.83854 433.64062 63.635414Q433.42188 63.49479 432.5625 63.27604Q431.40625 62.979164 430.95312 62.77604Q430.51562 62.55729 430.28125 62.18229Q430.04688 61.80729 430.04688 61.33854Q430.04688 60.93229 430.23438 60.572914Q430.42188 60.21354 430.75 59.979164Q431.0 59.80729 431.42188 59.68229Q431.84375 59.55729 432.34375 59.55729Q433.0625 59.55729 433.60938 59.77604Q434.17188 59.979164 434.4375 60.33854Q434.70312 60.697914 434.79688 61.291664L433.76562 61.43229Q433.70312 60.96354 433.35938 60.697914Q433.03125 60.416664 432.40625 60.416664Q431.6875 60.416664 431.375 60.666664Q431.0625 60.90104 431.0625 61.229164Q431.0625 61.43229 431.1875 61.58854Q431.32812 61.760414 431.59375 61.86979Q431.75 61.93229 432.53125 62.135414Q433.65625 62.447914 434.09375 62.635414Q434.53125 62.822914 434.78125 63.18229Q435.03125 63.541664 435.03125 64.08854Q435.03125 64.61979 434.71875 65.08854Q434.42188 65.541664 433.84375 65.80729Q433.26562 66.05729 432.53125 66.05729Q431.3125 66.05729 430.67188 65.55729Q430.04688 65.041664 429.875 64.05729ZM436.875 64.05729L437.90625 63.90104Q438.0 64.52604 438.39062 64.854164Q438.79688 65.18229 439.53125 65.18229Q440.25 65.18229 440.59375 64.90104Q440.95312 64.604164 440.95312 64.197914Q440.95312 63.83854 440.64062 63.635414Q440.42188 63.49479 439.5625 63.27604Q438.40625 62.979164 437.95312 62.77604Q437.51562 62.55729 437.28125 62.18229Q437.04688 61.80729 437.04688 61.33854Q437.04688 60.93229 437.23438 60.572914Q437.42188 60.21354 437.75 59.979164Q438.0 59.80729 438.42188 59.68229Q438.84375 59.55729 439.34375 59.55729Q440.0625 59.55729 440.60938 59.77604Q441.17188 59.979164 441.4375 60.33854Q441.70312 60.697914 441.79688 61.291664L440.76562 61.43229Q440.70312 60.96354 440.35938 60.697914Q440.03125 60.416664 439.40625 60.416664Q438.6875 60.416664 438.375 60.666664Q438.0625 60.90104 438.0625 61.229164Q438.0625 61.43229 438.1875 61.58854Q438.32812 61.760414 438.59375 61.86979Q438.75 61.93229 439.53125 62.135414Q440.65625 62.447914 441.09375 62.635414Q441.53125 62.822914 441.78125 63.18229Q442.03125 63.541664 442.03125 64.08854Q442.03125 64.61979 441.71875 65.08854Q441.42188 65.541664 440.84375 65.80729Q440.26562 66.05729 439.53125 66.05729Q438.3125 66.05729 437.67188 65.55729Q437.04688 65.041664 436.875 64.05729ZM443.90625 62.80729Q443.90625 61.072914 444.85938 60.24479Q445.65625 59.55729 446.8125 59.55729Q448.09375 59.55729 448.90625 60.40104Q449.73438 61.229164 449.73438 62.71354Q449.73438 63.916664 449.375 64.604164Q449.01562 65.291664 448.3125 65.68229Q447.625 66.05729 446.8125 66.05729Q445.51562 66.05729 444.70312 65.229164Q443.90625 64.385414 443.90625 62.80729ZM444.98438 62.80729Q444.98438 63.99479 445.5 64.58854Q446.03125 65.18229 446.8125 65.18229Q447.60938 65.18229 448.125 64.58854Q448.64062 63.99479 448.64062 62.77604Q448.64062 61.61979 448.10938 61.02604Q447.59375 60.43229 446.8125 60.43229Q446.03125 60.43229 445.5 61.02604Q444.98438 61.604164 444.98438 62.80729ZM451.28125 65.916664L451.28125 59.697914L452.23438 59.697914L452.23438 60.635414Q452.59375 59.979164 452.89062 59.77604Q453.20312 59.55729 453.57812 59.55729Q454.10938 59.55729 454.65625 59.885414L454.29688 60.86979Q453.90625 60.635414 453.53125 60.635414Q453.17188 60.635414 452.89062 60.854164Q452.625 61.05729 452.51562 61.43229Q452.32812 61.99479 452.32812 62.65104L452.32812 65.916664L451.28125 65.916664ZM454.875 64.05729L455.90625 63.90104Q456.0 64.52604 456.39062 64.854164Q456.79688 65.18229 457.53125 65.18229Q458.25 65.18229 458.59375 64.90104Q458.95312 64.604164 458.95312 64.197914Q458.95312 63.83854 458.64062 63.635414Q458.42188 63.49479 457.5625 63.27604Q456.40625 62.979164 455.95312 62.77604Q455.51562 62.55729 455.28125 62.18229Q455.04688 61.80729 455.04688 61.33854Q455.04688 60.93229 455.23438 60.572914Q455.42188 60.21354 455.75 59.979164Q456.0 59.80729 456.42188 59.68229Q456.84375 59.55729 457.34375 59.55729Q458.0625 59.55729 458.60938 59.77604Q459.17188 59.979164 459.4375 60.33854Q459.70312 60.697914 459.79688 61.291664L458.76562 61.43229Q458.70312 60.96354 458.35938 60.697914Q458.03125 60.416664 457.40625 60.416664Q456.6875 60.416664 456.375 60.666664Q456.0625 60.90104 456.0625 61.229164Q456.0625 61.43229 456.1875 61.58854Q456.32812 61.760414 456.59375 61.86979Q456.75 61.93229 457.53125 62.135414Q458.65625 62.447914 459.09375 62.635414Q459.53125 62.822914 459.78125 63.18229Q460.03125 63.541664 460.03125 64.08854Q460.03125 64.61979 459.71875 65.08854Q459.42188 65.541664 458.84375 65.80729Q458.26562 66.05729 457.53125 66.05729Q456.3125 66.05729 455.67188 65.55729Q455.04688 65.041664 454.875 64.05729Z" fill-rule="nonzero"/><path fill="#757575" d="M19.45625 32.95625L21.2375 32.8Q21.3625 33.8625 21.815624 34.55Q22.284374 35.2375 23.253124 35.675Q24.2375 36.096874 25.471874 36.096874Q26.55 36.096874 27.378124 35.784374Q28.20625 35.45625 28.6125 34.89375Q29.01875 34.33125 29.01875 33.659374Q29.01875 32.9875 28.628124 32.4875Q28.2375 31.9875 27.346874 31.64375Q26.76875 31.409374 24.784374 30.940624Q22.815624 30.471874 22.034374 30.05Q21.003124 29.51875 20.503124 28.721874Q20.003124 27.925 20.003124 26.940624Q20.003124 25.846874 20.6125 24.909374Q21.221874 23.971874 22.409374 23.4875Q23.596874 22.9875 25.034374 22.9875Q26.628124 22.9875 27.846874 23.503124Q29.065624 24.01875 29.70625 25.01875Q30.3625 26.003124 30.409374 27.26875L28.596874 27.409374Q28.45625 26.05 27.6125 25.3625Q26.76875 24.659374 25.1125 24.659374Q23.39375 24.659374 22.596874 25.3Q21.815624 25.925 21.815624 26.8Q21.815624 27.58125 22.378124 28.08125Q22.925 28.58125 25.2375 29.096874Q27.55 29.6125 28.409374 30.003124Q29.659374 30.58125 30.253124 31.471874Q30.846874 32.346874 30.846874 33.503124Q30.846874 34.64375 30.190624 35.659374Q29.534374 36.675 28.3 37.2375Q27.08125 37.8 25.55 37.8Q23.6125 37.8 22.3 37.2375Q20.9875 36.659374 20.2375 35.51875Q19.4875 34.378124 19.45625 32.95625ZM32.8625 41.51875L32.8625 27.175L34.471874 27.175L34.471874 28.51875Q35.034374 27.7375 35.7375 27.346874Q36.45625 26.940624 37.471874 26.940624Q38.8 26.940624 39.815624 27.628124Q40.83125 28.315624 41.346874 29.565624Q41.878124 30.8 41.878124 32.284374Q41.878124 33.878124 41.3 35.159374Q40.7375 36.425 39.64375 37.1125Q38.55 37.784374 37.346874 37.784374Q36.471874 37.784374 35.76875 37.409374Q35.08125 37.034374 34.628124 36.471874L34.628124 41.51875L32.8625 41.51875ZM34.45625 32.425Q34.45625 34.425 35.26875 35.378124Q36.08125 36.33125 37.2375 36.33125Q38.409374 36.33125 39.2375 35.346874Q40.08125 34.3625 40.08125 32.26875Q40.08125 30.3 39.253124 29.315624Q38.440624 28.315624 37.315624 28.315624Q36.190624 28.315624 35.315624 29.378124Q34.45625 30.425 34.45625 32.425ZM50.971874 34.20625L52.784374 34.440624Q52.3625 36.01875 51.190624 36.909374Q50.034374 37.784374 48.221874 37.784374Q45.95625 37.784374 44.6125 36.39375Q43.284374 34.9875 43.284374 32.45625Q43.284374 29.83125 44.628124 28.39375Q45.971874 26.940624 48.128124 26.940624Q50.20625 26.940624 51.51875 28.3625Q52.846874 29.76875 52.846874 32.346874Q52.846874 32.503124 52.83125 32.815624L45.096874 32.815624Q45.190624 34.51875 46.065624 35.425Q46.940624 36.33125 48.2375 36.33125Q49.20625 36.33125 49.878124 35.83125Q50.565624 35.315624 50.971874 34.20625ZM45.190624 31.3625L50.9875 31.3625Q50.878124 30.065624 50.33125 29.409374Q49.4875 28.39375 48.14375 28.39375Q46.940624 28.39375 46.1125 29.20625Q45.284374 30.003124 45.190624 31.3625ZM61.971874 34.20625L63.784374 34.440624Q63.3625 36.01875 62.190624 36.909374Q61.034374 37.784374 59.221874 37.784374Q56.95625 37.784374 55.6125 36.39375Q54.284374 34.9875 54.284374 32.45625Q54.284374 29.83125 55.628124 28.39375Q56.971874 26.940624 59.128124 26.940624Q61.20625 26.940624 62.51875 28.3625Q63.846874 29.76875 63.846874 32.346874Q63.846874 32.503124 63.83125 32.815624L56.096874 32.815624Q56.190624 34.51875 57.065624 35.425Q57.940624 36.33125 59.2375 36.33125Q60.20625 36.33125 60.878124 35.83125Q61.565624 35.315624 61.971874 34.20625ZM56.190624 31.3625L61.9875 31.3625Q61.878124 30.065624 61.33125 29.409374Q60.4875 28.39375 59.14375 28.39375Q57.940624 28.39375 57.1125 29.20625Q56.284374 30.003124 56.190624 31.3625ZM72.59688 37.55L72.59688 36.2375Q71.6125 37.784374 69.69063 37.784374Q68.45625 37.784374 67.40938 37.096874Q66.37813 36.409374 65.8 35.190624Q65.2375 33.971874 65.2375 32.378124Q65.2375 30.815624 65.75313 29.55Q66.26875 28.284374 67.3 27.6125Q68.34688 26.940624 69.6125 26.940624Q70.55 26.940624 71.28438 27.346874Q72.01875 27.7375 72.4875 28.3625L72.4875 23.2375L74.22188 23.2375L74.22188 37.55L72.59688 37.55ZM67.03438 32.378124Q67.03438 34.3625 67.87813 35.346874Q68.72188 36.33125 69.8625 36.33125Q71.01875 36.33125 71.81563 35.39375Q72.62813 34.45625 72.62813 32.51875Q72.62813 30.39375 71.8 29.39375Q70.9875 28.39375 69.78438 28.39375Q68.6125 28.39375 67.81563 29.3625Q67.03438 30.315624 67.03438 32.378124ZM83.65938 37.55L83.65938 36.01875Q82.45625 37.784374 80.37813 37.784374Q79.45625 37.784374 78.65938 37.440624Q77.8625 37.08125 77.47188 36.55Q77.09688 36.01875 76.94063 35.2375Q76.83125 34.721874 76.83125 33.596874L76.83125 27.175L78.58125 27.175L78.58125 32.925Q78.58125 34.3 78.69063 34.784374Q78.8625 35.471874 79.39375 35.878124Q79.94063 36.26875 80.72188 36.26875Q81.51875 36.26875 82.20625 35.8625Q82.90938 35.45625 83.19063 34.76875Q83.4875 34.065624 83.4875 32.7375L83.4875 27.175L85.2375 27.175L85.2375 37.55L83.65938 37.55ZM86.8625 41.51875L86.8625 27.175L88.47188 27.175L88.47188 28.51875Q89.03438 27.7375 89.7375 27.346874Q90.45625 26.940624 91.47188 26.940624Q92.8 26.940624 93.81563 27.628124Q94.83125 28.315624 95.34688 29.565624Q95.87813 30.8 95.87813 32.284374Q95.87813 33.878124 95.3 35.159374Q94.7375 36.425 93.64375 37.1125Q92.55 37.784374 91.34688 37.784374Q90.47188 37.784374 89.76875 37.409374Q89.08125 37.034374 88.62813 36.471874L88.62813 41.51875L86.8625 41.51875ZM88.45625 32.425Q88.45625 34.425 89.26875 35.378124Q90.08125 36.33125 91.2375 36.33125Q92.40938 36.33125 93.2375 35.346874Q94.08125 34.3625 94.08125 32.26875Q94.08125 30.3 93.25313 29.315624Q92.44063 28.315624 91.31563 28.315624Q90.19063 28.315624 89.31563 29.378124Q88.45625 30.425 88.45625 32.425Z" fill-rule="nonzero"/></svg>