<svg version="1.1" viewBox="0.0 0.0 600.0 371.0" fill="none" stroke="none" stroke-linecap="square" stroke-miterlimit="10" width="600" height="371" xmlns:xlink="http://www.w3.org/1999/xlink" xmlns="http://www.w3.org/2000/svg"><path fill="#ffffff" d="M0 0L600.0 0L600.0 371.0L0 371.0L0 0Z" fill-rule="nonzero"/><path stroke="#333333" stroke-width="1.0" stroke-linecap="butt" d="M45.5 88.5L45.5 300.5" fill-rule="nonzero"/><path stroke="#cccccc" stroke-width="1.0" stroke-linecap="butt" d="M176.5 88.5L176.5 300.5" fill-rule="nonzero"/><path stroke="#cccccc" stroke-width="1.0" stroke-linecap="butt" d="M306.5 88.5L306.5 300.5" fill-rule="nonzero"/><path stroke="#cccccc" stroke-width="1.0" stroke-linecap="butt" d="M437.5 88.5L437.5 300.5" fill-rule="nonzero"/><path stroke="#cccccc" stroke-width="1.0" stroke-linecap="butt" d="M568.5 88.5L568.5 300.5" fill-rule="nonzero"/><path stroke="#333333" stroke-width="1.0" stroke-linecap="butt" d="M45.5 300.5L581.5 300.5" fill-rule="nonzero"/><path stroke="#cccccc" stroke-width="1.0" stroke-linecap="butt" d="M45.5 247.5L581.5 247.5" fill-rule="nonzero"/><path stroke="#cccccc" stroke-width="1.0" stroke-linecap="butt" d="M45.5 194.5L581.5 194.5" fill-rule="nonzero"/><path stroke="#cccccc" stroke-width="1.0" stroke-linecap="butt" d="M45.5 141.5L581.5 141.5" fill-rule="nonzero"/><path stroke="#cccccc" stroke-width="1.0" stroke-linecap="butt" d="M45.5 88.5L581.5 88.5" fill-rule="nonzero"/><clipPath id="id_0"><path d="M45.55 88.28333L581.45 88.28333L581.45 300.45L45.55 300.45L45.55 88.28333Z" clip-rule="nonzero"/></clipPath><path stroke="#4285f4" stroke-width="2.0" stroke-linecap="butt" clip-path="url(#id_0)" d="M58.62073 290.5372L71.69146 283.96152L110.903656 274.92276L176.25732 269.06757L306.96463 264.829L568.3793 275.84143" fill-rule="nonzero"/><path stroke="#ea4335" stroke-width="2.0" stroke-linecap="butt" clip-path="url(#id_0)" d="M58.62073 289.09735L71.69146 286.79965L110.903656 278.40753L176.25732 264.5902L306.96463 237.26436L568.3793 117.52707" fill-rule="nonzero"/><path fill="#000000" fill-opacity="0.0" clip-path="url(#id_0)" d="M61.62073 290.5372C61.62073 292.19406 60.277584 293.5372 58.62073 293.5372C56.96388 293.5372 55.62073 292.19406 55.62073 290.5372C55.62073 288.88034 56.96388 287.5372 58.62073 287.5372C60.277584 287.5372 61.62073 288.88034 61.62073 290.5372Z" fill-rule="nonzero"/><path fill="#000000" fill-opacity="0.0" clip-path="url(#id_0)" d="M74.69146 283.96152C74.69146 285.61838 73.34832 286.96152 71.69146 286.96152C70.03461 286.96152 68.69146 285.61838 68.69146 283.96152C68.69146 282.30466 70.03461 280.96152 71.69146 280.96152C73.34832 280.96152 74.69146 282.30466 74.69146 283.96152Z" fill-rule="nonzero"/><path fill="#000000" fill-opacity="0.0" clip-path="url(#id_0)" d="M113.903656 274.92276C113.903656 276.57962 112.56052 277.92276 110.903656 277.92276C109.2468 277.92276 107.903656 276.57962 107.903656 274.92276C107.903656 273.2659 109.2468 271.92276 110.903656 271.92276C112.56052 271.92276 113.903656 273.2659 113.903656 274.92276Z" fill-rule="nonzero"/><path fill="#000000" fill-opacity="0.0" clip-path="url(#id_0)" d="M179.25732 269.06757C179.25732 270.72443 177.91417 272.06757 176.25732 272.06757C174.60046 272.06757 173.25732 270.72443 173.25732 269.06757C173.25732 267.4107 174.60046 266.06757 176.25732 266.06757C177.91417 266.06757 179.25732 267.4107 179.25732 269.06757Z" fill-rule="nonzero"/><path fill="#000000" fill-opacity="0.0" clip-path="url(#id_0)" d="M309.96463 264.829C309.96463 266.48587 308.6215 267.829 306.96463 267.829C305.30777 267.829 303.96463 266.48587 303.96463 264.829C303.96463 263.17215 305.30777 261.829 306.96463 261.829C308.6215 261.829 309.96463 263.17215 309.96463 264.829Z" fill-rule="nonzero"/><path fill="#000000" fill-opacity="0.0" clip-path="url(#id_0)" d="M571.3793 275.84143C571.3793 277.4983 570.03613 278.84143 568.3793 278.84143C566.7224 278.84143 565.3793 277.4983 565.3793 275.84143C565.3793 274.1846 566.7224 272.84143 568.3793 272.84143C570.03613 272.84143 571.3793 274.1846 571.3793 275.84143Z" fill-rule="nonzero"/><path fill="#000000" fill-opacity="0.0" clip-path="url(#id_0)" d="M61.62073 289.09735C61.62073 290.75418 60.277584 292.09735 58.62073 292.09735C56.96388 292.09735 55.62073 290.75418 55.62073 289.09735C55.62073 287.4405 56.96388 286.09735 58.62073 286.09735C60.277584 286.09735 61.62073 287.4405 61.62073 289.09735Z" fill-rule="nonzero"/><path fill="#000000" fill-opacity="0.0" clip-path="url(#id_0)" d="M74.69146 286.79965C74.69146 288.4565 73.34832 289.79965 71.69146 289.79965C70.03461 289.79965 68.69146 288.4565 68.69146 286.79965C68.69146 285.1428 70.03461 283.79965 71.69146 283.79965C73.34832 283.79965 74.69146 285.1428 74.69146 286.79965Z" fill-rule="nonzero"/><path fill="#000000" fill-opacity="0.0" clip-path="url(#id_0)" d="M113.903656 278.40753C113.903656 280.06436 112.56052 281.40753 110.903656 281.40753C109.2468 281.40753 107.903656 280.06436 107.903656 278.40753C107.903656 276.75067 109.2468 275.40753 110.903656 275.40753C112.56052 275.40753 113.903656 276.75067 113.903656 278.40753Z" fill-rule="nonzero"/><path fill="#000000" fill-opacity="0.0" clip-path="url(#id_0)" d="M179.25732 264.5902C179.25732 266.24707 177.91417 267.5902 176.25732 267.5902C174.60046 267.5902 173.25732 266.24707 173.25732 264.5902C173.25732 262.93335 174.60046 261.5902 176.25732 261.5902C177.91417 261.5902 179.25732 262.93335 179.25732 264.5902Z" fill-rule="nonzero"/><path fill="#000000" fill-opacity="0.0" clip-path="url(#id_0)" d="M309.96463 237.26436C309.96463 238.9212 308.6215 240.26436 306.96463 240.26436C305.30777 240.26436 303.96463 238.9212 303.96463 237.26436C303.96463 235.6075 305.30777 234.26436 306.96463 234.26436C308.6215 234.26436 309.96463 235.6075 309.96463 237.26436Z" fill-rule="nonzero"/><path fill="#000000" fill-opacity="0.0" clip-path="url(#id_0)" d="M571.3793 117.52707C571.3793 119.18392 570.03613 120.52707 568.3793 120.52707C566.7224 120.52707 565.3793 119.18392 565.3793 117.52707C565.3793 115.87021 566.7224 114.52707 568.3793 114.52707C570.03613 114.52707 571.3793 115.87021 571.3793 117.52707Z" fill-rule="nonzero"/><path fill="#000000" d="M295.59375 348.5125L295.75 349.4344Q295.29688 349.52814 294.95312 349.52814Q294.375 349.52814 294.0625 349.35626Q293.75 349.16876 293.60938 348.8719Q293.48438 348.575 293.48438 347.6219L293.48438 344.04376L292.71875 344.04376L292.71875 343.23126L293.48438 343.23126L293.48438 341.6844L294.53125 341.0594L294.53125 343.23126L295.59375 343.23126L295.59375 344.04376L294.53125 344.04376L294.53125 347.6844Q294.53125 348.1375 294.57812 348.2625Q294.64062 348.3875 294.76562 348.46564Q294.89062 348.54376 295.125 348.54376Q295.3125 348.54376 295.59375 348.5125ZM296.29688 349.45L296.29688 340.85626L297.34375 340.85626L297.34375 343.9344Q298.07812 343.09064 299.20312 343.09064Q299.90625 343.09064 300.40625 343.3719Q300.92188 343.6375 301.14062 344.1219Q301.35938 344.59064 301.35938 345.5125L301.35938 349.45L300.3125 349.45L300.3125 345.5125Q300.3125 344.71564 299.96875 344.35626Q299.625 343.9969 299.0 343.9969Q298.53125 343.9969 298.10938 344.2469Q297.70312 344.48126 297.51562 344.90314Q297.34375 345.3094 297.34375 346.04376L297.34375 349.45L296.29688 349.45ZM303.28125 349.45L303.28125 343.23126L304.23438 343.23126L304.23438 344.16876Q304.59375 343.5125 304.89062 343.3094Q305.20312 343.09064 305.57812 343.09064Q306.10938 343.09064 306.65625 343.41876L306.29688 344.40314Q305.90625 344.16876 305.53125 344.16876Q305.17188 344.16876 304.89062 344.3875Q304.625 344.59064 304.51562 344.96564Q304.32812 345.52814 304.32812 346.1844L304.32812 349.45L303.28125 349.45ZM311.54688 347.45L312.64062 347.575Q312.39062 348.52814 311.6875 349.0594Q310.98438 349.59064 309.90625 349.59064Q308.54688 349.59064 307.73438 348.7469Q306.9375 347.90314 306.9375 346.3875Q306.9375 344.825 307.75 343.96564Q308.5625 343.09064 309.84375 343.09064Q311.09375 343.09064 311.875 343.9344Q312.67188 344.77814 312.67188 346.325Q312.67188 346.41876 312.67188 346.60626L308.03125 346.60626Q308.09375 347.6375 308.60938 348.1844Q309.125 348.71564 309.90625 348.71564Q310.48438 348.71564 310.89062 348.41876Q311.3125 348.10626 311.54688 347.45ZM308.09375 345.7469L311.5625 345.7469Q311.5 344.95 311.17188 344.5594Q310.65625 343.95 309.85938 343.95Q309.125 343.95 308.625 344.4344Q308.14062 344.91876 308.09375 345.7469ZM318.35938 348.6844Q317.76562 349.1844 317.21875 349.3875Q316.6875 349.59064 316.0625 349.59064Q315.03125 349.59064 314.48438 349.09064Q313.9375 348.59064 313.9375 347.8094Q313.9375 347.35626 314.14062 346.98126Q314.34375 346.59064 314.6875 346.3719Q315.03125 346.1375 315.45312 346.02814Q315.75 345.9344 316.39062 345.85626Q317.65625 345.71564 318.26562 345.4969Q318.26562 345.27814 318.26562 345.23126Q318.26562 344.575 317.96875 344.3094Q317.5625 343.96564 316.76562 343.96564Q316.03125 343.96564 315.67188 344.23126Q315.3125 344.48126 315.14062 345.1375L314.10938 344.9969Q314.25 344.34064 314.57812 343.9344Q314.90625 343.52814 315.51562 343.3094Q316.125 343.09064 316.92188 343.09064Q317.71875 343.09064 318.21875 343.27814Q318.71875 343.46564 318.95312 343.7469Q319.1875 344.02814 319.28125 344.46564Q319.32812 344.73126 319.32812 345.4344L319.32812 346.84064Q319.32812 348.3094 319.39062 348.7Q319.46875 349.09064 319.67188 349.45L318.5625 349.45Q318.40625 349.1219 318.35938 348.6844ZM318.26562 346.325Q317.6875 346.5594 316.54688 346.73126Q315.89062 346.825 315.625 346.95Q315.35938 347.0594 315.20312 347.27814Q315.0625 347.4969 315.0625 347.77814Q315.0625 348.2 315.375 348.48126Q315.70312 348.7625 316.3125 348.7625Q316.92188 348.7625 317.39062 348.4969Q317.875 348.23126 318.09375 347.7625Q318.26562 347.40314 318.26562 346.71564L318.26562 346.325ZM325.32812 349.45L325.32812 348.66876Q324.73438 349.59064 323.59375 349.59064Q322.84375 349.59064 322.21875 349.1844Q321.59375 348.7625 321.25 348.02814Q320.90625 347.29376 320.90625 346.34064Q320.90625 345.41876 321.21875 344.65314Q321.53125 343.8875 322.15625 343.4969Q322.78125 343.09064 323.54688 343.09064Q324.10938 343.09064 324.54688 343.325Q324.98438 343.5594 325.26562 343.9344L325.26562 340.85626L326.3125 340.85626L326.3125 349.45L325.32812 349.45ZM322.0 346.34064Q322.0 347.54376 322.5 348.1375Q323.0 348.71564 323.6875 348.71564Q324.375 348.71564 324.85938 348.15314Q325.34375 347.59064 325.34375 346.4344Q325.34375 345.15314 324.84375 344.5594Q324.35938 343.96564 323.64062 343.96564Q322.9375 343.96564 322.46875 344.54376Q322.0 345.10626 322.0 346.34064ZM327.875 347.59064L328.90625 347.4344Q329.0 348.0594 329.39062 348.3875Q329.79688 348.71564 330.53125 348.71564Q331.25 348.71564 331.59375 348.4344Q331.95312 348.1375 331.95312 347.73126Q331.95312 347.3719 331.64062 347.16876Q331.42188 347.02814 330.5625 346.8094Q329.40625 346.5125 328.95312 346.3094Q328.51562 346.09064 328.28125 345.71564Q328.04688 345.34064 328.04688 344.8719Q328.04688 344.46564 328.23438 344.10626Q328.42188 343.7469 328.75 343.5125Q329.0 343.34064 329.42188 343.21564Q329.84375 343.09064 330.34375 343.09064Q331.0625 343.09064 331.60938 343.3094Q332.17188 343.5125 332.4375 343.8719Q332.70312 344.23126 332.79688 344.825L331.76562 344.96564Q331.70312 344.4969 331.35938 344.23126Q331.03125 343.95 330.40625 343.95Q329.6875 343.95 329.375 344.2Q329.0625 344.4344 329.0625 344.7625Q329.0625 344.96564 329.1875 345.1219Q329.32812 345.29376 329.59375 345.40314Q329.75 345.46564 330.53125 345.66876Q331.65625 345.98126 332.09375 346.16876Q332.53125 346.35626 332.78125 346.71564Q333.03125 347.075 333.03125 347.6219Q333.03125 348.15314 332.71875 348.6219Q332.42188 349.075 331.84375 349.34064Q331.26562 349.59064 330.53125 349.59064Q329.3125 349.59064 328.67188 349.09064Q328.04688 348.575 327.875 347.59064Z" fill-rule="nonzero"/><path fill="#000000" d="M33.05 300.21564Q33.05 298.6844 33.3625 297.7625Q33.675 296.825 34.284374 296.325Q34.909374 295.825 35.846874 295.825Q36.534374 295.825 37.05 296.10626Q37.58125 296.3875 37.925 296.91876Q38.26875 297.4344 38.45625 298.1844Q38.64375 298.9344 38.64375 300.21564Q38.64375 301.73126 38.33125 302.65314Q38.034374 303.575 37.409374 304.09064Q36.8 304.59064 35.846874 304.59064Q34.6125 304.59064 33.89375 303.7Q33.05 302.6375 33.05 300.21564ZM34.128124 300.21564Q34.128124 302.325 34.628124 303.02814Q35.128124 303.73126 35.846874 303.73126Q36.58125 303.73126 37.065624 303.02814Q37.565624 302.325 37.565624 300.21564Q37.565624 298.09064 37.065624 297.40314Q36.58125 296.7 35.83125 296.7Q35.1125 296.7 34.675 297.3094Q34.128124 298.09064 34.128124 300.21564Z" fill-rule="nonzero"/><path fill="#000000" d="M33.05 249.15834L34.159374 249.06459Q34.284374 249.87709 34.721874 250.28334Q35.175 250.68959 35.815624 250.68959Q36.565624 250.68959 37.096874 250.11147Q37.628124 249.53334 37.628124 248.59584Q37.628124 247.68959 37.1125 247.17397Q36.6125 246.64272 35.784374 246.64272Q35.284374 246.64272 34.8625 246.87709Q34.45625 247.11147 34.221874 247.47084L33.2375 247.34584L34.065624 242.93959L38.346874 242.93959L38.346874 243.93959L34.909374 243.93959L34.45625 246.25209Q35.221874 245.70522 36.065624 245.70522Q37.190624 245.70522 37.95625 246.48647Q38.7375 247.26772 38.7375 248.50209Q38.7375 249.65834 38.065624 250.51772Q37.2375 251.54897 35.815624 251.54897Q34.64375 251.54897 33.89375 250.89272Q33.159374 250.23647 33.05 249.15834Z" fill-rule="nonzero"/><path fill="#000000" d="M30.01875 198.36667L28.971874 198.36667L28.971874 191.64792Q28.58125 192.0073 27.95625 192.3823Q27.346874 192.74167 26.8625 192.91354L26.8625 191.89792Q27.7375 191.47604 28.39375 190.89792Q29.065624 190.30417 29.346874 189.74167L30.01875 189.74167L30.01875 198.36667ZM33.05 194.1323Q33.05 192.60104 33.3625 191.67917Q33.675 190.74167 34.284374 190.24167Q34.909374 189.74167 35.846874 189.74167Q36.534374 189.74167 37.05 190.02292Q37.58125 190.30417 37.925 190.83542Q38.26875 191.35104 38.45625 192.10104Q38.64375 192.85104 38.64375 194.1323Q38.64375 195.64792 38.33125 196.5698Q38.034374 197.49167 37.409374 198.0073Q36.8 198.5073 35.846874 198.5073Q34.6125 198.5073 33.89375 197.61667Q33.05 196.55417 33.05 194.1323ZM34.128124 194.1323Q34.128124 196.24167 34.628124 196.9448Q35.128124 197.64792 35.846874 197.64792Q36.58125 197.64792 37.065624 196.9448Q37.565624 196.24167 37.565624 194.1323Q37.565624 192.0073 37.065624 191.3198Q36.58125 190.61667 35.83125 190.61667Q35.1125 190.61667 34.675 191.22604Q34.128124 192.0073 34.128124 194.1323Z" fill-rule="nonzero"/><path fill="#000000" d="M30.01875 145.325L28.971874 145.325L28.971874 138.60625Q28.58125 138.96562 27.95625 139.34062Q27.346874 139.7 26.8625 139.87187L26.8625 138.85625Q27.7375 138.43437 28.39375 137.85625Q29.065624 137.2625 29.346874 136.7L30.01875 136.7L30.01875 145.325ZM33.05 143.075L34.159374 142.98125Q34.284374 143.79375 34.721874 144.2Q35.175 144.60625 35.815624 144.60625Q36.565624 144.60625 37.096874 144.02812Q37.628124 143.45 37.628124 142.5125Q37.628124 141.60625 37.1125 141.09062Q36.6125 140.55937 35.784374 140.55937Q35.284374 140.55937 34.8625 140.79375Q34.45625 141.02812 34.221874 141.3875L33.2375 141.2625L34.065624 136.85625L38.346874 136.85625L38.346874 137.85625L34.909374 137.85625L34.45625 140.16875Q35.221874 139.62187 36.065624 139.62187Q37.190624 139.62187 37.95625 140.40312Q38.7375 141.18437 38.7375 142.41875Q38.7375 143.575 38.065624 144.43437Q37.2375 145.46562 35.815624 145.46562Q34.64375 145.46562 33.89375 144.80937Q33.159374 144.15312 33.05 143.075Z" fill-rule="nonzero"/><path fill="#000000" d="M31.596874 91.26771L31.596874 92.28333L25.909374 92.28333Q25.909374 91.90833 26.034374 91.54896Q26.253124 90.97083 26.721874 90.40833Q27.20625 89.84583 28.1125 89.11146Q29.51875 87.95521 30.003124 87.28333Q30.503124 86.61146 30.503124 86.01771Q30.503124 85.39271 30.05 84.97083Q29.596874 84.53333 28.878124 84.53333Q28.1125 84.53333 27.659374 84.98646Q27.20625 85.43958 27.190624 86.25208L26.1125 86.14271Q26.221874 84.92396 26.940624 84.29896Q27.675 83.65833 28.909374 83.65833Q30.14375 83.65833 30.8625 84.34583Q31.58125 85.03333 31.58125 86.04896Q31.58125 86.56458 31.3625 87.06458Q31.159374 87.54896 30.659374 88.11146Q30.175 88.65833 29.05 89.61146Q28.096874 90.40833 27.815624 90.70521Q27.55 90.98646 27.378124 91.26771L31.596874 91.26771ZM33.05 88.04896Q33.05 86.51771 33.3625 85.59583Q33.675 84.65833 34.284374 84.15833Q34.909374 83.65833 35.846874 83.65833Q36.534374 83.65833 37.05 83.93958Q37.58125 84.22083 37.925 84.75208Q38.26875 85.26771 38.45625 86.01771Q38.64375 86.76771 38.64375 88.04896Q38.64375 89.56458 38.33125 90.48646Q38.034374 91.40833 37.409374 91.92396Q36.8 92.42396 35.846874 92.42396Q34.6125 92.42396 33.89375 91.53333Q33.05 90.47083 33.05 88.04896ZM34.128124 88.04896Q34.128124 90.15833 34.628124 90.86146Q35.128124 91.56458 35.846874 91.56458Q36.58125 91.56458 37.065624 90.86146Q37.565624 90.15833 37.565624 88.04896Q37.565624 85.92396 37.065624 85.23646Q36.58125 84.53333 35.83125 84.53333Q35.1125 84.53333 34.675 85.14271Q34.128124 85.92396 34.128124 88.04896Z" fill-rule="nonzero"/><path fill="#000000" d="M42.55 313.21564Q42.55 311.6844 42.8625 310.7625Q43.175 309.825 43.784374 309.325Q44.409374 308.825 45.346874 308.825Q46.034374 308.825 46.55 309.10626Q47.08125 309.3875 47.425 309.91876Q47.76875 310.4344 47.95625 311.1844Q48.14375 311.9344 48.14375 313.21564Q48.14375 314.73126 47.83125 315.65314Q47.534374 316.575 46.909374 317.09064Q46.3 317.59064 45.346874 317.59064Q44.1125 317.59064 43.39375 316.7Q42.55 315.6375 42.55 313.21564ZM43.628124 313.21564Q43.628124 315.325 44.128124 316.02814Q44.628124 316.73126 45.346874 316.73126Q46.08125 316.73126 46.565624 316.02814Q47.065624 315.325 47.065624 313.21564Q47.065624 311.09064 46.565624 310.40314Q46.08125 309.7 45.33125 309.7Q44.6125 309.7 44.175 310.3094Q43.628124 311.09064 43.628124 313.21564Z" fill-rule="nonzero"/><path fill="#000000" d="M173.72607 317.45L172.6792 317.45L172.6792 310.73126Q172.28857 311.09064 171.66357 311.46564Q171.0542 311.825 170.56982 311.9969L170.56982 310.98126Q171.44482 310.5594 172.10107 309.98126Q172.77295 309.3875 173.0542 308.825L173.72607 308.825L173.72607 317.45ZM176.75732 313.21564Q176.75732 311.6844 177.06982 310.7625Q177.38232 309.825 177.9917 309.325Q178.6167 308.825 179.5542 308.825Q180.2417 308.825 180.75732 309.10626Q181.28857 309.3875 181.63232 309.91876Q181.97607 310.4344 182.16357 311.1844Q182.35107 311.9344 182.35107 313.21564Q182.35107 314.73126 182.03857 315.65314Q181.7417 316.575 181.1167 317.09064Q180.50732 317.59064 179.5542 317.59064Q178.31982 317.59064 177.60107 316.7Q176.75732 315.6375 176.75732 313.21564ZM177.83545 313.21564Q177.83545 315.325 178.33545 316.02814Q178.83545 316.73126 179.5542 316.73126Q180.28857 316.73126 180.77295 316.02814Q181.27295 315.325 181.27295 313.21564Q181.27295 311.09064 180.77295 310.40314Q180.28857 309.7 179.53857 309.7Q178.81982 309.7 178.38232 310.3094Q177.83545 311.09064 177.83545 313.21564Z" fill-rule="nonzero"/><path fill="#000000" d="M306.0115 316.4344L306.0115 317.45L300.324 317.45Q300.324 317.075 300.449 316.71564Q300.66776 316.1375 301.1365 315.575Q301.62088 315.0125 302.52713 314.27814Q303.93338 313.1219 304.41776 312.45Q304.91776 311.77814 304.91776 311.1844Q304.91776 310.5594 304.46463 310.1375Q304.0115 309.7 303.29276 309.7Q302.52713 309.7 302.074 310.15314Q301.62088 310.60626 301.60526 311.41876L300.52713 311.3094Q300.6365 310.09064 301.35526 309.46564Q302.08963 308.825 303.324 308.825Q304.55838 308.825 305.27713 309.5125Q305.99588 310.2 305.99588 311.21564Q305.99588 311.73126 305.77713 312.23126Q305.574 312.71564 305.074 313.27814Q304.58963 313.825 303.46463 314.77814Q302.5115 315.575 302.23026 315.8719Q301.96463 316.15314 301.79276 316.4344L306.0115 316.4344ZM307.46463 313.21564Q307.46463 311.6844 307.77713 310.7625Q308.08963 309.825 308.699 309.325Q309.324 308.825 310.2615 308.825Q310.949 308.825 311.46463 309.10626Q311.99588 309.3875 312.33963 309.91876Q312.68338 310.4344 312.87088 311.1844Q313.05838 311.9344 313.05838 313.21564Q313.05838 314.73126 312.74588 315.65314Q312.449 316.575 311.824 317.09064Q311.21463 317.59064 310.2615 317.59064Q309.02713 317.59064 308.30838 316.7Q307.46463 315.6375 307.46463 313.21564ZM308.54276 313.21564Q308.54276 315.325 309.04276 316.02814Q309.54276 316.73126 310.2615 316.73126Q310.99588 316.73126 311.48026 316.02814Q311.98026 315.325 311.98026 313.21564Q311.98026 311.09064 311.48026 310.40314Q310.99588 309.7 310.24588 309.7Q309.52713 309.7 309.08963 310.3094Q308.54276 311.09064 308.54276 313.21564Z" fill-rule="nonzero"/><path fill="#000000" d="M431.17194 315.1844L432.23444 315.04376Q432.4063 315.9344 432.8438 316.34064Q433.2813 316.73126 433.9063 316.73126Q434.6563 316.73126 435.17194 316.21564Q435.68756 315.7 435.68756 314.9344Q435.68756 314.21564 435.2032 313.7469Q434.73444 313.2625 434.00006 313.2625Q433.7032 313.2625 433.25006 313.3875L433.37506 312.45Q433.48444 312.46564 433.54694 312.46564Q434.2188 312.46564 434.75006 312.1219Q435.29694 311.7625 435.29694 311.02814Q435.29694 310.45 434.9063 310.075Q434.5157 309.6844 433.8907 309.6844Q433.2813 309.6844 432.85944 310.075Q432.4532 310.46564 432.3438 311.23126L431.2813 311.04376Q431.4688 309.9969 432.1563 309.41876Q432.8438 308.825 433.85944 308.825Q434.56256 308.825 435.1563 309.1375Q435.75006 309.4344 436.06256 309.95Q436.37506 310.46564 436.37506 311.0594Q436.37506 311.60626 436.0782 312.075Q435.7813 312.52814 435.2032 312.79376Q435.9532 312.96564 436.37506 313.52814Q436.79694 314.075 436.79694 314.91876Q436.79694 316.04376 435.9688 316.825Q435.1563 317.60626 433.9063 317.60626Q432.7813 317.60626 432.0313 316.9344Q431.2813 316.2469 431.17194 315.1844ZM438.17194 313.21564Q438.17194 311.6844 438.48444 310.7625Q438.79694 309.825 439.4063 309.325Q440.0313 308.825 440.9688 308.825Q441.6563 308.825 442.17194 309.10626Q442.7032 309.3875 443.04694 309.91876Q443.3907 310.4344 443.5782 311.1844Q443.7657 311.9344 443.7657 313.21564Q443.7657 314.73126 443.4532 315.65314Q443.1563 316.575 442.5313 317.09064Q441.92194 317.59064 440.9688 317.59064Q439.73444 317.59064 439.0157 316.7Q438.17194 315.6375 438.17194 313.21564ZM439.25006 313.21564Q439.25006 315.325 439.75006 316.02814Q440.25006 316.73126 440.9688 316.73126Q441.7032 316.73126 442.18756 316.02814Q442.68756 315.325 442.68756 313.21564Q442.68756 311.09064 442.18756 310.40314Q441.7032 309.7 440.9532 309.7Q440.23444 309.7 439.79694 310.3094Q439.25006 311.09064 439.25006 313.21564Z" fill-rule="nonzero"/><path fill="#000000" d="M565.2543 317.45L565.2543 315.3875L561.5355 315.3875L561.5355 314.41876L565.4574 308.85626L566.3168 308.85626L566.3168 314.41876L567.473 314.41876L567.473 315.3875L566.3168 315.3875L566.3168 317.45L565.2543 317.45ZM565.2543 314.41876L565.2543 310.5594L562.5668 314.41876L565.2543 314.41876ZM568.8793 313.21564Q568.8793 311.6844 569.1918 310.7625Q569.5043 309.825 570.11365 309.325Q570.73865 308.825 571.67615 308.825Q572.36365 308.825 572.8793 309.10626Q573.4105 309.3875 573.7543 309.91876Q574.098 310.4344 574.2855 311.1844Q574.473 311.9344 574.473 313.21564Q574.473 314.73126 574.1605 315.65314Q573.86365 316.575 573.23865 317.09064Q572.6293 317.59064 571.67615 317.59064Q570.4418 317.59064 569.723 316.7Q568.8793 315.6375 568.8793 313.21564ZM569.9574 313.21564Q569.9574 315.325 570.4574 316.02814Q570.9574 316.73126 571.67615 316.73126Q572.4105 316.73126 572.8949 316.02814Q573.3949 315.325 573.3949 313.21564Q573.3949 311.09064 572.8949 310.40314Q572.4105 309.7 571.6605 309.7Q570.9418 309.7 570.5043 310.3094Q569.9574 311.09064 569.9574 313.21564Z" fill-rule="nonzero"/><path stroke="#4285f4" stroke-width="4.0" stroke-linecap="butt" d="M222.0 61.916668L234.0 61.916668" fill-rule="nonzero"/><path fill="#1a1a1a" d="M242.375 64.05729L243.40625 63.90104Q243.5 64.52604 243.89062 64.854164Q244.29688 65.18229 245.03125 65.18229Q245.75 65.18229 246.09375 64.90104Q246.45312 64.604164 246.45312 64.197914Q246.45312 63.83854 246.14062 63.635414Q245.92188 63.49479 245.0625 63.27604Q243.90625 62.979164 243.45312 62.77604Q243.01562 62.55729 242.78125 62.18229Q242.54688 61.80729 242.54688 61.33854Q242.54688 60.93229 242.73438 60.572914Q242.92188 60.21354 243.25 59.979164Q243.5 59.80729 243.92188 59.68229Q244.34375 59.55729 244.84375 59.55729Q245.5625 59.55729 246.10938 59.77604Q246.67188 59.979164 246.9375 60.33854Q247.20312 60.697914 247.29688 61.291664L246.26562 61.43229Q246.20312 60.96354 245.85938 60.697914Q245.53125 60.416664 244.90625 60.416664Q244.1875 60.416664 243.875 60.666664Q243.5625 60.90104 243.5625 61.229164Q243.5625 61.43229 243.6875 61.58854Q243.82812 61.760414 244.09375 61.86979Q244.25 61.93229 245.03125 62.135414Q246.15625 62.447914 246.59375 62.635414Q247.03125 62.822914 247.28125 63.18229Q247.53125 63.541664 247.53125 64.08854Q247.53125 64.61979 247.21875 65.08854Q246.92188 65.541664 246.34375 65.80729Q245.76562 66.05729 245.03125 66.05729Q243.8125 66.05729 243.17188 65.55729Q242.54688 65.041664 242.375 64.05729ZM249.79688 68.30729L249.79688 59.697914L250.75 59.697914L250.75 60.49479Q251.09375 60.02604 251.51562 59.791664Q251.95312 59.55729 252.5625 59.55729Q253.35938 59.55729 253.96875 59.96354Q254.57812 60.36979 254.875 61.11979Q255.1875 61.86979 255.1875 62.760414Q255.1875 63.71354 254.84375 64.479164Q254.51562 65.24479 253.85938 65.65104Q253.20312 66.05729 252.48438 66.05729Q251.95312 66.05729 251.53125 65.83854Q251.10938 65.604164 250.84375 65.27604L250.84375 68.30729L249.79688 68.30729ZM250.75 62.83854Q250.75 64.041664 251.23438 64.61979Q251.71875 65.18229 252.40625 65.18229Q253.10938 65.18229 253.60938 64.58854Q254.10938 63.99479 254.10938 62.74479Q254.10938 61.55729 253.625 60.979164Q253.14062 60.385414 252.45312 60.385414Q251.78125 60.385414 251.26562 61.010414Q250.75 61.635414 250.75 62.83854ZM261.04688 63.916664L262.14062 64.041664Q261.89062 64.99479 261.1875 65.52604Q260.48438 66.05729 259.40625 66.05729Q258.04688 66.05729 257.23438 65.21354Q256.4375 64.36979 256.4375 62.854164Q256.4375 61.291664 257.25 60.43229Q258.0625 59.55729 259.34375 59.55729Q260.59375 59.55729 261.375 60.40104Q262.17188 61.24479 262.17188 62.791664Q262.17188 62.885414 262.17188 63.072914L257.53125 63.072914Q257.59375 64.104164 258.10938 64.65104Q258.625 65.18229 259.40625 65.18229Q259.98438 65.18229 260.39062 64.885414Q260.8125 64.572914 261.04688 63.916664ZM257.59375 62.21354L261.0625 62.21354Q261.0 61.416664 260.67188 61.02604Q260.15625 60.416664 259.35938 60.416664Q258.625 60.416664 258.125 60.90104Q257.64062 61.385414 257.59375 62.21354ZM268.04688 63.916664L269.14062 64.041664Q268.89062 64.99479 268.1875 65.52604Q267.48438 66.05729 266.40625 66.05729Q265.04688 66.05729 264.23438 65.21354Q263.4375 64.36979 263.4375 62.854164Q263.4375 61.291664 264.25 60.43229Q265.0625 59.55729 266.34375 59.55729Q267.59375 59.55729 268.375 60.40104Q269.17188 61.24479 269.17188 62.791664Q269.17188 62.885414 269.17188 63.072914L264.53125 63.072914Q264.59375 64.104164 265.10938 64.65104Q265.625 65.18229 266.40625 65.18229Q266.98438 65.18229 267.39062 64.885414Q267.8125 64.572914 268.04688 63.916664ZM264.59375 62.21354L268.0625 62.21354Q268.0 61.416664 267.67188 61.02604Q267.15625 60.416664 266.35938 60.416664Q265.625 60.416664 265.125 60.90104Q264.64062 61.385414 264.59375 62.21354ZM274.82812 65.916664L274.82812 65.135414Q274.23438 66.05729 273.09375 66.05729Q272.34375 66.05729 271.71875 65.65104Q271.09375 65.229164 270.75 64.49479Q270.40625 63.760414 270.40625 62.80729Q270.40625 61.885414 270.71875 61.11979Q271.03125 60.354164 271.65625 59.96354Q272.28125 59.55729 273.04688 59.55729Q273.60938 59.55729 274.04688 59.791664Q274.48438 60.02604 274.76562 60.40104L274.76562 57.322914L275.8125 57.322914L275.8125 65.916664L274.82812 65.916664ZM271.5 62.80729Q271.5 64.010414 272.0 64.604164Q272.5 65.18229 273.1875 65.18229Q273.875 65.18229 274.35938 64.61979Q274.84375 64.05729 274.84375 62.90104Q274.84375 61.61979 274.34375 61.02604Q273.85938 60.43229 273.14062 60.43229Q272.4375 60.43229 271.96875 61.010414Q271.5 61.572914 271.5 62.80729ZM281.875 65.916664L281.875 64.99479Q281.14062 66.05729 279.89062 66.05729Q279.34375 66.05729 278.85938 65.854164Q278.39062 65.635414 278.15625 65.322914Q277.92188 64.99479 277.82812 64.52604Q277.76562 64.229164 277.76562 63.541664L277.76562 59.697914L278.82812 59.697914L278.82812 63.15104Q278.82812 63.96354 278.89062 64.260414Q278.98438 64.666664 279.29688 64.916664Q279.625 65.15104 280.10938 65.15104Q280.57812 65.15104 280.98438 64.916664Q281.40625 64.666664 281.57812 64.24479Q281.76562 63.822914 281.76562 63.02604L281.76562 59.697914L282.8125 59.697914L282.8125 65.916664L281.875 65.916664ZM284.79688 68.30729L284.79688 59.697914L285.75 59.697914L285.75 60.49479Q286.09375 60.02604 286.51562 59.791664Q286.95312 59.55729 287.5625 59.55729Q288.35938 59.55729 288.96875 59.96354Q289.57812 60.36979 289.875 61.11979Q290.1875 61.86979 290.1875 62.760414Q290.1875 63.71354 289.84375 64.479164Q289.51562 65.24479 288.85938 65.65104Q288.20312 66.05729 287.48438 66.05729Q286.95312 66.05729 286.53125 65.83854Q286.10938 65.604164 285.84375 65.27604L285.84375 68.30729L284.79688 68.30729ZM285.75 62.83854Q285.75 64.041664 286.23438 64.61979Q286.71875 65.18229 287.40625 65.18229Q288.10938 65.18229 288.60938 64.58854Q289.10938 63.99479 289.10938 62.74479Q289.10938 61.55729 288.625 60.979164Q288.14062 60.385414 287.45312 60.385414Q286.78125 60.385414 286.26562 61.010414Q285.75 61.635414 285.75 62.83854Z" fill-rule="nonzero"/><path stroke="#ea4335" stroke-width="4.0" stroke-linecap="butt" d="M307.0 61.916668L319.0 61.916668" fill-rule="nonzero"/><path fill="#1a1a1a" d="M327.95312 65.916664L327.95312 57.322914L334.15625 57.322914L334.15625 58.33854L329.09375 58.33854L329.09375 60.96354L333.84375 60.96354L333.84375 61.979164L329.09375 61.979164L329.09375 64.90104L334.35938 64.90104L334.35938 65.916664L327.95312 65.916664ZM336.04688 65.916664L336.04688 60.510414L335.10938 60.510414L335.10938 59.697914L336.04688 59.697914L336.04688 59.02604Q336.04688 58.40104 336.15625 58.104164Q336.3125 57.68229 336.6875 57.43229Q337.07812 57.18229 337.76562 57.18229Q338.21875 57.18229 338.75 57.291664L338.59375 58.197914Q338.26562 58.15104 337.96875 58.15104Q337.48438 58.15104 337.28125 58.354164Q337.09375 58.55729 337.09375 59.11979L337.09375 59.697914L338.3125 59.697914L338.3125 60.510414L337.09375 60.510414L337.09375 65.916664L336.04688 65.916664ZM339.04688 65.916664L339.04688 60.510414L338.10938 60.510414L338.10938 59.697914L339.04688 59.697914L339.04688 59.02604Q339.04688 58.40104 339.15625 58.104164Q339.3125 57.68229 339.6875 57.43229Q340.07812 57.18229 340.76562 57.18229Q341.21875 57.18229 341.75 57.291664L341.59375 58.197914Q341.26562 58.15104 340.96875 58.15104Q340.48438 58.15104 340.28125 58.354164Q340.09375 58.55729 340.09375 59.11979L340.09375 59.697914L341.3125 59.697914L341.3125 60.510414L340.09375 60.510414L340.09375 65.916664L339.04688 65.916664ZM341.79688 58.541664L341.79688 57.322914L342.85938 57.322914L342.85938 58.541664L341.79688 58.541664ZM341.79688 65.916664L341.79688 59.697914L342.85938 59.697914L342.85938 65.916664L341.79688 65.916664ZM348.85938 63.635414L349.89062 63.77604Q349.71875 64.83854 349.01562 65.447914Q348.3125 66.05729 347.29688 66.05729Q346.01562 66.05729 345.23438 65.229164Q344.46875 64.385414 344.46875 62.822914Q344.46875 61.822914 344.79688 61.072914Q345.14062 60.30729 345.8125 59.93229Q346.5 59.55729 347.3125 59.55729Q348.3125 59.55729 348.95312 60.072914Q349.60938 60.572914 349.79688 61.52604L348.76562 61.68229Q348.625 61.05729 348.25 60.74479Q347.875 60.416664 347.34375 60.416664Q346.54688 60.416664 346.04688 60.99479Q345.54688 61.55729 345.54688 62.791664Q345.54688 64.05729 346.03125 64.61979Q346.51562 65.18229 347.28125 65.18229Q347.90625 65.18229 348.3125 64.80729Q348.73438 64.43229 348.85938 63.635414ZM350.79688 58.541664L350.79688 57.322914L351.85938 57.322914L351.85938 58.541664L350.79688 58.541664ZM350.79688 65.916664L350.79688 59.697914L351.85938 59.697914L351.85938 65.916664L350.79688 65.916664ZM358.04688 63.916664L359.14062 64.041664Q358.89062 64.99479 358.1875 65.52604Q357.48438 66.05729 356.40625 66.05729Q355.04688 66.05729 354.23438 65.21354Q353.4375 64.36979 353.4375 62.854164Q353.4375 61.291664 354.25 60.43229Q355.0625 59.55729 356.34375 59.55729Q357.59375 59.55729 358.375 60.40104Q359.17188 61.24479 359.17188 62.791664Q359.17188 62.885414 359.17188 63.072914L354.53125 63.072914Q354.59375 64.104164 355.10938 64.65104Q355.625 65.18229 356.40625 65.18229Q356.98438 65.18229 357.39062 64.885414Q357.8125 64.572914 358.04688 63.916664ZM354.59375 62.21354L358.0625 62.21354Q358.0 61.416664 357.67188 61.02604Q357.15625 60.416664 356.35938 60.416664Q355.625 60.416664 355.125 60.90104Q354.64062 61.385414 354.59375 62.21354ZM360.79688 65.916664L360.79688 59.697914L361.73438 59.697914L361.73438 60.572914Q362.42188 59.55729 363.71875 59.55729Q364.28125 59.55729 364.75 59.760414Q365.23438 59.96354 365.46875 60.291664Q365.70312 60.61979 365.79688 61.05729Q365.84375 61.354164 365.84375 62.08854L365.84375 65.916664L364.79688 65.916664L364.79688 62.135414Q364.79688 61.479164 364.67188 61.166664Q364.54688 60.854164 364.23438 60.666664Q363.92188 60.46354 363.5 60.46354Q362.82812 60.46354 362.32812 60.90104Q361.84375 61.322914 361.84375 62.510414L361.84375 65.916664L360.79688 65.916664ZM371.85938 63.635414L372.89062 63.77604Q372.71875 64.83854 372.01562 65.447914Q371.3125 66.05729 370.29688 66.05729Q369.01562 66.05729 368.23438 65.229164Q367.46875 64.385414 367.46875 62.822914Q367.46875 61.822914 367.79688 61.072914Q368.14062 60.30729 368.8125 59.93229Q369.5 59.55729 370.3125 59.55729Q371.3125 59.55729 371.95312 60.072914Q372.60938 60.572914 372.79688 61.52604L371.76562 61.68229Q371.625 61.05729 371.25 60.74479Q370.875 60.416664 370.34375 60.416664Q369.54688 60.416664 369.04688 60.99479Q368.54688 61.55729 368.54688 62.791664Q368.54688 64.05729 369.03125 64.61979Q369.51562 65.18229 370.28125 65.18229Q370.90625 65.18229 371.3125 64.80729Q371.73438 64.43229 371.85938 63.635414ZM373.75 68.30729L373.625 67.322914Q373.96875 67.416664 374.23438 67.416664Q374.57812 67.416664 374.78125 67.291664Q375.0 67.18229 375.14062 66.979164Q375.23438 66.80729 375.46875 66.18229Q375.48438 66.104164 375.5625 65.93229L373.1875 59.697914L374.32812 59.697914L375.625 63.291664Q375.875 63.979164 376.07812 64.74479Q376.26562 64.010414 376.51562 63.322914L377.84375 59.697914L378.89062 59.697914L376.53125 66.02604Q376.14062 67.041664 375.9375 67.43229Q375.65625 67.96354 375.28125 68.197914Q374.92188 68.447914 374.42188 68.447914Q374.125 68.447914 373.75 68.30729Z" fill-rule="nonzero"/><path fill="#757575" d="M20.01875 37.55L20.01875 23.2375L21.909374 23.2375L21.909374 35.8625L28.95625 35.8625L28.95625 37.55L20.01875 37.55ZM37.64375 36.26875Q36.659374 37.096874 35.753124 37.440624Q34.846874 37.784374 33.815624 37.784374Q32.1125 37.784374 31.190624 36.95625Q30.26875 36.1125 30.26875 34.815624Q30.26875 34.05 30.6125 33.425Q30.971874 32.8 31.534374 32.425Q32.096874 32.034374 32.8 31.83125Q33.315624 31.70625 34.3625 31.565624Q36.4875 31.315624 37.4875 30.971874Q37.503124 30.6125 37.503124 30.503124Q37.503124 29.440624 37.003124 28.9875Q36.33125 28.39375 35.003124 28.39375Q33.753124 28.39375 33.159374 28.83125Q32.58125 29.26875 32.3 30.378124L30.58125 30.14375Q30.815624 29.034374 31.346874 28.3625Q31.878124 27.675 32.89375 27.315624Q33.909374 26.940624 35.253124 26.940624Q36.58125 26.940624 37.409374 27.253124Q38.2375 27.565624 38.628124 28.05Q39.01875 28.51875 39.175 29.2375Q39.26875 29.690624 39.26875 30.8625L39.26875 33.20625Q39.26875 35.659374 39.378124 36.315624Q39.4875 36.95625 39.83125 37.55L37.9875 37.55Q37.721874 37.003124 37.64375 36.26875ZM37.4875 32.346874Q36.534374 32.7375 34.6125 33.003124Q33.534374 33.159374 33.08125 33.3625Q32.64375 33.55 32.39375 33.925Q32.14375 34.3 32.14375 34.76875Q32.14375 35.471874 32.675 35.940624Q33.20625 36.409374 34.2375 36.409374Q35.253124 36.409374 36.034374 35.971874Q36.83125 35.51875 37.20625 34.753124Q37.4875 34.14375 37.4875 32.9875L37.4875 32.346874ZM41.8625 41.51875L41.8625 27.175L43.471874 27.175L43.471874 28.51875Q44.034374 27.7375 44.7375 27.346874Q45.45625 26.940624 46.471874 26.940624Q47.8 26.940624 48.815624 27.628124Q49.83125 28.315624 50.346874 29.565624Q50.878124 30.8 50.878124 32.284374Q50.878124 33.878124 50.3 35.159374Q49.7375 36.425 48.64375 37.1125Q47.55 37.784374 46.346874 37.784374Q45.471874 37.784374 44.76875 37.409374Q44.08125 37.034374 43.628124 36.471874L43.628124 41.51875L41.8625 41.51875ZM43.45625 32.425Q43.45625 34.425 44.26875 35.378124Q45.08125 36.33125 46.2375 36.33125Q47.409374 36.33125 48.2375 35.346874Q49.08125 34.3625 49.08125 32.26875Q49.08125 30.3 48.253124 29.315624Q47.440624 28.315624 46.315624 28.315624Q45.190624 28.315624 44.315624 29.378124Q43.45625 30.425 43.45625 32.425ZM52.83125 37.55L52.83125 23.2375L54.58125 23.2375L54.58125 37.55L52.83125 37.55ZM63.64375 36.26875Q62.659374 37.096874 61.753124 37.440624Q60.846874 37.784374 59.815624 37.784374Q58.1125 37.784374 57.190624 36.95625Q56.26875 36.1125 56.26875 34.815624Q56.26875 34.05 56.6125 33.425Q56.971874 32.8 57.534374 32.425Q58.096874 32.034374 58.8 31.83125Q59.315624 31.70625 60.3625 31.565624Q62.4875 31.315624 63.4875 30.971874Q63.503124 30.6125 63.503124 30.503124Q63.503124 29.440624 63.003124 28.9875Q62.33125 28.39375 61.003124 28.39375Q59.753124 28.39375 59.159374 28.83125Q58.58125 29.26875 58.3 30.378124L56.58125 30.14375Q56.815624 29.034374 57.346874 28.3625Q57.878124 27.675 58.89375 27.315624Q59.909374 26.940624 61.253124 26.940624Q62.58125 26.940624 63.409374 27.253124Q64.2375 27.565624 64.62813 28.05Q65.01875 28.51875 65.175 29.2375Q65.26875 29.690624 65.26875 30.8625L65.26875 33.20625Q65.26875 35.659374 65.37813 36.315624Q65.4875 36.95625 65.83125 37.55L63.9875 37.55Q63.721874 37.003124 63.64375 36.26875ZM63.4875 32.346874Q62.534374 32.7375 60.6125 33.003124Q59.534374 33.159374 59.08125 33.3625Q58.64375 33.55 58.39375 33.925Q58.14375 34.3 58.14375 34.76875Q58.14375 35.471874 58.675 35.940624Q59.20625 36.409374 60.2375 36.409374Q61.253124 36.409374 62.034374 35.971874Q62.83125 35.51875 63.20625 34.753124Q63.4875 34.14375 63.4875 32.9875L63.4875 32.346874ZM74.64375 33.753124L76.3625 33.971874Q76.08125 35.76875 74.90938 36.784374Q73.75313 37.784374 72.05 37.784374Q69.925 37.784374 68.62813 36.39375Q67.33125 35.003124 67.33125 32.409374Q67.33125 30.721874 67.87813 29.471874Q68.44063 28.20625 69.58125 27.58125Q70.72188 26.940624 72.06563 26.940624Q73.75313 26.940624 74.81563 27.8Q75.89375 28.659374 76.20625 30.221874L74.4875 30.4875Q74.25313 29.440624 73.62813 28.925Q73.00313 28.39375 72.12813 28.39375Q70.8 28.39375 69.97188 29.346874Q69.14375 30.3 69.14375 32.346874Q69.14375 34.440624 69.94063 35.39375Q70.7375 36.33125 72.03438 36.33125Q73.06563 36.33125 73.75313 35.70625Q74.45625 35.065624 74.64375 33.753124ZM84.97188 34.20625L86.78438 34.440624Q86.3625 36.01875 85.19063 36.909374Q84.03438 37.784374 82.22188 37.784374Q79.95625 37.784374 78.6125 36.39375Q77.28438 34.9875 77.28438 32.45625Q77.28438 29.83125 78.62813 28.39375Q79.97188 26.940624 82.12813 26.940624Q84.20625 26.940624 85.51875 28.3625Q86.84688 29.76875 86.84688 32.346874Q86.84688 32.503124 86.83125 32.815624L79.09688 32.815624Q79.19063 34.51875 80.06563 35.425Q80.94063 36.33125 82.2375 36.33125Q83.20625 36.33125 83.87813 35.83125Q84.56563 35.315624 84.97188 34.20625ZM79.19063 31.3625L84.9875 31.3625Q84.87813 30.065624 84.33125 29.409374Q83.4875 28.39375 82.14375 28.39375Q80.94063 28.39375 80.1125 29.20625Q79.28438 30.003124 79.19063 31.3625ZM94.51875 30.58125Q94.51875 27.01875 96.425 25.003124Q98.34688 22.971874 101.37813 22.971874Q103.3625 22.971874 104.94063 23.925Q106.53438 24.878124 107.3625 26.58125Q108.20625 28.26875 108.20625 30.409374Q108.20625 32.58125 107.33125 34.3Q106.45625 36.01875 104.83125 36.909374Q103.22188 37.8 101.3625 37.8Q99.34688 37.8 97.75313 36.83125Q96.15938 35.846874 95.33125 34.159374Q94.51875 32.45625 94.51875 30.58125ZM96.47188 30.6125Q96.47188 33.190624 97.8625 34.690624Q99.25313 36.175 101.34688 36.175Q103.4875 36.175 104.8625 34.675Q106.25313 33.159374 106.25313 30.39375Q106.25313 28.659374 105.65938 27.3625Q105.08125 26.05 103.94063 25.33125Q102.8 24.6125 101.37813 24.6125Q99.37813 24.6125 97.925 26.003124Q96.47188 27.378124 96.47188 30.6125ZM110.8625 41.51875L110.8625 27.175L112.47188 27.175L112.47188 28.51875Q113.03438 27.7375 113.7375 27.346874Q114.45625 26.940624 115.47188 26.940624Q116.8 26.940624 117.81563 27.628124Q118.83125 28.315624 119.34688 29.565624Q119.87813 30.8 119.87813 32.284374Q119.87813 33.878124 119.3 35.159374Q118.7375 36.425 117.64375 37.1125Q116.55 37.784374 115.34688 37.784374Q114.47188 37.784374 113.76875 37.409374Q113.08125 37.034374 112.62813 36.471874L112.62813 41.51875L110.8625 41.51875ZM112.45625 32.425Q112.45625 34.425 113.26875 35.378124Q114.08125 36.33125 115.2375 36.33125Q116.40938 36.33125 117.2375 35.346874Q118.08125 34.3625 118.08125 32.26875Q118.08125 30.3 117.25313 29.315624Q116.44063 28.315624 115.31563 28.315624Q114.19063 28.315624 113.31563 29.378124Q112.45625 30.425 112.45625 32.425ZM128.97188 34.20625L130.78438 34.440624Q130.3625 36.01875 129.19063 36.909374Q128.03438 37.784374 126.22188 37.784374Q123.95625 37.784374 122.6125 36.39375Q121.28438 34.9875 121.28438 32.45625Q121.28438 29.83125 122.62813 28.39375Q123.97188 26.940624 126.12813 26.940624Q128.20625 26.940624 129.51875 28.3625Q130.84688 29.76875 130.84688 32.346874Q130.84688 32.503124 130.83125 32.815624L123.09688 32.815624Q123.19063 34.51875 124.06563 35.425Q124.94063 36.33125 126.2375 36.33125Q127.20625 36.33125 127.87813 35.83125Q128.56563 35.315624 128.97188 34.20625ZM123.19063 31.3625L128.9875 31.3625Q128.87813 30.065624 128.33125 29.409374Q127.4875 28.39375 126.14375 28.39375Q124.94063 28.39375 124.1125 29.20625Q123.28438 30.003124 123.19063 31.3625ZM132.8625 37.55L132.8625 27.175L134.45625 27.175L134.45625 28.659374Q135.59688 26.940624 137.75313 26.940624Q138.69063 26.940624 139.47188 27.284374Q140.26875 27.6125 140.65938 28.159374Q141.05 28.70625 141.20625 29.45625Q141.3 29.95625 141.3 31.175L141.3 37.55L139.53438 37.55L139.53438 31.2375Q139.53438 30.159374 139.33125 29.628124Q139.12813 29.096874 138.59688 28.784374Q138.08125 28.471874 137.37813 28.471874Q136.25313 28.471874 135.44063 29.190624Q134.62813 29.89375 134.62813 31.878124L134.62813 37.55L132.8625 37.55ZM143.03438 37.55L143.03438 23.2375L145.89375 23.2375L149.26875 33.3625Q149.7375 34.784374 149.95625 35.4875Q150.20625 34.70625 150.72188 33.190624L154.14375 23.2375L156.69063 23.2375L156.69063 37.55L154.87813 37.55L154.87813 25.565624L150.70625 37.55L149.00313 37.55L144.8625 25.3625L144.8625 37.55L143.03438 37.55ZM160.09688 37.55L160.09688 23.2375L165.4875 23.2375Q166.925 23.2375 167.675 23.3625Q168.72188 23.55 169.44063 24.05Q170.15938 24.534374 170.58125 25.425Q171.01875 26.315624 171.01875 27.378124Q171.01875 29.20625 169.84688 30.471874Q168.69063 31.721874 165.65938 31.721874L161.9875 31.721874L161.9875 37.55L160.09688 37.55ZM161.9875 30.034374L165.69063 30.034374Q167.51875 30.034374 168.28438 29.3625Q169.06563 28.675 169.06563 27.425Q169.06563 26.534374 168.6125 25.89375Q168.15938 25.253124 167.425 25.05Q166.94063 24.925 165.64375 24.925L161.9875 24.925L161.9875 30.034374ZM188.89375 35.95625Q188.25313 36.690624 187.45625 37.14375Q186.675 37.58125 185.89375 37.58125Q185.01875 37.58125 184.19063 37.08125Q183.37813 36.565624 182.8625 35.51875Q182.3625 34.45625 182.3625 33.190624Q182.3625 31.64375 183.14375 30.08125Q183.94063 28.51875 185.12813 27.7375Q186.31563 26.95625 187.425 26.95625Q188.26875 26.95625 189.03438 27.409374Q189.81563 27.846874 190.37813 28.753124L190.70625 27.253124L192.45625 27.253124L191.05 33.8Q190.75313 35.159374 190.75313 35.315624Q190.75313 35.58125 190.95625 35.76875Q191.15938 35.95625 191.44063 35.95625Q191.95625 35.95625 192.8 35.3625Q193.90938 34.58125 194.55 33.26875Q195.20625 31.95625 195.20625 30.55Q195.20625 28.925 194.3625 27.51875Q193.53438 26.096874 191.87813 25.253124Q190.22188 24.39375 188.22188 24.39375Q185.94063 24.39375 184.05 25.471874Q182.15938 26.534374 181.1125 28.534374Q180.08125 30.534374 180.08125 32.815624Q180.08125 35.20625 181.1125 36.940624Q182.15938 38.659374 184.12813 39.4875Q186.09688 40.315624 188.4875 40.315624Q191.05 40.315624 192.76875 39.45625Q194.50313 38.596874 195.3625 37.3625L197.12813 37.3625Q196.62813 38.39375 195.40938 39.45625Q194.20625 40.51875 192.53438 41.128124Q190.87813 41.753124 188.51875 41.753124Q186.34688 41.753124 184.51875 41.190624Q182.69063 40.64375 181.39375 39.51875Q180.1125 38.409374 179.45625 36.95625Q178.62813 35.1125 178.62813 32.971874Q178.62813 30.58125 179.6125 28.425Q180.8 25.784374 182.9875 24.378124Q185.19063 22.971874 188.31563 22.971874Q190.7375 22.971874 192.65938 23.971874Q194.59688 24.95625 195.70625 26.909374Q196.65938 28.596874 196.65938 30.58125Q196.65938 33.425 194.65938 35.6125Q192.87813 37.596874 190.76875 37.596874Q190.09688 37.596874 189.675 37.39375Q189.26875 37.175 189.08125 36.8Q188.94063 36.55 188.89375 35.95625ZM184.15938 33.315624Q184.15938 34.64375 184.78438 35.39375Q185.425 36.128124 186.25313 36.128124Q186.8 36.128124 187.39375 35.8Q188.00313 35.471874 188.55 34.83125Q189.1125 34.190624 189.45625 33.20625Q189.81563 32.20625 189.81563 31.20625Q189.81563 29.878124 189.15938 29.159374Q188.50313 28.425 187.55 28.425Q186.925 28.425 186.3625 28.7375Q185.81563 29.05 185.3 29.753124Q184.78438 30.45625 184.47188 31.471874Q184.15938 32.471874 184.15938 33.315624ZM209.31563 32.534374L211.20625 33.003124Q210.6125 35.346874 209.06563 36.58125Q207.51875 37.8 205.26875 37.8Q202.95625 37.8 201.50313 36.8625Q200.06563 35.909374 199.3 34.128124Q198.55 32.33125 198.55 30.284374Q198.55 28.05 199.39375 26.39375Q200.25313 24.721874 201.83125 23.8625Q203.40938 22.9875 205.3 22.9875Q207.45625 22.9875 208.90938 24.08125Q210.37813 25.175 210.95625 27.159374L209.09688 27.596874Q208.59688 26.034374 207.64375 25.33125Q206.70625 24.6125 205.26875 24.6125Q203.6125 24.6125 202.50313 25.409374Q201.39375 26.190624 200.94063 27.534374Q200.50313 28.8625 200.50313 30.26875Q200.50313 32.096874 201.03438 33.471874Q201.56563 34.83125 202.69063 35.503124Q203.81563 36.175 205.1125 36.175Q206.70625 36.175 207.81563 35.253124Q208.925 34.33125 209.31563 32.534374ZM212.83125 37.55L212.83125 23.2375L214.58125 23.2375L214.58125 37.55L212.83125 37.55ZM223.65938 37.55L223.65938 36.01875Q222.45625 37.784374 220.37813 37.784374Q219.45625 37.784374 218.65938 37.440624Q217.8625 37.08125 217.47188 36.55Q217.09688 36.01875 216.94063 35.2375Q216.83125 34.721874 216.83125 33.596874L216.83125 27.175L218.58125 27.175L218.58125 32.925Q218.58125 34.3 218.69063 34.784374Q218.8625 35.471874 219.39375 35.878124Q219.94063 36.26875 220.72188 36.26875Q221.51875 36.26875 222.20625 35.8625Q222.90938 35.45625 223.19063 34.76875Q223.4875 34.065624 223.4875 32.7375L223.4875 27.175L225.2375 27.175L225.2375 37.55L223.65938 37.55ZM226.15938 34.45625L227.90938 34.175Q228.05 35.221874 228.72188 35.784374Q229.39375 36.33125 230.59688 36.33125Q231.8 36.33125 232.37813 35.846874Q232.97188 35.346874 232.97188 34.690624Q232.97188 34.096874 232.45625 33.753124Q232.09688 33.51875 230.65938 33.159374Q228.72188 32.659374 227.97188 32.315624Q227.2375 31.95625 226.84688 31.33125Q226.45625 30.690624 226.45625 29.925Q226.45625 29.2375 226.76875 28.64375Q227.09688 28.05 227.64375 27.659374Q228.05 27.3625 228.75313 27.159374Q229.47188 26.940624 230.28438 26.940624Q231.50313 26.940624 232.425 27.3Q233.34688 27.64375 233.78438 28.253124Q234.22188 28.846874 234.39375 29.846874L232.675 30.08125Q232.55 29.284374 231.9875 28.846874Q231.425 28.39375 230.40938 28.39375Q229.19063 28.39375 228.675 28.8Q228.15938 29.190624 228.15938 29.721874Q228.15938 30.065624 228.37813 30.346874Q228.58125 30.628124 229.05 30.815624Q229.31563 30.909374 230.59688 31.253124Q232.47188 31.753124 233.20625 32.08125Q233.94063 32.39375 234.3625 33.003124Q234.78438 33.596874 234.78438 34.503124Q234.78438 35.378124 234.26875 36.159374Q233.75313 36.940624 232.78438 37.3625Q231.81563 37.784374 230.59688 37.784374Q228.58125 37.784374 227.51875 36.940624Q226.45625 36.096874 226.15938 34.45625ZM240.70625 35.971874L240.95625 37.534374Q240.22188 37.690624 239.62813 37.690624Q238.675 37.690624 238.14375 37.39375Q237.62813 37.08125 237.40938 36.596874Q237.19063 36.096874 237.19063 34.51875L237.19063 28.55L235.90938 28.55L235.90938 27.175L237.19063 27.175L237.19063 24.6125L238.94063 23.55L238.94063 27.175L240.70625 27.175L240.70625 28.55L238.94063 28.55L238.94063 34.6125Q238.94063 35.3625 239.03438 35.58125Q239.12813 35.784374 239.33125 35.925Q239.55 36.05 239.94063 36.05Q240.22188 36.05 240.70625 35.971874ZM249.97188 34.20625L251.78438 34.440624Q251.3625 36.01875 250.19063 36.909374Q249.03438 37.784374 247.22188 37.784374Q244.95625 37.784374 243.6125 36.39375Q242.28438 34.9875 242.28438 32.45625Q242.28438 29.83125 243.62813 28.39375Q244.97188 26.940624 247.12813 26.940624Q249.20625 26.940624 250.51875 28.3625Q251.84688 29.76875 251.84688 32.346874Q251.84688 32.503124 251.83125 32.815624L244.09688 32.815624Q244.19063 34.51875 245.06563 35.425Q245.94063 36.33125 247.2375 36.33125Q248.20625 36.33125 248.87813 35.83125Q249.56563 35.315624 249.97188 34.20625ZM244.19063 31.3625L249.9875 31.3625Q249.87813 30.065624 249.33125 29.409374Q248.4875 28.39375 247.14375 28.39375Q245.94063 28.39375 245.1125 29.20625Q244.28438 30.003124 244.19063 31.3625ZM253.84688 37.55L253.84688 27.175L255.425 27.175L255.425 28.753124Q256.03436 27.64375 256.55 27.3Q257.0656 26.940624 257.675 26.940624Q258.5656 26.940624 259.4875 27.503124L258.8781 29.14375Q258.2375 28.753124 257.59686 28.753124Q257.01874 28.753124 256.55 29.1125Q256.09686 29.45625 255.89375 30.065624Q255.6125 31.003124 255.6125 32.1125L255.6125 37.55L253.84688 37.55Z" fill-rule="nonzero"/></svg>