<svg version="1.1" viewBox="0.0 0.0 600.0 371.0" fill="none" stroke="none" stroke-linecap="square" stroke-miterlimit="10" width="600" height="371" xmlns:xlink="http://www.w3.org/1999/xlink" xmlns="http://www.w3.org/2000/svg"><path fill="#ffffff" d="M0 0L600.0 0L600.0 371.0L0 371.0L0 0Z" fill-rule="nonzero"/><path stroke="#cccccc" stroke-width="1.0" stroke-linecap="butt" d="M48.5 61.5L48.5 332.5" fill-rule="nonzero"/><path stroke="#cccccc" stroke-width="1.0" stroke-linecap="butt" d="M195.5 61.5L195.5 332.5" fill-rule="nonzero"/><path stroke="#cccccc" stroke-width="1.0" stroke-linecap="butt" d="M343.5 61.5L343.5 332.5" fill-rule="nonzero"/><path stroke="#cccccc" stroke-width="1.0" stroke-linecap="butt" d="M490.5 61.5L490.5 332.5" fill-rule="nonzero"/><path stroke="#333333" stroke-width="1.0" stroke-linecap="butt" d="M48.5 332.5L490.5 332.5" fill-rule="nonzero"/><path stroke="#cccccc" stroke-width="1.0" stroke-linecap="butt" d="M48.5 264.5L490.5 264.5" fill-rule="nonzero"/><path stroke="#cccccc" stroke-width="1.0" stroke-linecap="butt" d="M48.5 197.5L490.5 197.5" fill-rule="nonzero"/><path stroke="#cccccc" stroke-width="1.0" stroke-linecap="butt" d="M48.5 129.5L490.5 129.5" fill-rule="nonzero"/><path stroke="#cccccc" stroke-width="1.0" stroke-linecap="butt" d="M48.5 61.5L490.5 61.5" fill-rule="nonzero"/><clipPath id="id_0"><path d="M48.55 61.916668L490.61444 61.916668L490.61444 332.45L48.55 332.45L48.55 61.916668Z" clip-rule="nonzero"/></clipPath><path stroke="#4285f4" stroke-width="2.0" stroke-linecap="butt" clip-path="url(#id_0)" d="M48.55 199.43333L195.90482 118.276306L343.25964 95.24012L490.61444 83.384514" fill-rule="nonzero"/><path stroke="#ea4335" stroke-width="2.0" stroke-linecap="butt" clip-path="url(#id_0)" d="M48.55 199.43333L195.90482 225.36316L343.25964 253.38004L490.61444 270.18362" fill-rule="nonzero"/><path fill="#000000" fill-opacity="0.0" clip-path="url(#id_0)" d="M51.55 199.43333C51.55 201.09018 50.206856 202.43333 48.55 202.43333C46.893147 202.43333 45.55 201.09018 45.55 199.43333C45.55 197.77647 46.893147 196.43333 48.55 196.43333C50.206856 196.43333 51.55 197.77647 51.55 199.43333Z" fill-rule="nonzero"/><path fill="#000000" fill-opacity="0.0" clip-path="url(#id_0)" d="M198.90482 118.276306C198.90482 119.93316 197.56168 121.276306 195.90482 121.276306C194.24796 121.276306 192.90482 119.93316 192.90482 118.276306C192.90482 116.619446 194.24796 115.276306 195.90482 115.276306C197.56168 115.276306 198.90482 116.619446 198.90482 118.276306Z" fill-rule="nonzero"/><path fill="#000000" fill-opacity="0.0" clip-path="url(#id_0)" d="M346.25964 95.24012C346.25964 96.89697 344.91647 98.24012 343.25964 98.24012C341.60278 98.24012 340.25964 96.89697 340.25964 95.24012C340.25964 93.58327 341.60278 92.24012 343.25964 92.24012C344.91647 92.24012 346.25964 93.58327 346.25964 95.24012Z" fill-rule="nonzero"/><path fill="#000000" fill-opacity="0.0" clip-path="url(#id_0)" d="M493.61444 83.384514C493.61444 85.04137 492.2713 86.384514 490.61444 86.384514C488.95758 86.384514 487.61444 85.04137 487.61444 83.384514C487.61444 81.72766 488.95758 80.384514 490.61444 80.384514C492.2713 80.384514 493.61444 81.72766 493.61444 83.384514Z" fill-rule="nonzero"/><path fill="#000000" fill-opacity="0.0" clip-path="url(#id_0)" d="M51.55 199.43333C51.55 201.09018 50.206856 202.43333 48.55 202.43333C46.893147 202.43333 45.55 201.09018 45.55 199.43333C45.55 197.77647 46.893147 196.43333 48.55 196.43333C50.206856 196.43333 51.55 197.77647 51.55 199.43333Z" fill-rule="nonzero"/><path fill="#000000" fill-opacity="0.0" clip-path="url(#id_0)" d="M198.90482 225.36316C198.90482 227.02 197.56168 228.36316 195.90482 228.36316C194.24796 228.36316 192.90482 227.02 192.90482 225.36316C192.90482 223.7063 194.24796 222.36316 195.90482 222.36316C197.56168 222.36316 198.90482 223.7063 198.90482 225.36316Z" fill-rule="nonzero"/><path fill="#000000" fill-opacity="0.0" clip-path="url(#id_0)" d="M346.25964 253.38004C346.25964 255.0369 344.91647 256.38004 343.25964 256.38004C341.60278 256.38004 340.25964 255.0369 340.25964 253.38004C340.25964 251.72319 341.60278 250.38004 343.25964 250.38004C344.91647 250.38004 346.25964 251.72319 346.25964 253.38004Z" fill-rule="nonzero"/><path fill="#000000" fill-opacity="0.0" clip-path="url(#id_0)" d="M493.61444 270.18362C493.61444 271.84048 492.2713 273.18362 490.61444 273.18362C488.95758 273.18362 487.61444 271.84048 487.61444 270.18362C487.61444 268.52676 488.95758 267.18362 490.61444 267.18362C492.2713 267.18362 493.61444 268.52676 493.61444 270.18362Z" fill-rule="nonzero"/><path fill="#000000" d="M19.05 332.21564Q19.05 330.6844 19.3625 329.7625Q19.675 328.825 20.284374 328.325Q20.909374 327.825 21.846874 327.825Q22.534374 327.825 23.05 328.10626Q23.58125 328.3875 23.925 328.91876Q24.26875 329.4344 24.45625 330.1844Q24.64375 330.9344 24.64375 332.21564Q24.64375 333.73126 24.33125 334.65314Q24.034374 335.575 23.409374 336.09064Q22.8 336.59064 21.846874 336.59064Q20.6125 336.59064 19.89375 335.7Q19.05 334.6375 19.05 332.21564ZM20.128124 332.21564Q20.128124 334.325 20.628124 335.02814Q21.128124 335.73126 21.846874 335.73126Q22.58125 335.73126 23.065624 335.02814Q23.565624 334.325 23.565624 332.21564Q23.565624 330.09064 23.065624 329.40314Q22.58125 328.7 21.83125 328.7Q21.1125 328.7 20.675 329.3094Q20.128124 330.09064 20.128124 332.21564ZM26.64375 336.45L26.64375 335.2469L27.846874 335.2469L27.846874 336.45L26.64375 336.45ZM29.05 332.21564Q29.05 330.6844 29.3625 329.7625Q29.675 328.825 30.284374 328.325Q30.909374 327.825 31.846874 327.825Q32.534374 327.825 33.05 328.10626Q33.58125 328.3875 33.925 328.91876Q34.26875 329.4344 34.45625 330.1844Q34.64375 330.9344 34.64375 332.21564Q34.64375 333.73126 34.33125 334.65314Q34.034374 335.575 33.409374 336.09064Q32.8 336.59064 31.846874 336.59064Q30.6125 336.59064 29.89375 335.7Q29.05 334.6375 29.05 332.21564ZM30.128124 332.21564Q30.128124 334.325 30.628124 335.02814Q31.128124 335.73126 31.846874 335.73126Q32.58125 335.73126 33.065624 335.02814Q33.565624 334.325 33.565624 332.21564Q33.565624 330.09064 33.065624 329.40314Q32.58125 328.7 31.83125 328.7Q31.1125 328.7 30.675 329.3094Q30.128124 330.09064 30.128124 332.21564ZM36.05 332.21564Q36.05 330.6844 36.3625 329.7625Q36.675 328.825 37.284374 328.325Q37.909374 327.825 38.846874 327.825Q39.534374 327.825 40.05 328.10626Q40.58125 328.3875 40.925 328.91876Q41.26875 329.4344 41.45625 330.1844Q41.64375 330.9344 41.64375 332.21564Q41.64375 333.73126 41.33125 334.65314Q41.034374 335.575 40.409374 336.09064Q39.8 336.59064 38.846874 336.59064Q37.6125 336.59064 36.89375 335.7Q36.05 334.6375 36.05 332.21564ZM37.128124 332.21564Q37.128124 334.325 37.628124 335.02814Q38.128124 335.73126 38.846874 335.73126Q39.58125 335.73126 40.065624 335.02814Q40.565624 334.325 40.565624 332.21564Q40.565624 330.09064 40.065624 329.40314Q39.58125 328.7 38.83125 328.7Q38.1125 328.7 37.675 329.3094Q37.128124 330.09064 37.128124 332.21564Z" fill-rule="nonzero"/><path fill="#000000" d="M19.05 264.5823Q19.05 263.05106 19.3625 262.12918Q19.675 261.19168 20.284374 260.69168Q20.909374 260.19168 21.846874 260.19168Q22.534374 260.19168 23.05 260.47293Q23.58125 260.75418 23.925 261.28543Q24.26875 261.80106 24.45625 262.55106Q24.64375 263.30106 24.64375 264.5823Q24.64375 266.09793 24.33125 267.0198Q24.034374 267.94168 23.409374 268.4573Q22.8 268.9573 21.846874 268.9573Q20.6125 268.9573 19.89375 268.06668Q19.05 267.00418 19.05 264.5823ZM20.128124 264.5823Q20.128124 266.69168 20.628124 267.3948Q21.128124 268.09793 21.846874 268.09793Q22.58125 268.09793 23.065624 267.3948Q23.565624 266.69168 23.565624 264.5823Q23.565624 262.4573 23.065624 261.7698Q22.58125 261.06668 21.83125 261.06668Q21.1125 261.06668 20.675 261.67606Q20.128124 262.4573 20.128124 264.5823ZM26.64375 268.81668L26.64375 267.61356L27.846874 267.61356L27.846874 268.81668L26.64375 268.81668ZM29.05 266.56668L30.159374 266.47293Q30.284374 267.28543 30.721874 267.69168Q31.175 268.09793 31.815624 268.09793Q32.565624 268.09793 33.096874 267.5198Q33.628124 266.94168 33.628124 266.00418Q33.628124 265.09793 33.1125 264.5823Q32.6125 264.05106 31.784374 264.05106Q31.284374 264.05106 30.8625 264.28543Q30.45625 264.5198 30.221874 264.87918L29.2375 264.75418L30.065624 260.34793L34.346874 260.34793L34.346874 261.34793L30.909374 261.34793L30.45625 263.66043Q31.221874 263.11356 32.065624 263.11356Q33.190624 263.11356 33.95625 263.8948Q34.7375 264.67606 34.7375 265.91043Q34.7375 267.06668 34.065624 267.92606Q33.2375 268.9573 31.815624 268.9573Q30.64375 268.9573 29.89375 268.30106Q29.159374 267.6448 29.05 266.56668ZM36.05 264.5823Q36.05 263.05106 36.3625 262.12918Q36.675 261.19168 37.284374 260.69168Q37.909374 260.19168 38.846874 260.19168Q39.534374 260.19168 40.05 260.47293Q40.58125 260.75418 40.925 261.28543Q41.26875 261.80106 41.45625 262.55106Q41.64375 263.30106 41.64375 264.5823Q41.64375 266.09793 41.33125 267.0198Q41.034374 267.94168 40.409374 268.4573Q39.8 268.9573 38.846874 268.9573Q37.6125 268.9573 36.89375 268.06668Q36.05 267.00418 36.05 264.5823ZM37.128124 264.5823Q37.128124 266.69168 37.628124 267.3948Q38.128124 268.09793 38.846874 268.09793Q39.58125 268.09793 40.065624 267.3948Q40.565624 266.69168 40.565624 264.5823Q40.565624 262.4573 40.065624 261.7698Q39.58125 261.06668 38.83125 261.06668Q38.1125 261.06668 37.675 261.67606Q37.128124 262.4573 37.128124 264.5823Z" fill-rule="nonzero"/><path fill="#000000" d="M23.01875 201.18333L21.971874 201.18333L21.971874 194.46458Q21.58125 194.82396 20.95625 195.19896Q20.346874 195.55833 19.8625 195.73021L19.8625 194.71458Q20.7375 194.29271 21.39375 193.71458Q22.065624 193.12083 22.346874 192.55833L23.01875 192.55833L23.01875 201.18333ZM26.64375 201.18333L26.64375 199.98021L27.846874 199.98021L27.846874 201.18333L26.64375 201.18333ZM29.05 196.94896Q29.05 195.41771 29.3625 194.49583Q29.675 193.55833 30.284374 193.05833Q30.909374 192.55833 31.846874 192.55833Q32.534374 192.55833 33.05 192.83958Q33.58125 193.12083 33.925 193.65208Q34.26875 194.16771 34.45625 194.91771Q34.64375 195.66771 34.64375 196.94896Q34.64375 198.46458 34.33125 199.38646Q34.034374 200.30833 33.409374 200.82396Q32.8 201.32396 31.846874 201.32396Q30.6125 201.32396 29.89375 200.43333Q29.05 199.37083 29.05 196.94896ZM30.128124 196.94896Q30.128124 199.05833 30.628124 199.76146Q31.128124 200.46458 31.846874 200.46458Q32.58125 200.46458 33.065624 199.76146Q33.565624 199.05833 33.565624 196.94896Q33.565624 194.82396 33.065624 194.13646Q32.58125 193.43333 31.83125 193.43333Q31.1125 193.43333 30.675 194.04271Q30.128124 194.82396 30.128124 196.94896ZM36.05 196.94896Q36.05 195.41771 36.3625 194.49583Q36.675 193.55833 37.284374 193.05833Q37.909374 192.55833 38.846874 192.55833Q39.534374 192.55833 40.05 192.83958Q40.58125 193.12083 40.925 193.65208Q41.26875 194.16771 41.45625 194.91771Q41.64375 195.66771 41.64375 196.94896Q41.64375 198.46458 41.33125 199.38646Q41.034374 200.30833 40.409374 200.82396Q39.8 201.32396 38.846874 201.32396Q37.6125 201.32396 36.89375 200.43333Q36.05 199.37083 36.05 196.94896ZM37.128124 196.94896Q37.128124 199.05833 37.628124 199.76146Q38.128124 200.46458 38.846874 200.46458Q39.58125 200.46458 40.065624 199.76146Q40.565624 199.05833 40.565624 196.94896Q40.565624 194.82396 40.065624 194.13646Q39.58125 193.43333 38.83125 193.43333Q38.1125 193.43333 37.675 194.04271Q37.128124 194.82396 37.128124 196.94896Z" fill-rule="nonzero"/><path fill="#000000" d="M23.01875 133.55L21.971874 133.55L21.971874 126.83125Q21.58125 127.19063 20.95625 127.56563Q20.346874 127.925 19.8625 128.09688L19.8625 127.08125Q20.7375 126.65938 21.39375 126.08125Q22.065624 125.4875 22.346874 124.925L23.01875 124.925L23.01875 133.55ZM26.64375 133.55L26.64375 132.34688L27.846874 132.34688L27.846874 133.55L26.64375 133.55ZM29.05 131.3L30.159374 131.20625Q30.284374 132.01875 30.721874 132.425Q31.175 132.83125 31.815624 132.83125Q32.565624 132.83125 33.096874 132.25313Q33.628124 131.675 33.628124 130.7375Q33.628124 129.83125 33.1125 129.31563Q32.6125 128.78438 31.784374 128.78438Q31.284374 128.78438 30.8625 129.01875Q30.45625 129.25313 30.221874 129.6125L29.2375 129.4875L30.065624 125.08125L34.346874 125.08125L34.346874 126.08125L30.909374 126.08125L30.45625 128.39375Q31.221874 127.84688 32.065624 127.84688Q33.190624 127.84688 33.95625 128.62813Q34.7375 129.40938 34.7375 130.64375Q34.7375 131.8 34.065624 132.65938Q33.2375 133.69063 31.815624 133.69063Q30.64375 133.69063 29.89375 133.03438Q29.159374 132.37813 29.05 131.3ZM36.05 129.31563Q36.05 127.78438 36.3625 126.8625Q36.675 125.925 37.284374 125.425Q37.909374 124.925 38.846874 124.925Q39.534374 124.925 40.05 125.20625Q40.58125 125.4875 40.925 126.01875Q41.26875 126.53438 41.45625 127.28438Q41.64375 128.03438 41.64375 129.31563Q41.64375 130.83125 41.33125 131.75313Q41.034374 132.675 40.409374 133.19063Q39.8 133.69063 38.846874 133.69063Q37.6125 133.69063 36.89375 132.8Q36.05 131.7375 36.05 129.31563ZM37.128124 129.31563Q37.128124 131.425 37.628124 132.12813Q38.128124 132.83125 38.846874 132.83125Q39.58125 132.83125 40.065624 132.12813Q40.565624 131.425 40.565624 129.31563Q40.565624 127.19063 40.065624 126.50313Q39.58125 125.8 38.83125 125.8Q38.1125 125.8 37.675 126.40938Q37.128124 127.19063 37.128124 129.31563Z" fill-rule="nonzero"/><path fill="#000000" d="M24.596874 64.90104L24.596874 65.916664L18.909374 65.916664Q18.909374 65.541664 19.034374 65.18229Q19.253124 64.604164 19.721874 64.041664Q20.20625 63.479164 21.1125 62.74479Q22.51875 61.58854 23.003124 60.916664Q23.503124 60.24479 23.503124 59.65104Q23.503124 59.02604 23.05 58.604164Q22.596874 58.166664 21.878124 58.166664Q21.1125 58.166664 20.659374 58.61979Q20.20625 59.072914 20.190624 59.885414L19.1125 59.77604Q19.221874 58.55729 19.940624 57.93229Q20.675 57.291664 21.909374 57.291664Q23.14375 57.291664 23.8625 57.979164Q24.58125 58.666664 24.58125 59.68229Q24.58125 60.197914 24.3625 60.697914Q24.159374 61.18229 23.659374 61.74479Q23.175 62.291664 22.05 63.24479Q21.096874 64.041664 20.815624 64.33854Q20.55 64.61979 20.378124 64.90104L24.596874 64.90104ZM26.64375 65.916664L26.64375 64.71354L27.846874 64.71354L27.846874 65.916664L26.64375 65.916664ZM29.05 61.68229Q29.05 60.15104 29.3625 59.229164Q29.675 58.291664 30.284374 57.791664Q30.909374 57.291664 31.846874 57.291664Q32.534374 57.291664 33.05 57.572914Q33.58125 57.854164 33.925 58.385414Q34.26875 58.90104 34.45625 59.65104Q34.64375 60.40104 34.64375 61.68229Q34.64375 63.197914 34.33125 64.11979Q34.034374 65.041664 33.409374 65.55729Q32.8 66.05729 31.846874 66.05729Q30.6125 66.05729 29.89375 65.166664Q29.05 64.104164 29.05 61.68229ZM30.128124 61.68229Q30.128124 63.791664 30.628124 64.49479Q31.128124 65.197914 31.846874 65.197914Q32.58125 65.197914 33.065624 64.49479Q33.565624 63.791664 33.565624 61.68229Q33.565624 59.55729 33.065624 58.86979Q32.58125 58.166664 31.83125 58.166664Q31.1125 58.166664 30.675 58.77604Q30.128124 59.55729 30.128124 61.68229ZM36.05 61.68229Q36.05 60.15104 36.3625 59.229164Q36.675 58.291664 37.284374 57.791664Q37.909374 57.291664 38.846874 57.291664Q39.534374 57.291664 40.05 57.572914Q40.58125 57.854164 40.925 58.385414Q41.26875 58.90104 41.45625 59.65104Q41.64375 60.40104 41.64375 61.68229Q41.64375 63.197914 41.33125 64.11979Q41.034374 65.041664 40.409374 65.55729Q39.8 66.05729 38.846874 66.05729Q37.6125 66.05729 36.89375 65.166664Q36.05 64.104164 36.05 61.68229ZM37.128124 61.68229Q37.128124 63.791664 37.628124 64.49479Q38.128124 65.197914 38.846874 65.197914Q39.58125 65.197914 40.065624 64.49479Q40.565624 63.791664 40.565624 61.68229Q40.565624 59.55729 40.065624 58.86979Q39.58125 58.166664 38.83125 58.166664Q38.1125 58.166664 37.675 58.77604Q37.128124 59.55729 37.128124 61.68229Z" fill-rule="nonzero"/><path fill="#000000" d="M49.51875 349.45L48.471874 349.45L48.471874 342.73126Q48.08125 343.09064 47.45625 343.46564Q46.846874 343.825 46.3625 343.9969L46.3625 342.98126Q47.2375 342.5594 47.89375 341.98126Q48.565624 341.3875 48.846874 340.825L49.51875 340.825L49.51875 349.45Z" fill-rule="nonzero"/><path fill="#000000" d="M198.45169 348.4344L198.45169 349.45L192.76419 349.45Q192.76419 349.075 192.88919 348.71564Q193.10794 348.1375 193.57669 347.575Q194.06107 347.0125 194.96732 346.27814Q196.37357 345.1219 196.85794 344.45Q197.35794 343.77814 197.35794 343.1844Q197.35794 342.5594 196.90482 342.1375Q196.45169 341.7 195.73294 341.7Q194.96732 341.7 194.51419 342.15314Q194.06107 342.60626 194.04544 343.41876L192.96732 343.3094Q193.07669 342.09064 193.79544 341.46564Q194.52982 340.825 195.76419 340.825Q196.99857 340.825 197.71732 341.5125Q198.43607 342.2 198.43607 343.21564Q198.43607 343.73126 198.21732 344.23126Q198.01419 344.71564 197.51419 345.27814Q197.02982 345.825 195.90482 346.77814Q194.95169 347.575 194.67044 347.8719Q194.40482 348.15314 194.23294 348.4344L198.45169 348.4344Z" fill-rule="nonzero"/><path fill="#000000" d="M340.25964 347.1844L341.32214 347.04376Q341.49402 347.9344 341.93152 348.34064Q342.36902 348.73126 342.99402 348.73126Q343.74402 348.73126 344.25964 348.21564Q344.77527 347.7 344.77527 346.9344Q344.77527 346.21564 344.2909 345.7469Q343.82214 345.2625 343.08777 345.2625Q342.7909 345.2625 342.33777 345.3875L342.46277 344.45Q342.57214 344.46564 342.63464 344.46564Q343.30652 344.46564 343.83777 344.1219Q344.38464 343.7625 344.38464 343.02814Q344.38464 342.45 343.99402 342.075Q343.6034 341.6844 342.9784 341.6844Q342.36902 341.6844 341.94714 342.075Q341.5409 342.46564 341.43152 343.23126L340.36902 343.04376Q340.55652 341.9969 341.24402 341.41876Q341.93152 340.825 342.94714 340.825Q343.65027 340.825 344.24402 341.1375Q344.83777 341.4344 345.15027 341.95Q345.46277 342.46564 345.46277 343.0594Q345.46277 343.60626 345.1659 344.075Q344.86902 344.52814 344.2909 344.79376Q345.0409 344.96564 345.46277 345.52814Q345.88464 346.075 345.88464 346.91876Q345.88464 348.04376 345.05652 348.825Q344.24402 349.60626 342.99402 349.60626Q341.86902 349.60626 341.11902 348.9344Q340.36902 348.2469 340.25964 347.1844Z" fill-rule="nonzero"/><path fill="#000000" d="M490.98944 349.45L490.98944 347.3875L487.2707 347.3875L487.2707 346.41876L491.19257 340.85626L492.05194 340.85626L492.05194 346.41876L493.2082 346.41876L493.2082 347.3875L492.05194 347.3875L492.05194 349.45L490.98944 349.45ZM490.98944 346.41876L490.98944 342.5594L488.30194 346.41876L490.98944 346.41876Z" fill-rule="nonzero"/><path stroke="#4285f4" stroke-width="4.0" stroke-linecap="butt" d="M510.45 61.916668L522.45 61.916668" fill-rule="nonzero"/><path fill="#1a1a1a" d="M530.825 64.05729L531.85626 63.90104Q531.95 64.52604 532.34064 64.854164Q532.7469 65.18229 533.48126 65.18229Q534.2 65.18229 534.54376 64.90104Q534.90314 64.604164 534.90314 64.197914Q534.90314 63.83854 534.59064 63.635414Q534.3719 63.49479 533.5125 63.27604Q532.35626 62.979164 531.90314 62.77604Q531.46564 62.55729 531.23126 62.18229Q530.9969 61.80729 530.9969 61.33854Q530.9969 60.93229 531.1844 60.572914Q531.3719 60.21354 531.7 59.979164Q531.95 59.80729 532.3719 59.68229Q532.79376 59.55729 533.29376 59.55729Q534.0125 59.55729 534.5594 59.77604Q535.1219 59.979164 535.3875 60.33854Q535.65314 60.697914 535.7469 61.291664L534.71564 61.43229Q534.65314 60.96354 534.3094 60.697914Q533.98126 60.416664 533.35626 60.416664Q532.6375 60.416664 532.325 60.666664Q532.0125 60.90104 532.0125 61.229164Q532.0125 61.43229 532.1375 61.58854Q532.27814 61.760414 532.54376 61.86979Q532.7 61.93229 533.48126 62.135414Q534.60626 62.447914 535.04376 62.635414Q535.48126 62.822914 535.73126 63.18229Q535.98126 63.541664 535.98126 64.08854Q535.98126 64.61979 535.66876 65.08854Q535.3719 65.541664 534.79376 65.80729Q534.21564 66.05729 533.48126 66.05729Q532.2625 66.05729 531.6219 65.55729Q530.9969 65.041664 530.825 64.05729ZM538.2469 68.30729L538.2469 59.697914L539.2 59.697914L539.2 60.49479Q539.54376 60.02604 539.96564 59.791664Q540.40314 59.55729 541.0125 59.55729Q541.8094 59.55729 542.41876 59.96354Q543.02814 60.36979 543.325 61.11979Q543.6375 61.86979 543.6375 62.760414Q543.6375 63.71354 543.29376 64.479164Q542.96564 65.24479 542.3094 65.65104Q541.65314 66.05729 540.9344 66.05729Q540.40314 66.05729 539.98126 65.83854Q539.5594 65.604164 539.29376 65.27604L539.29376 68.30729L538.2469 68.30729ZM539.2 62.83854Q539.2 64.041664 539.6844 64.61979Q540.16876 65.18229 540.85626 65.18229Q541.5594 65.18229 542.0594 64.58854Q542.5594 63.99479 542.5594 62.74479Q542.5594 61.55729 542.075 60.979164Q541.59064 60.385414 540.90314 60.385414Q540.23126 60.385414 539.71564 61.010414Q539.2 61.635414 539.2 62.83854ZM549.4969 63.916664L550.59064 64.041664Q550.34064 64.99479 549.6375 65.52604Q548.9344 66.05729 547.85626 66.05729Q546.4969 66.05729 545.6844 65.21354Q544.8875 64.36979 544.8875 62.854164Q544.8875 61.291664 545.7 60.43229Q546.5125 59.55729 547.79376 59.55729Q549.04376 59.55729 549.825 60.40104Q550.6219 61.24479 550.6219 62.791664Q550.6219 62.885414 550.6219 63.072914L545.98126 63.072914Q546.04376 64.104164 546.5594 64.65104Q547.075 65.18229 547.85626 65.18229Q548.4344 65.18229 548.84064 64.885414Q549.2625 64.572914 549.4969 63.916664ZM546.04376 62.21354L549.5125 62.21354Q549.45 61.416664 549.1219 61.02604Q548.60626 60.416664 547.8094 60.416664Q547.075 60.416664 546.575 60.90104Q546.09064 61.385414 546.04376 62.21354ZM556.4969 63.916664L557.59064 64.041664Q557.34064 64.99479 556.6375 65.52604Q555.9344 66.05729 554.85626 66.05729Q553.4969 66.05729 552.6844 65.21354Q551.8875 64.36979 551.8875 62.854164Q551.8875 61.291664 552.7 60.43229Q553.5125 59.55729 554.79376 59.55729Q556.04376 59.55729 556.825 60.40104Q557.6219 61.24479 557.6219 62.791664Q557.6219 62.885414 557.6219 63.072914L552.98126 63.072914Q553.04376 64.104164 553.5594 64.65104Q554.075 65.18229 554.85626 65.18229Q555.4344 65.18229 555.84064 64.885414Q556.2625 64.572914 556.4969 63.916664ZM553.04376 62.21354L556.5125 62.21354Q556.45 61.416664 556.1219 61.02604Q555.60626 60.416664 554.8094 60.416664Q554.075 60.416664 553.575 60.90104Q553.09064 61.385414 553.04376 62.21354ZM563.27814 65.916664L563.27814 65.135414Q562.6844 66.05729 561.54376 66.05729Q560.79376 66.05729 560.16876 65.65104Q559.54376 65.229164 559.2 64.49479Q558.85626 63.760414 558.85626 62.80729Q558.85626 61.885414 559.16876 61.11979Q559.48126 60.354164 560.10626 59.96354Q560.73126 59.55729 561.4969 59.55729Q562.0594 59.55729 562.4969 59.791664Q562.9344 60.02604 563.21564 60.40104L563.21564 57.322914L564.2625 57.322914L564.2625 65.916664L563.27814 65.916664ZM559.95 62.80729Q559.95 64.010414 560.45 64.604164Q560.95 65.18229 561.6375 65.18229Q562.325 65.18229 562.8094 64.61979Q563.29376 64.05729 563.29376 62.90104Q563.29376 61.61979 562.79376 61.02604Q562.3094 60.43229 561.59064 60.43229Q560.8875 60.43229 560.41876 61.010414Q559.95 61.572914 559.95 62.80729ZM570.325 65.916664L570.325 64.99479Q569.59064 66.05729 568.34064 66.05729Q567.79376 66.05729 567.3094 65.854164Q566.84064 65.635414 566.60626 65.322914Q566.3719 64.99479 566.27814 64.52604Q566.21564 64.229164 566.21564 63.541664L566.21564 59.697914L567.27814 59.697914L567.27814 63.15104Q567.27814 63.96354 567.34064 64.260414Q567.4344 64.666664 567.7469 64.916664Q568.075 65.15104 568.5594 65.15104Q569.02814 65.15104 569.4344 64.916664Q569.85626 64.666664 570.02814 64.24479Q570.21564 63.822914 570.21564 63.02604L570.21564 59.697914L571.2625 59.697914L571.2625 65.916664L570.325 65.916664ZM573.2469 68.30729L573.2469 59.697914L574.2 59.697914L574.2 60.49479Q574.54376 60.02604 574.96564 59.791664Q575.40314 59.55729 576.0125 59.55729Q576.8094 59.55729 577.41876 59.96354Q578.02814 60.36979 578.325 61.11979Q578.6375 61.86979 578.6375 62.760414Q578.6375 63.71354 578.29376 64.479164Q577.96564 65.24479 577.3094 65.65104Q576.65314 66.05729 575.9344 66.05729Q575.40314 66.05729 574.98126 65.83854Q574.5594 65.604164 574.29376 65.27604L574.29376 68.30729L573.2469 68.30729ZM574.2 62.83854Q574.2 64.041664 574.6844 64.61979Q575.16876 65.18229 575.85626 65.18229Q576.5594 65.18229 577.0594 64.58854Q577.5594 63.99479 577.5594 62.74479Q577.5594 61.55729 577.075 60.979164Q576.59064 60.385414 575.90314 60.385414Q575.23126 60.385414 574.71564 61.010414Q574.2 61.635414 574.2 62.83854Z" fill-rule="nonzero"/><path stroke="#ea4335" stroke-width="4.0" stroke-linecap="butt" d="M510.45 85.916664L522.45 85.916664" fill-rule="nonzero"/><path fill="#1a1a1a" d="M531.40314 89.916664L531.40314 81.322914L537.60626 81.322914L537.60626 82.33854L532.54376 82.33854L532.54376 84.96354L537.29376 84.96354L537.29376 85.979164L532.54376 85.979164L532.54376 88.90104L537.8094 88.90104L537.8094 89.916664L531.40314 89.916664ZM539.4969 89.916664L539.4969 84.510414L538.5594 84.510414L538.5594 83.697914L539.4969 83.697914L539.4969 83.02604Q539.4969 82.40104 539.60626 82.104164Q539.7625 81.68229 540.1375 81.43229Q540.52814 81.18229 541.21564 81.18229Q541.66876 81.18229 542.2 81.291664L542.04376 82.197914Q541.71564 82.15104 541.41876 82.15104Q540.9344 82.15104 540.73126 82.354164Q540.54376 82.55729 540.54376 83.11979L540.54376 83.697914L541.7625 83.697914L541.7625 84.510414L540.54376 84.510414L540.54376 89.916664L539.4969 89.916664ZM542.4969 89.916664L542.4969 84.510414L541.5594 84.510414L541.5594 83.697914L542.4969 83.697914L542.4969 83.02604Q542.4969 82.40104 542.60626 82.104164Q542.7625 81.68229 543.1375 81.43229Q543.52814 81.18229 544.21564 81.18229Q544.66876 81.18229 545.2 81.291664L545.04376 82.197914Q544.71564 82.15104 544.41876 82.15104Q543.9344 82.15104 543.73126 82.354164Q543.54376 82.55729 543.54376 83.11979L543.54376 83.697914L544.7625 83.697914L544.7625 84.510414L543.54376 84.510414L543.54376 89.916664L542.4969 89.916664ZM545.2469 82.541664L545.2469 81.322914L546.3094 81.322914L546.3094 82.541664L545.2469 82.541664ZM545.2469 89.916664L545.2469 83.697914L546.3094 83.697914L546.3094 89.916664L545.2469 89.916664ZM552.3094 87.635414L553.34064 87.77604Q553.16876 88.83854 552.46564 89.447914Q551.7625 90.05729 550.7469 90.05729Q549.46564 90.05729 548.6844 89.229164Q547.91876 88.385414 547.91876 86.822914Q547.91876 85.822914 548.2469 85.072914Q548.59064 84.30729 549.2625 83.93229Q549.95 83.55729 550.7625 83.55729Q551.7625 83.55729 552.40314 84.072914Q553.0594 84.572914 553.2469 85.52604L552.21564 85.68229Q552.075 85.05729 551.7 84.74479Q551.325 84.416664 550.79376 84.416664Q549.9969 84.416664 549.4969 84.99479Q548.9969 85.55729 548.9969 86.791664Q548.9969 88.05729 549.48126 88.61979Q549.96564 89.18229 550.73126 89.18229Q551.35626 89.18229 551.7625 88.80729Q552.1844 88.43229 552.3094 87.635414ZM554.2469 82.541664L554.2469 81.322914L555.3094 81.322914L555.3094 82.541664L554.2469 82.541664ZM554.2469 89.916664L554.2469 83.697914L555.3094 83.697914L555.3094 89.916664L554.2469 89.916664ZM561.4969 87.916664L562.59064 88.041664Q562.34064 88.99479 561.6375 89.52604Q560.9344 90.05729 559.85626 90.05729Q558.4969 90.05729 557.6844 89.21354Q556.8875 88.36979 556.8875 86.854164Q556.8875 85.291664 557.7 84.43229Q558.5125 83.55729 559.79376 83.55729Q561.04376 83.55729 561.825 84.40104Q562.6219 85.24479 562.6219 86.791664Q562.6219 86.885414 562.6219 87.072914L557.98126 87.072914Q558.04376 88.104164 558.5594 88.65104Q559.075 89.18229 559.85626 89.18229Q560.4344 89.18229 560.84064 88.885414Q561.2625 88.572914 561.4969 87.916664ZM558.04376 86.21354L561.5125 86.21354Q561.45 85.416664 561.1219 85.02604Q560.60626 84.416664 559.8094 84.416664Q559.075 84.416664 558.575 84.90104Q558.09064 85.385414 558.04376 86.21354ZM564.2469 89.916664L564.2469 83.697914L565.1844 83.697914L565.1844 84.572914Q565.8719 83.55729 567.16876 83.55729Q567.73126 83.55729 568.2 83.760414Q568.6844 83.96354 568.91876 84.291664Q569.15314 84.61979 569.2469 85.05729Q569.29376 85.354164 569.29376 86.08854L569.29376 89.916664L568.2469 89.916664L568.2469 86.135414Q568.2469 85.479164 568.1219 85.166664Q567.9969 84.854164 567.6844 84.666664Q567.3719 84.46354 566.95 84.46354Q566.27814 84.46354 565.77814 84.90104Q565.29376 85.322914 565.29376 86.510414L565.29376 89.916664L564.2469 89.916664ZM575.3094 87.635414L576.34064 87.77604Q576.16876 88.83854 575.46564 89.447914Q574.7625 90.05729 573.7469 90.05729Q572.46564 90.05729 571.6844 89.229164Q570.91876 88.385414 570.91876 86.822914Q570.91876 85.822914 571.2469 85.072914Q571.59064 84.30729 572.2625 83.93229Q572.95 83.55729 573.7625 83.55729Q574.7625 83.55729 575.40314 84.072914Q576.0594 84.572914 576.2469 85.52604L575.21564 85.68229Q575.075 85.05729 574.7 84.74479Q574.325 84.416664 573.79376 84.416664Q572.9969 84.416664 572.4969 84.99479Q571.9969 85.55729 571.9969 86.791664Q571.9969 88.05729 572.48126 88.61979Q572.96564 89.18229 573.73126 89.18229Q574.35626 89.18229 574.7625 88.80729Q575.1844 88.43229 575.3094 87.635414ZM577.2 92.30729L577.075 91.322914Q577.41876 91.416664 577.6844 91.416664Q578.02814 91.416664 578.23126 91.291664Q578.45 91.18229 578.59064 90.979164Q578.6844 90.80729 578.91876 90.18229Q578.9344 90.104164 579.0125 89.93229L576.6375 83.697914L577.77814 83.697914L579.075 87.291664Q579.325 87.979164 579.52814 88.74479Q579.71564 88.010414 579.96564 87.322914L581.29376 83.697914L582.34064 83.697914L579.98126 90.02604Q579.59064 91.041664 579.3875 91.43229Q579.10626 91.96354 578.73126 92.197914Q578.3719 92.447914 577.8719 92.447914Q577.575 92.447914 577.2 92.30729Z" fill-rule="nonzero"/><path fill="#757575" d="M20.01875 37.55L20.01875 23.2375L21.909374 23.2375L21.909374 35.8625L28.95625 35.8625L28.95625 37.55L20.01875 37.55ZM37.64375 36.26875Q36.659374 37.096874 35.753124 37.440624Q34.846874 37.784374 33.815624 37.784374Q32.1125 37.784374 31.190624 36.95625Q30.26875 36.1125 30.26875 34.815624Q30.26875 34.05 30.6125 33.425Q30.971874 32.8 31.534374 32.425Q32.096874 32.034374 32.8 31.83125Q33.315624 31.70625 34.3625 31.565624Q36.4875 31.315624 37.4875 30.971874Q37.503124 30.6125 37.503124 30.503124Q37.503124 29.440624 37.003124 28.9875Q36.33125 28.39375 35.003124 28.39375Q33.753124 28.39375 33.159374 28.83125Q32.58125 29.26875 32.3 30.378124L30.58125 30.14375Q30.815624 29.034374 31.346874 28.3625Q31.878124 27.675 32.89375 27.315624Q33.909374 26.940624 35.253124 26.940624Q36.58125 26.940624 37.409374 27.253124Q38.2375 27.565624 38.628124 28.05Q39.01875 28.51875 39.175 29.2375Q39.26875 29.690624 39.26875 30.8625L39.26875 33.20625Q39.26875 35.659374 39.378124 36.315624Q39.4875 36.95625 39.83125 37.55L37.9875 37.55Q37.721874 37.003124 37.64375 36.26875ZM37.4875 32.346874Q36.534374 32.7375 34.6125 33.003124Q33.534374 33.159374 33.08125 33.3625Q32.64375 33.55 32.39375 33.925Q32.14375 34.3 32.14375 34.76875Q32.14375 35.471874 32.675 35.940624Q33.20625 36.409374 34.2375 36.409374Q35.253124 36.409374 36.034374 35.971874Q36.83125 35.51875 37.20625 34.753124Q37.4875 34.14375 37.4875 32.9875L37.4875 32.346874ZM41.8625 41.51875L41.8625 27.175L43.471874 27.175L43.471874 28.51875Q44.034374 27.7375 44.7375 27.346874Q45.45625 26.940624 46.471874 26.940624Q47.8 26.940624 48.815624 27.628124Q49.83125 28.315624 50.346874 29.565624Q50.878124 30.8 50.878124 32.284374Q50.878124 33.878124 50.3 35.159374Q49.7375 36.425 48.64375 37.1125Q47.55 37.784374 46.346874 37.784374Q45.471874 37.784374 44.76875 37.409374Q44.08125 37.034374 43.628124 36.471874L43.628124 41.51875L41.8625 41.51875ZM43.45625 32.425Q43.45625 34.425 44.26875 35.378124Q45.08125 36.33125 46.2375 36.33125Q47.409374 36.33125 48.2375 35.346874Q49.08125 34.3625 49.08125 32.26875Q49.08125 30.3 48.253124 29.315624Q47.440624 28.315624 46.315624 28.315624Q45.190624 28.315624 44.315624 29.378124Q43.45625 30.425 43.45625 32.425ZM52.83125 37.55L52.83125 23.2375L54.58125 23.2375L54.58125 37.55L52.83125 37.55ZM63.64375 36.26875Q62.659374 37.096874 61.753124 37.440624Q60.846874 37.784374 59.815624 37.784374Q58.1125 37.784374 57.190624 36.95625Q56.26875 36.1125 56.26875 34.815624Q56.26875 34.05 56.6125 33.425Q56.971874 32.8 57.534374 32.425Q58.096874 32.034374 58.8 31.83125Q59.315624 31.70625 60.3625 31.565624Q62.4875 31.315624 63.4875 30.971874Q63.503124 30.6125 63.503124 30.503124Q63.503124 29.440624 63.003124 28.9875Q62.33125 28.39375 61.003124 28.39375Q59.753124 28.39375 59.159374 28.83125Q58.58125 29.26875 58.3 30.378124L56.58125 30.14375Q56.815624 29.034374 57.346874 28.3625Q57.878124 27.675 58.89375 27.315624Q59.909374 26.940624 61.253124 26.940624Q62.58125 26.940624 63.409374 27.253124Q64.2375 27.565624 64.62813 28.05Q65.01875 28.51875 65.175 29.2375Q65.26875 29.690624 65.26875 30.8625L65.26875 33.20625Q65.26875 35.659374 65.37813 36.315624Q65.4875 36.95625 65.83125 37.55L63.9875 37.55Q63.721874 37.003124 63.64375 36.26875ZM63.4875 32.346874Q62.534374 32.7375 60.6125 33.003124Q59.534374 33.159374 59.08125 33.3625Q58.64375 33.55 58.39375 33.925Q58.14375 34.3 58.14375 34.76875Q58.14375 35.471874 58.675 35.940624Q59.20625 36.409374 60.2375 36.409374Q61.253124 36.409374 62.034374 35.971874Q62.83125 35.51875 63.20625 34.753124Q63.4875 34.14375 63.4875 32.9875L63.4875 32.346874ZM74.64375 33.753124L76.3625 33.971874Q76.08125 35.76875 74.90938 36.784374Q73.75313 37.784374 72.05 37.784374Q69.925 37.784374 68.62813 36.39375Q67.33125 35.003124 67.33125 32.409374Q67.33125 30.721874 67.87813 29.471874Q68.44063 28.20625 69.58125 27.58125Q70.72188 26.940624 72.06563 26.940624Q73.75313 26.940624 74.81563 27.8Q75.89375 28.659374 76.20625 30.221874L74.4875 30.4875Q74.25313 29.440624 73.62813 28.925Q73.00313 28.39375 72.12813 28.39375Q70.8 28.39375 69.97188 29.346874Q69.14375 30.3 69.14375 32.346874Q69.14375 34.440624 69.94063 35.39375Q70.7375 36.33125 72.03438 36.33125Q73.06563 36.33125 73.75313 35.70625Q74.45625 35.065624 74.64375 33.753124ZM84.97188 34.20625L86.78438 34.440624Q86.3625 36.01875 85.19063 36.909374Q84.03438 37.784374 82.22188 37.784374Q79.95625 37.784374 78.6125 36.39375Q77.28438 34.9875 77.28438 32.45625Q77.28438 29.83125 78.62813 28.39375Q79.97188 26.940624 82.12813 26.940624Q84.20625 26.940624 85.51875 28.3625Q86.84688 29.76875 86.84688 32.346874Q86.84688 32.503124 86.83125 32.815624L79.09688 32.815624Q79.19063 34.51875 80.06563 35.425Q80.94063 36.33125 82.2375 36.33125Q83.20625 36.33125 83.87813 35.83125Q84.56563 35.315624 84.97188 34.20625ZM79.19063 31.3625L84.9875 31.3625Q84.87813 30.065624 84.33125 29.409374Q83.4875 28.39375 82.14375 28.39375Q80.94063 28.39375 80.1125 29.20625Q79.28438 30.003124 79.19063 31.3625ZM94.12813 33.4875L95.83125 33.253124Q95.90938 34.89375 96.45625 35.503124Q97.00313 36.096874 97.97188 36.096874Q98.675 36.096874 99.19063 35.784374Q99.70625 35.45625 99.89375 34.89375Q100.09688 34.33125 100.09688 33.096874L100.09688 23.2375L102.00313 23.2375L102.00313 32.9875Q102.00313 34.784374 101.56563 35.76875Q101.12813 36.753124 100.175 37.284374Q99.2375 37.8 97.97188 37.8Q96.09688 37.8 95.08125 36.721874Q94.08125 35.628124 94.12813 33.4875ZM111.64375 36.26875Q110.65938 37.096874 109.75313 37.440624Q108.84688 37.784374 107.81563 37.784374Q106.1125 37.784374 105.19063 36.95625Q104.26875 36.1125 104.26875 34.815624Q104.26875 34.05 104.6125 33.425Q104.97188 32.8 105.53438 32.425Q106.09688 32.034374 106.8 31.83125Q107.31563 31.70625 108.3625 31.565624Q110.4875 31.315624 111.4875 30.971874Q111.50313 30.6125 111.50313 30.503124Q111.50313 29.440624 111.00313 28.9875Q110.33125 28.39375 109.00313 28.39375Q107.75313 28.39375 107.15938 28.83125Q106.58125 29.26875 106.3 30.378124L104.58125 30.14375Q104.81563 29.034374 105.34688 28.3625Q105.87813 27.675 106.89375 27.315624Q107.90938 26.940624 109.25313 26.940624Q110.58125 26.940624 111.40938 27.253124Q112.2375 27.565624 112.62813 28.05Q113.01875 28.51875 113.175 29.2375Q113.26875 29.690624 113.26875 30.8625L113.26875 33.20625Q113.26875 35.659374 113.37813 36.315624Q113.4875 36.95625 113.83125 37.55L111.9875 37.55Q111.72188 37.003124 111.64375 36.26875ZM111.4875 32.346874Q110.53438 32.7375 108.6125 33.003124Q107.53438 33.159374 107.08125 33.3625Q106.64375 33.55 106.39375 33.925Q106.14375 34.3 106.14375 34.76875Q106.14375 35.471874 106.675 35.940624Q107.20625 36.409374 108.2375 36.409374Q109.25313 36.409374 110.03438 35.971874Q110.83125 35.51875 111.20625 34.753124Q111.4875 34.14375 111.4875 32.9875L111.4875 32.346874ZM122.64375 33.753124L124.3625 33.971874Q124.08125 35.76875 122.90938 36.784374Q121.75313 37.784374 120.05 37.784374Q117.925 37.784374 116.62813 36.39375Q115.33125 35.003124 115.33125 32.409374Q115.33125 30.721874 115.87813 29.471874Q116.44063 28.20625 117.58125 27.58125Q118.72188 26.940624 120.06563 26.940624Q121.75313 26.940624 122.81563 27.8Q123.89375 28.659374 124.20625 30.221874L122.4875 30.4875Q122.25313 29.440624 121.62813 28.925Q121.00313 28.39375 120.12813 28.39375Q118.8 28.39375 117.97188 29.346874Q117.14375 30.3 117.14375 32.346874Q117.14375 34.440624 117.94063 35.39375Q118.7375 36.33125 120.03438 36.33125Q121.06563 36.33125 121.75313 35.70625Q122.45625 35.065624 122.64375 33.753124ZM125.22188 32.3625Q125.22188 29.4875 126.81563 28.096874Q128.15938 26.940624 130.08125 26.940624Q132.22188 26.940624 133.56563 28.346874Q134.925 29.753124 134.925 32.221874Q134.925 34.221874 134.33125 35.378124Q133.7375 36.51875 132.58125 37.159374Q131.44063 37.784374 130.08125 37.784374Q127.89375 37.784374 126.55 36.39375Q125.22188 34.9875 125.22188 32.3625ZM127.01875 32.3625Q127.01875 34.3625 127.87813 35.346874Q128.75313 36.33125 130.08125 36.33125Q131.39375 36.33125 132.25313 35.346874Q133.12813 34.346874 133.12813 32.3Q133.12813 30.378124 132.25313 29.39375Q131.37813 28.39375 130.08125 28.39375Q128.75313 28.39375 127.87813 29.39375Q127.01875 30.378124 127.01875 32.3625ZM138.4875 37.55L136.8625 37.55L136.8625 23.2375L138.6125 23.2375L138.6125 28.346874Q139.7375 26.940624 141.45625 26.940624Q142.40938 26.940624 143.26875 27.33125Q144.12813 27.721874 144.675 28.425Q145.22188 29.1125 145.53438 30.096874Q145.84688 31.08125 145.84688 32.20625Q145.84688 34.878124 144.53438 36.33125Q143.22188 37.784374 141.37813 37.784374Q139.53438 37.784374 138.4875 36.253124L138.4875 37.55ZM138.47188 32.284374Q138.47188 34.14375 138.97188 34.9875Q139.81563 36.33125 141.22188 36.33125Q142.37813 36.33125 143.20625 35.33125Q144.05 34.33125 144.05 32.346874Q144.05 30.315624 143.2375 29.3625Q142.44063 28.39375 141.3 28.39375Q140.14375 28.39375 139.3 29.39375Q138.47188 30.39375 138.47188 32.284374ZM147.87813 25.253124L147.87813 23.2375L149.64375 23.2375L149.64375 25.253124L147.87813 25.253124ZM147.87813 37.55L147.87813 27.175L149.64375 27.175L149.64375 37.55L147.87813 37.55ZM164.64375 33.753124L166.3625 33.971874Q166.08125 35.76875 164.90938 36.784374Q163.75313 37.784374 162.05 37.784374Q159.925 37.784374 158.62813 36.39375Q157.33125 35.003124 157.33125 32.409374Q157.33125 30.721874 157.87813 29.471874Q158.44063 28.20625 159.58125 27.58125Q160.72188 26.940624 162.06563 26.940624Q163.75313 26.940624 164.81563 27.8Q165.89375 28.659374 166.20625 30.221874L164.4875 30.4875Q164.25313 29.440624 163.62813 28.925Q163.00313 28.39375 162.12813 28.39375Q160.8 28.39375 159.97188 29.346874Q159.14375 30.3 159.14375 32.346874Q159.14375 34.440624 159.94063 35.39375Q160.7375 36.33125 162.03438 36.33125Q163.06563 36.33125 163.75313 35.70625Q164.45625 35.065624 164.64375 33.753124ZM167.22188 32.3625Q167.22188 29.4875 168.81563 28.096874Q170.15938 26.940624 172.08125 26.940624Q174.22188 26.940624 175.56563 28.346874Q176.925 29.753124 176.925 32.221874Q176.925 34.221874 176.33125 35.378124Q175.7375 36.51875 174.58125 37.159374Q173.44063 37.784374 172.08125 37.784374Q169.89375 37.784374 168.55 36.39375Q167.22188 34.9875 167.22188 32.3625ZM169.01875 32.3625Q169.01875 34.3625 169.87813 35.346874Q170.75313 36.33125 172.08125 36.33125Q173.39375 36.33125 174.25313 35.346874Q175.12813 34.346874 175.12813 32.3Q175.12813 30.378124 174.25313 29.39375Q173.37813 28.39375 172.08125 28.39375Q170.75313 28.39375 169.87813 29.39375Q169.01875 30.378124 169.01875 32.3625ZM178.8625 37.55L178.8625 27.175L180.44063 27.175L180.44063 28.628124Q180.925 27.878124 181.7375 27.409374Q182.55 26.940624 183.58125 26.940624Q184.7375 26.940624 185.47188 27.425Q186.20625 27.89375 186.51875 28.753124Q187.75313 26.940624 189.72188 26.940624Q191.26875 26.940624 192.09688 27.8Q192.925 28.659374 192.925 30.425L192.925 37.55L191.175 37.55L191.175 31.01875Q191.175 29.95625 191.00313 29.503124Q190.83125 29.034374 190.37813 28.753124Q189.94063 28.471874 189.33125 28.471874Q188.2375 28.471874 187.50313 29.20625Q186.78438 29.925 186.78438 31.51875L186.78438 37.55L185.03438 37.55L185.03438 30.815624Q185.03438 29.64375 184.59688 29.065624Q184.175 28.471874 183.19063 28.471874Q182.45625 28.471874 181.81563 28.8625Q181.19063 29.253124 180.90938 30.003124Q180.62813 30.753124 180.62813 32.175L180.62813 37.55L178.8625 37.55ZM200.51875 30.58125Q200.51875 27.01875 202.425 25.003124Q204.34688 22.971874 207.37813 22.971874Q209.3625 22.971874 210.94063 23.925Q212.53438 24.878124 213.3625 26.58125Q214.20625 28.26875 214.20625 30.409374Q214.20625 32.58125 213.33125 34.3Q212.45625 36.01875 210.83125 36.909374Q209.22188 37.8 207.3625 37.8Q205.34688 37.8 203.75313 36.83125Q202.15938 35.846874 201.33125 34.159374Q200.51875 32.45625 200.51875 30.58125ZM202.47188 30.6125Q202.47188 33.190624 203.8625 34.690624Q205.25313 36.175 207.34688 36.175Q209.4875 36.175 210.8625 34.675Q212.25313 33.159374 212.25313 30.39375Q212.25313 28.659374 211.65938 27.3625Q211.08125 26.05 209.94063 25.33125Q208.8 24.6125 207.37813 24.6125Q205.37813 24.6125 203.925 26.003124Q202.47188 27.378124 202.47188 30.6125ZM216.8625 41.51875L216.8625 27.175L218.47188 27.175L218.47188 28.51875Q219.03438 27.7375 219.7375 27.346874Q220.45625 26.940624 221.47188 26.940624Q222.8 26.940624 223.81563 27.628124Q224.83125 28.315624 225.34688 29.565624Q225.87813 30.8 225.87813 32.284374Q225.87813 33.878124 225.3 35.159374Q224.7375 36.425 223.64375 37.1125Q222.55 37.784374 221.34688 37.784374Q220.47188 37.784374 219.76875 37.409374Q219.08125 37.034374 218.62813 36.471874L218.62813 41.51875L216.8625 41.51875ZM218.45625 32.425Q218.45625 34.425 219.26875 35.378124Q220.08125 36.33125 221.2375 36.33125Q222.40938 36.33125 223.2375 35.346874Q224.08125 34.3625 224.08125 32.26875Q224.08125 30.3 223.25313 29.315624Q222.44063 28.315624 221.31563 28.315624Q220.19063 28.315624 219.31563 29.378124Q218.45625 30.425 218.45625 32.425ZM234.97188 34.20625L236.78438 34.440624Q236.3625 36.01875 235.19063 36.909374Q234.03438 37.784374 232.22188 37.784374Q229.95625 37.784374 228.6125 36.39375Q227.28438 34.9875 227.28438 32.45625Q227.28438 29.83125 228.62813 28.39375Q229.97188 26.940624 232.12813 26.940624Q234.20625 26.940624 235.51875 28.3625Q236.84688 29.76875 236.84688 32.346874Q236.84688 32.503124 236.83125 32.815624L229.09688 32.815624Q229.19063 34.51875 230.06563 35.425Q230.94063 36.33125 232.2375 36.33125Q233.20625 36.33125 233.87813 35.83125Q234.56563 35.315624 234.97188 34.20625ZM229.19063 31.3625L234.9875 31.3625Q234.87813 30.065624 234.33125 29.409374Q233.4875 28.39375 232.14375 28.39375Q230.94063 28.39375 230.1125 29.20625Q229.28438 30.003124 229.19063 31.3625ZM238.8625 37.55L238.8625 27.175L240.45625 27.175L240.45625 28.659374Q241.59688 26.940624 243.75313 26.940624Q244.69063 26.940624 245.47188 27.284374Q246.26875 27.6125 246.65938 28.159374Q247.05 28.70625 247.20625 29.45625Q247.3 29.95625 247.3 31.175L247.3 37.55L245.53438 37.55L245.53438 31.2375Q245.53438 30.159374 245.33125 29.628124Q245.12813 29.096874 244.59688 28.784374Q244.08125 28.471874 243.37813 28.471874Q242.25313 28.471874 241.44063 29.190624Q240.62813 29.89375 240.62813 31.878124L240.62813 37.55L238.8625 37.55ZM249.03438 37.55L249.03438 23.2375L251.89375 23.2375L255.26875 33.3625Q255.7375 34.784374 255.95625 35.4875Q256.20624 34.70625 256.72186 33.190624L260.14374 23.2375L262.6906 23.2375L262.6906 37.55L260.8781 37.55L260.8781 25.565624L256.70624 37.55L255.00313 37.55L250.8625 25.3625L250.8625 37.55L249.03438 37.55ZM266.09686 37.55L266.09686 23.2375L271.4875 23.2375Q272.925 23.2375 273.675 23.3625Q274.72186 23.55 275.4406 24.05Q276.15936 24.534374 276.58124 25.425Q277.01874 26.315624 277.01874 27.378124Q277.01874 29.20625 275.84686 30.471874Q274.6906 31.721874 271.65936 31.721874L267.9875 31.721874L267.9875 37.55L266.09686 37.55ZM267.9875 30.034374L271.6906 30.034374Q273.51874 30.034374 274.28436 29.3625Q275.0656 28.675 275.0656 27.425Q275.0656 26.534374 274.6125 25.89375Q274.15936 25.253124 273.425 25.05Q272.9406 24.925 271.64374 24.925L267.9875 24.925L267.9875 30.034374Z" fill-rule="nonzero"/></svg>